<ttFont>
    <TTGlyph name="A" xMin="5" yMin="-11" xMax="626" yMax="608">
      <contour>
        <pt x="315" y="537" on="1"/>
        <pt x="170" y="237" on="1"/>
        <pt x="461" y="237" on="1"/>
      </contour>
      <contour>
        <pt x="230" y="608" on="1"/>
        <pt x="319" y="608" on="1"/>
        <pt x="335" y="608" on="0"/>
        <pt x="341" y="596" on="1"/>
        <pt x="624" y="24" on="1"/>
        <pt x="626" y="20" on="0"/>
        <pt x="626" y="15" on="1"/>
        <pt x="626" y="-2" on="0"/>
        <pt x="610" y="-8" on="1"/>
        <pt x="604" y="-10" on="0"/>
        <pt x="599" y="-10" on="1"/>
        <pt x="582" y="-10" on="0"/>
        <pt x="576" y="3" on="1"/>
        <pt x="483" y="191" on="1"/>
        <pt x="148" y="191" on="1"/>
        <pt x="55" y="3" on="1"/>
        <pt x="46" y="-17" on="0"/>
        <pt x="21" y="-8" on="1"/>
        <pt x="5" y="-2" on="0"/>
        <pt x="5" y="14" on="1"/>
        <pt x="5" y="18" on="0"/>
        <pt x="7" y="23" on="1"/>
        <pt x="273" y="561" on="1"/>
        <pt x="230" y="561" on="1"/>
        <pt x="220" y="561" on="0"/>
        <pt x="207" y="574" on="0"/>
        <pt x="207" y="594" on="0"/>
        <pt x="220" y="608" on="0"/>
      </contour>
    </TTGlyph>
    <TTGlyph name="AE" xMin="-13" yMin="-12" xMax="870" yMax="608">
      <contour>
        <pt x="434" y="561" on="1"/>
        <pt x="430" y="561" on="1"/>
        <pt x="267" y="329" on="1"/>
        <pt x="434" y="329" on="1"/>
      </contour>
      <contour>
        <pt x="337" y="561" on="1"/>
        <pt x="326" y="561" on="0"/>
        <pt x="310" y="575" on="0"/>
        <pt x="310" y="595" on="0"/>
        <pt x="325" y="608" on="0"/>
        <pt x="337" y="608" on="1"/>
        <pt x="844" y="608" on="1"/>
        <pt x="870" y="608" on="0"/>
        <pt x="870" y="584" on="1"/>
        <pt x="870" y="502" on="1"/>
        <pt x="870" y="492" on="0"/>
        <pt x="854" y="479" on="0"/>
        <pt x="832" y="479" on="0"/>
        <pt x="816" y="492" on="0"/>
        <pt x="816" y="502" on="1"/>
        <pt x="816" y="561" on="1"/>
        <pt x="488" y="561" on="1"/>
        <pt x="488" y="329" on="1"/>
        <pt x="770" y="329" on="1"/>
        <pt x="770" y="366" on="1"/>
        <pt x="770" y="376" on="0"/>
        <pt x="785" y="389" on="0"/>
        <pt x="807" y="389" on="0"/>
        <pt x="822" y="376" on="0"/>
        <pt x="822" y="366" on="1"/>
        <pt x="822" y="244" on="1"/>
        <pt x="822" y="234" on="0"/>
        <pt x="807" y="221" on="0"/>
        <pt x="785" y="221" on="0"/>
        <pt x="770" y="234" on="0"/>
        <pt x="770" y="244" on="1"/>
        <pt x="770" y="282" on="1"/>
        <pt x="488" y="282" on="1"/>
        <pt x="488" y="47" on="1"/>
        <pt x="843" y="47" on="1"/>
        <pt x="855" y="47" on="0"/>
        <pt x="870" y="34" on="0"/>
        <pt x="870" y="14" on="0"/>
        <pt x="854" y="0" on="0"/>
        <pt x="843" y="0" on="1"/>
        <pt x="459" y="0" on="1"/>
        <pt x="434" y="0" on="0"/>
        <pt x="434" y="22" on="1"/>
        <pt x="434" y="282" on="1"/>
        <pt x="234" y="282" on="1"/>
        <pt x="35" y="0" on="1"/>
        <pt x="27" y="-11" on="0"/>
        <pt x="18" y="-11" on="1"/>
        <pt x="-6" y="-11" on="0"/>
        <pt x="-12" y="10" on="1"/>
        <pt x="-13" y="14" on="0"/>
        <pt x="-13" y="23" on="0"/>
        <pt x="-9" y="28" on="1"/>
        <pt x="368" y="561" on="1"/>
      </contour>
    </TTGlyph>
    <TTGlyph name="Aacute" xMin="5" yMin="-11" xMax="626" yMax="790">
      <contour>
        <pt x="170" y="237" on="1"/>
        <pt x="461" y="237" on="1"/>
        <pt x="315" y="537" on="1"/>
      </contour>
      <contour>
        <pt x="319" y="608" on="1"/>
        <pt x="335" y="608" on="0"/>
        <pt x="341" y="596" on="1"/>
        <pt x="624" y="24" on="1"/>
        <pt x="626" y="20" on="0"/>
        <pt x="626" y="15" on="1"/>
        <pt x="626" y="-2" on="0"/>
        <pt x="610" y="-8" on="1"/>
        <pt x="585" y="-17" on="0"/>
        <pt x="576" y="3" on="1"/>
        <pt x="483" y="191" on="1"/>
        <pt x="148" y="191" on="1"/>
        <pt x="55" y="3" on="1"/>
        <pt x="49" y="-10" on="0"/>
        <pt x="32" y="-10" on="1"/>
        <pt x="27" y="-10" on="0"/>
        <pt x="21" y="-8" on="1"/>
        <pt x="5" y="-2" on="0"/>
        <pt x="5" y="14" on="1"/>
        <pt x="5" y="18" on="0"/>
        <pt x="7" y="23" on="1"/>
        <pt x="273" y="561" on="1"/>
        <pt x="230" y="561" on="1"/>
        <pt x="220" y="561" on="0"/>
        <pt x="207" y="574" on="0"/>
        <pt x="207" y="594" on="0"/>
        <pt x="220" y="608" on="0"/>
        <pt x="230" y="608" on="1"/>
      </contour>
      <contour>
        <pt x="349" y="780" on="1"/>
        <pt x="358" y="790" on="0"/>
        <pt x="374" y="790" on="0"/>
        <pt x="390" y="774" on="0"/>
        <pt x="390" y="758" on="0"/>
        <pt x="380" y="749" on="1"/>
        <pt x="318" y="694" on="1"/>
        <pt x="311" y="688" on="0"/>
        <pt x="298" y="688" on="0"/>
        <pt x="288" y="698" on="0"/>
        <pt x="288" y="711" on="0"/>
        <pt x="294" y="718" on="1"/>
      </contour>
    </TTGlyph>
    <TTGlyph name="Acircumflex" xMin="5" yMin="-11" xMax="626" yMax="779">
      <contour>
        <pt x="315" y="537" on="1"/>
        <pt x="170" y="237" on="1"/>
        <pt x="461" y="237" on="1"/>
      </contour>
      <contour>
        <pt x="230" y="608" on="1"/>
        <pt x="319" y="608" on="1"/>
        <pt x="335" y="608" on="0"/>
        <pt x="341" y="596" on="1"/>
        <pt x="624" y="24" on="1"/>
        <pt x="626" y="20" on="0"/>
        <pt x="626" y="15" on="1"/>
        <pt x="626" y="-2" on="0"/>
        <pt x="610" y="-8" on="1"/>
        <pt x="604" y="-10" on="0"/>
        <pt x="599" y="-10" on="1"/>
        <pt x="582" y="-10" on="0"/>
        <pt x="576" y="3" on="1"/>
        <pt x="483" y="191" on="1"/>
        <pt x="148" y="191" on="1"/>
        <pt x="55" y="3" on="1"/>
        <pt x="46" y="-17" on="0"/>
        <pt x="21" y="-8" on="1"/>
        <pt x="5" y="-2" on="0"/>
        <pt x="5" y="14" on="1"/>
        <pt x="5" y="18" on="0"/>
        <pt x="7" y="23" on="1"/>
        <pt x="273" y="561" on="1"/>
        <pt x="230" y="561" on="1"/>
        <pt x="220" y="561" on="0"/>
        <pt x="207" y="574" on="0"/>
        <pt x="207" y="594" on="0"/>
        <pt x="220" y="608" on="0"/>
      </contour>
      <contour>
        <pt x="250" y="686" on="1"/>
        <pt x="244" y="692" on="0"/>
        <pt x="244" y="704" on="0"/>
        <pt x="249" y="710" on="1"/>
        <pt x="293" y="768" on="1"/>
        <pt x="301" y="779" on="0"/>
        <pt x="329" y="779" on="0"/>
        <pt x="337" y="768" on="1"/>
        <pt x="381" y="710" on="1"/>
        <pt x="386" y="704" on="0"/>
        <pt x="386" y="692" on="0"/>
        <pt x="375" y="682" on="0"/>
        <pt x="369" y="682" on="1"/>
        <pt x="354" y="690" on="1"/>
        <pt x="315" y="731" on="1"/>
        <pt x="276" y="690" on="1"/>
        <pt x="268" y="682" on="0"/>
        <pt x="261" y="682" on="1"/>
      </contour>
    </TTGlyph>
    <TTGlyph name="Adieresis" xMin="5" yMin="-11" xMax="626" yMax="760">
      <contour>
        <pt x="170" y="237" on="1"/>
        <pt x="461" y="237" on="1"/>
        <pt x="315" y="537" on="1"/>
      </contour>
      <contour>
        <pt x="319" y="608" on="1"/>
        <pt x="335" y="608" on="0"/>
        <pt x="341" y="596" on="1"/>
        <pt x="624" y="24" on="1"/>
        <pt x="626" y="20" on="0"/>
        <pt x="626" y="15" on="1"/>
        <pt x="626" y="-2" on="0"/>
        <pt x="610" y="-8" on="1"/>
        <pt x="585" y="-17" on="0"/>
        <pt x="576" y="3" on="1"/>
        <pt x="483" y="191" on="1"/>
        <pt x="148" y="191" on="1"/>
        <pt x="55" y="3" on="1"/>
        <pt x="49" y="-10" on="0"/>
        <pt x="32" y="-10" on="1"/>
        <pt x="27" y="-10" on="0"/>
        <pt x="21" y="-8" on="1"/>
        <pt x="5" y="-2" on="0"/>
        <pt x="5" y="14" on="1"/>
        <pt x="5" y="18" on="0"/>
        <pt x="7" y="23" on="1"/>
        <pt x="273" y="561" on="1"/>
        <pt x="230" y="561" on="1"/>
        <pt x="220" y="561" on="0"/>
        <pt x="207" y="574" on="0"/>
        <pt x="207" y="594" on="0"/>
        <pt x="220" y="608" on="0"/>
        <pt x="230" y="608" on="1"/>
      </contour>
      <contour>
        <pt x="217" y="729" on="1"/>
        <pt x="217" y="760" on="0"/>
        <pt x="248" y="760" on="1"/>
        <pt x="262" y="760" on="0"/>
        <pt x="279" y="742" on="0"/>
        <pt x="279" y="716" on="0"/>
        <pt x="262" y="699" on="0"/>
        <pt x="233" y="699" on="0"/>
        <pt x="217" y="716" on="0"/>
      </contour>
      <contour>
        <pt x="352" y="729" on="1"/>
        <pt x="352" y="760" on="0"/>
        <pt x="383" y="760" on="1"/>
        <pt x="397" y="760" on="0"/>
        <pt x="414" y="742" on="0"/>
        <pt x="414" y="716" on="0"/>
        <pt x="397" y="699" on="0"/>
        <pt x="368" y="699" on="0"/>
        <pt x="352" y="716" on="0"/>
      </contour>
    </TTGlyph>
    <TTGlyph name="Agrave" xMin="5" yMin="-11" xMax="626" yMax="790">
      <contour>
        <pt x="315" y="537" on="1"/>
        <pt x="170" y="237" on="1"/>
        <pt x="461" y="237" on="1"/>
      </contour>
      <contour>
        <pt x="230" y="608" on="1"/>
        <pt x="319" y="608" on="1"/>
        <pt x="335" y="608" on="0"/>
        <pt x="341" y="596" on="1"/>
        <pt x="624" y="24" on="1"/>
        <pt x="626" y="20" on="0"/>
        <pt x="626" y="15" on="1"/>
        <pt x="626" y="-2" on="0"/>
        <pt x="610" y="-8" on="1"/>
        <pt x="604" y="-10" on="0"/>
        <pt x="599" y="-10" on="1"/>
        <pt x="582" y="-10" on="0"/>
        <pt x="576" y="3" on="1"/>
        <pt x="483" y="191" on="1"/>
        <pt x="148" y="191" on="1"/>
        <pt x="55" y="3" on="1"/>
        <pt x="46" y="-17" on="0"/>
        <pt x="21" y="-8" on="1"/>
        <pt x="5" y="-2" on="0"/>
        <pt x="5" y="14" on="1"/>
        <pt x="5" y="18" on="0"/>
        <pt x="7" y="23" on="1"/>
        <pt x="273" y="561" on="1"/>
        <pt x="230" y="561" on="1"/>
        <pt x="220" y="561" on="0"/>
        <pt x="207" y="574" on="0"/>
        <pt x="207" y="594" on="0"/>
        <pt x="220" y="608" on="0"/>
      </contour>
      <contour>
        <pt x="311" y="718" on="1"/>
        <pt x="317" y="711" on="0"/>
        <pt x="317" y="698" on="0"/>
        <pt x="307" y="688" on="0"/>
        <pt x="294" y="688" on="0"/>
        <pt x="287" y="694" on="1"/>
        <pt x="225" y="749" on="1"/>
        <pt x="215" y="758" on="0"/>
        <pt x="215" y="774" on="0"/>
        <pt x="231" y="790" on="0"/>
        <pt x="247" y="790" on="0"/>
        <pt x="256" y="780" on="1"/>
      </contour>
    </TTGlyph>
    <TTGlyph name="Aring" xMin="5" yMin="-11" xMax="626" yMax="800">
      <contour>
        <pt x="170" y="237" on="1"/>
        <pt x="461" y="237" on="1"/>
        <pt x="315" y="537" on="1"/>
      </contour>
      <contour>
        <pt x="319" y="608" on="1"/>
        <pt x="335" y="608" on="0"/>
        <pt x="341" y="596" on="1"/>
        <pt x="624" y="24" on="1"/>
        <pt x="626" y="20" on="0"/>
        <pt x="626" y="15" on="1"/>
        <pt x="626" y="-2" on="0"/>
        <pt x="610" y="-8" on="1"/>
        <pt x="585" y="-17" on="0"/>
        <pt x="576" y="3" on="1"/>
        <pt x="483" y="191" on="1"/>
        <pt x="148" y="191" on="1"/>
        <pt x="55" y="3" on="1"/>
        <pt x="49" y="-10" on="0"/>
        <pt x="32" y="-10" on="1"/>
        <pt x="27" y="-10" on="0"/>
        <pt x="21" y="-8" on="1"/>
        <pt x="5" y="-2" on="0"/>
        <pt x="5" y="14" on="1"/>
        <pt x="5" y="18" on="0"/>
        <pt x="7" y="23" on="1"/>
        <pt x="273" y="561" on="1"/>
        <pt x="230" y="561" on="1"/>
        <pt x="220" y="561" on="0"/>
        <pt x="207" y="574" on="0"/>
        <pt x="207" y="594" on="0"/>
        <pt x="220" y="608" on="0"/>
        <pt x="230" y="608" on="1"/>
      </contour>
      <contour>
        <pt x="245" y="705" on="0"/>
        <pt x="245" y="763" on="0"/>
        <pt x="284" y="800" on="0"/>
        <pt x="346" y="800" on="0"/>
        <pt x="386" y="763" on="0"/>
        <pt x="386" y="705" on="0"/>
        <pt x="346" y="668" on="0"/>
        <pt x="284" y="668" on="0"/>
      </contour>
      <contour>
        <pt x="283" y="750" on="0"/>
        <pt x="283" y="718" on="0"/>
        <pt x="302" y="701" on="0"/>
        <pt x="328" y="701" on="0"/>
        <pt x="348" y="718" on="0"/>
        <pt x="348" y="750" on="0"/>
        <pt x="328" y="767" on="0"/>
        <pt x="302" y="767" on="0"/>
      </contour>
    </TTGlyph>
    <TTGlyph name="Atilde" xMin="5" yMin="-11" xMax="626" yMax="777">
      <contour>
        <pt x="315" y="537" on="1"/>
        <pt x="170" y="237" on="1"/>
        <pt x="461" y="237" on="1"/>
      </contour>
      <contour>
        <pt x="230" y="608" on="1"/>
        <pt x="319" y="608" on="1"/>
        <pt x="335" y="608" on="0"/>
        <pt x="341" y="596" on="1"/>
        <pt x="624" y="24" on="1"/>
        <pt x="626" y="20" on="0"/>
        <pt x="626" y="15" on="1"/>
        <pt x="626" y="-2" on="0"/>
        <pt x="610" y="-8" on="1"/>
        <pt x="604" y="-10" on="0"/>
        <pt x="599" y="-10" on="1"/>
        <pt x="582" y="-10" on="0"/>
        <pt x="576" y="3" on="1"/>
        <pt x="483" y="191" on="1"/>
        <pt x="148" y="191" on="1"/>
        <pt x="55" y="3" on="1"/>
        <pt x="46" y="-17" on="0"/>
        <pt x="21" y="-8" on="1"/>
        <pt x="5" y="-2" on="0"/>
        <pt x="5" y="14" on="1"/>
        <pt x="5" y="18" on="0"/>
        <pt x="7" y="23" on="1"/>
        <pt x="273" y="561" on="1"/>
        <pt x="230" y="561" on="1"/>
        <pt x="220" y="561" on="0"/>
        <pt x="207" y="574" on="0"/>
        <pt x="207" y="594" on="0"/>
        <pt x="220" y="608" on="0"/>
      </contour>
      <contour>
        <pt x="252" y="733" on="1"/>
        <pt x="231" y="733" on="0"/>
        <pt x="231" y="688" on="0"/>
        <pt x="185" y="688" on="0"/>
        <pt x="185" y="740" on="0"/>
        <pt x="221" y="777" on="0"/>
        <pt x="283" y="777" on="0"/>
        <pt x="358" y="733" on="0"/>
        <pt x="370" y="733" on="1"/>
        <pt x="390" y="733" on="0"/>
        <pt x="390" y="777" on="0"/>
        <pt x="436" y="777" on="0"/>
        <pt x="436" y="726" on="0"/>
        <pt x="400" y="690" on="0"/>
        <pt x="339" y="690" on="0"/>
        <pt x="267" y="733" on="0"/>
      </contour>
    </TTGlyph>
    <TTGlyph name="B" xMin="25" yMin="0" xMax="567" yMax="608">
      <contour>
        <pt x="48" y="608" on="1"/>
        <pt x="326" y="608" on="1"/>
        <pt x="431" y="608" on="0"/>
        <pt x="532" y="533" on="0"/>
        <pt x="532" y="362" on="0"/>
        <pt x="463" y="326" on="1"/>
        <pt x="567" y="289" on="0"/>
        <pt x="567" y="172" on="1"/>
        <pt x="567" y="0" on="0"/>
        <pt x="345" y="0" on="1"/>
        <pt x="129" y="0" on="1"/>
        <pt x="117" y="0" on="0"/>
        <pt x="101" y="13" on="0"/>
        <pt x="101" y="23" on="1"/>
        <pt x="101" y="561" on="1"/>
        <pt x="48" y="561" on="1"/>
        <pt x="38" y="561" on="0"/>
        <pt x="25" y="574" on="0"/>
        <pt x="25" y="594" on="0"/>
        <pt x="38" y="608" on="0"/>
      </contour>
      <contour>
        <pt x="155" y="297" on="1"/>
        <pt x="155" y="47" on="1"/>
        <pt x="345" y="47" on="1"/>
        <pt x="430" y="47" on="0"/>
        <pt x="512" y="107" on="0"/>
        <pt x="512" y="172" on="1"/>
        <pt x="512" y="297" on="0"/>
        <pt x="361" y="297" on="1"/>
      </contour>
      <contour>
        <pt x="155" y="561" on="1"/>
        <pt x="155" y="344" on="1"/>
        <pt x="349" y="344" on="1"/>
        <pt x="408" y="344" on="0"/>
        <pt x="478" y="400" on="0"/>
        <pt x="478" y="509" on="0"/>
        <pt x="404" y="561" on="0"/>
        <pt x="326" y="561" on="1"/>
      </contour>
    </TTGlyph>
    <TTGlyph name="C" xMin="47" yMin="-10" xMax="578" yMax="618">
      <contour>
        <pt x="532" y="121" on="1"/>
        <pt x="539" y="131" on="0"/>
        <pt x="557" y="131" on="0"/>
        <pt x="578" y="114" on="0"/>
        <pt x="578" y="98" on="0"/>
        <pt x="572" y="91" on="1"/>
        <pt x="488" y="-10" on="0"/>
        <pt x="341" y="-10" on="1"/>
        <pt x="211" y="-10" on="0"/>
        <pt x="47" y="163" on="0"/>
        <pt x="47" y="443" on="0"/>
        <pt x="211" y="618" on="0"/>
        <pt x="460" y="618" on="0"/>
        <pt x="543" y="570" on="1"/>
        <pt x="558" y="562" on="0"/>
        <pt x="558" y="549" on="1"/>
        <pt x="558" y="463" on="1"/>
        <pt x="558" y="453" on="0"/>
        <pt x="542" y="440" on="0"/>
        <pt x="520" y="440" on="0"/>
        <pt x="504" y="453" on="0"/>
        <pt x="504" y="463" on="1"/>
        <pt x="504" y="537" on="1"/>
        <pt x="430" y="571" on="0"/>
        <pt x="341" y="571" on="1"/>
        <pt x="234" y="571" on="0"/>
        <pt x="101" y="422" on="0"/>
        <pt x="101" y="186" on="0"/>
        <pt x="234" y="37" on="0"/>
        <pt x="463" y="37" on="0"/>
      </contour>
    </TTGlyph>
    <TTGlyph name="Ccedilla" xMin="47" yMin="-183" xMax="578" yMax="618">
      <contour>
        <pt x="532" y="121" on="1"/>
        <pt x="539" y="131" on="0"/>
        <pt x="557" y="131" on="0"/>
        <pt x="578" y="114" on="0"/>
        <pt x="578" y="98" on="0"/>
        <pt x="572" y="91" on="1"/>
        <pt x="500" y="4" on="0"/>
        <pt x="373" y="-8" on="1"/>
        <pt x="360" y="-38" on="1"/>
        <pt x="392" y="-42" on="0"/>
        <pt x="429" y="-81" on="0"/>
        <pt x="429" y="-141" on="0"/>
        <pt x="373" y="-183" on="0"/>
        <pt x="294" y="-183" on="0"/>
        <pt x="233" y="-154" on="0"/>
        <pt x="233" y="-116" on="0"/>
        <pt x="253" y="-116" on="1"/>
        <pt x="256" y="-116" on="0"/>
        <pt x="305" y="-139" on="0"/>
        <pt x="348" y="-139" on="0"/>
        <pt x="375" y="-122" on="0"/>
        <pt x="375" y="-107" on="1"/>
        <pt x="375" y="-72" on="0"/>
        <pt x="317" y="-72" on="1"/>
        <pt x="295" y="-72" on="0"/>
        <pt x="295" y="-54" on="1"/>
        <pt x="295" y="-46" on="0"/>
        <pt x="301" y="-36" on="1"/>
        <pt x="314" y="-9" on="1"/>
        <pt x="195" y="0" on="0"/>
        <pt x="47" y="171" on="0"/>
        <pt x="47" y="443" on="0"/>
        <pt x="211" y="618" on="0"/>
        <pt x="460" y="618" on="0"/>
        <pt x="543" y="570" on="1"/>
        <pt x="558" y="562" on="0"/>
        <pt x="558" y="549" on="1"/>
        <pt x="558" y="463" on="1"/>
        <pt x="558" y="453" on="0"/>
        <pt x="542" y="440" on="0"/>
        <pt x="520" y="440" on="0"/>
        <pt x="504" y="453" on="0"/>
        <pt x="504" y="463" on="1"/>
        <pt x="504" y="537" on="1"/>
        <pt x="430" y="571" on="0"/>
        <pt x="341" y="571" on="1"/>
        <pt x="234" y="571" on="0"/>
        <pt x="101" y="422" on="0"/>
        <pt x="101" y="186" on="0"/>
        <pt x="234" y="37" on="0"/>
        <pt x="463" y="37" on="0"/>
      </contour>
    </TTGlyph>
    <TTGlyph name="D" xMin="19" yMin="0" xMax="610" yMax="608">
      <contour>
        <pt x="156" y="561" on="1"/>
        <pt x="156" y="47" on="1"/>
        <pt x="309" y="47" on="1"/>
        <pt x="425" y="47" on="0"/>
        <pt x="556" y="182" on="0"/>
        <pt x="556" y="423" on="0"/>
        <pt x="422" y="561" on="0"/>
        <pt x="309" y="561" on="1"/>
      </contour>
      <contour>
        <pt x="102" y="561" on="1"/>
        <pt x="42" y="561" on="1"/>
        <pt x="32" y="561" on="0"/>
        <pt x="19" y="574" on="0"/>
        <pt x="19" y="594" on="0"/>
        <pt x="32" y="608" on="0"/>
        <pt x="42" y="608" on="1"/>
        <pt x="309" y="608" on="1"/>
        <pt x="445" y="608" on="0"/>
        <pt x="610" y="443" on="0"/>
        <pt x="610" y="163" on="0"/>
        <pt x="448" y="0" on="0"/>
        <pt x="309" y="0" on="1"/>
        <pt x="128" y="0" on="1"/>
        <pt x="102" y="0" on="0"/>
        <pt x="102" y="23" on="1"/>
      </contour>
    </TTGlyph>
    <TTGlyph name="E" xMin="20" yMin="0" xMax="538" yMax="608">
      <contour>
        <pt x="43" y="608" on="1"/>
        <pt x="512" y="608" on="1"/>
        <pt x="538" y="608" on="0"/>
        <pt x="538" y="584" on="1"/>
        <pt x="538" y="502" on="1"/>
        <pt x="538" y="492" on="0"/>
        <pt x="522" y="479" on="0"/>
        <pt x="500" y="479" on="0"/>
        <pt x="484" y="492" on="0"/>
        <pt x="484" y="502" on="1"/>
        <pt x="484" y="561" on="1"/>
        <pt x="156" y="561" on="1"/>
        <pt x="156" y="329" on="1"/>
        <pt x="438" y="329" on="1"/>
        <pt x="438" y="366" on="1"/>
        <pt x="438" y="376" on="0"/>
        <pt x="453" y="389" on="0"/>
        <pt x="475" y="389" on="0"/>
        <pt x="490" y="376" on="0"/>
        <pt x="490" y="366" on="1"/>
        <pt x="490" y="244" on="1"/>
        <pt x="490" y="234" on="0"/>
        <pt x="475" y="221" on="0"/>
        <pt x="453" y="221" on="0"/>
        <pt x="438" y="234" on="0"/>
        <pt x="438" y="244" on="1"/>
        <pt x="438" y="282" on="1"/>
        <pt x="156" y="282" on="1"/>
        <pt x="156" y="47" on="1"/>
        <pt x="511" y="47" on="1"/>
        <pt x="523" y="47" on="0"/>
        <pt x="538" y="34" on="0"/>
        <pt x="538" y="14" on="0"/>
        <pt x="522" y="0" on="0"/>
        <pt x="511" y="0" on="1"/>
        <pt x="127" y="0" on="1"/>
        <pt x="102" y="0" on="0"/>
        <pt x="102" y="22" on="1"/>
        <pt x="102" y="561" on="1"/>
        <pt x="43" y="561" on="1"/>
        <pt x="33" y="561" on="0"/>
        <pt x="20" y="574" on="0"/>
        <pt x="20" y="594" on="0"/>
        <pt x="33" y="608" on="0"/>
      </contour>
    </TTGlyph>
    <TTGlyph name="Eacute" xMin="20" yMin="0" xMax="538" yMax="790">
      <contour>
        <pt x="43" y="608" on="1"/>
        <pt x="512" y="608" on="1"/>
        <pt x="538" y="608" on="0"/>
        <pt x="538" y="584" on="1"/>
        <pt x="538" y="502" on="1"/>
        <pt x="538" y="492" on="0"/>
        <pt x="522" y="479" on="0"/>
        <pt x="500" y="479" on="0"/>
        <pt x="484" y="492" on="0"/>
        <pt x="484" y="502" on="1"/>
        <pt x="484" y="561" on="1"/>
        <pt x="156" y="561" on="1"/>
        <pt x="156" y="329" on="1"/>
        <pt x="438" y="329" on="1"/>
        <pt x="438" y="366" on="1"/>
        <pt x="438" y="376" on="0"/>
        <pt x="453" y="389" on="0"/>
        <pt x="475" y="389" on="0"/>
        <pt x="490" y="376" on="0"/>
        <pt x="490" y="366" on="1"/>
        <pt x="490" y="244" on="1"/>
        <pt x="490" y="234" on="0"/>
        <pt x="475" y="221" on="0"/>
        <pt x="453" y="221" on="0"/>
        <pt x="438" y="234" on="0"/>
        <pt x="438" y="244" on="1"/>
        <pt x="438" y="282" on="1"/>
        <pt x="156" y="282" on="1"/>
        <pt x="156" y="47" on="1"/>
        <pt x="511" y="47" on="1"/>
        <pt x="523" y="47" on="0"/>
        <pt x="538" y="34" on="0"/>
        <pt x="538" y="14" on="0"/>
        <pt x="522" y="0" on="0"/>
        <pt x="511" y="0" on="1"/>
        <pt x="127" y="0" on="1"/>
        <pt x="102" y="0" on="0"/>
        <pt x="102" y="22" on="1"/>
        <pt x="102" y="561" on="1"/>
        <pt x="43" y="561" on="1"/>
        <pt x="33" y="561" on="0"/>
        <pt x="20" y="574" on="0"/>
        <pt x="20" y="594" on="0"/>
        <pt x="33" y="608" on="0"/>
      </contour>
      <contour>
        <pt x="327" y="780" on="1"/>
        <pt x="336" y="790" on="0"/>
        <pt x="352" y="790" on="0"/>
        <pt x="368" y="774" on="0"/>
        <pt x="368" y="758" on="0"/>
        <pt x="358" y="749" on="1"/>
        <pt x="296" y="694" on="1"/>
        <pt x="289" y="688" on="0"/>
        <pt x="276" y="688" on="0"/>
        <pt x="266" y="698" on="0"/>
        <pt x="266" y="711" on="0"/>
        <pt x="272" y="718" on="1"/>
      </contour>
    </TTGlyph>
    <TTGlyph name="Ecircumflex" xMin="20" yMin="0" xMax="538" yMax="779">
      <contour>
        <pt x="43" y="608" on="1"/>
        <pt x="512" y="608" on="1"/>
        <pt x="538" y="608" on="0"/>
        <pt x="538" y="584" on="1"/>
        <pt x="538" y="502" on="1"/>
        <pt x="538" y="492" on="0"/>
        <pt x="522" y="479" on="0"/>
        <pt x="500" y="479" on="0"/>
        <pt x="484" y="492" on="0"/>
        <pt x="484" y="502" on="1"/>
        <pt x="484" y="561" on="1"/>
        <pt x="156" y="561" on="1"/>
        <pt x="156" y="329" on="1"/>
        <pt x="438" y="329" on="1"/>
        <pt x="438" y="366" on="1"/>
        <pt x="438" y="376" on="0"/>
        <pt x="453" y="389" on="0"/>
        <pt x="475" y="389" on="0"/>
        <pt x="490" y="376" on="0"/>
        <pt x="490" y="366" on="1"/>
        <pt x="490" y="244" on="1"/>
        <pt x="490" y="234" on="0"/>
        <pt x="475" y="221" on="0"/>
        <pt x="453" y="221" on="0"/>
        <pt x="438" y="234" on="0"/>
        <pt x="438" y="244" on="1"/>
        <pt x="438" y="282" on="1"/>
        <pt x="156" y="282" on="1"/>
        <pt x="156" y="47" on="1"/>
        <pt x="511" y="47" on="1"/>
        <pt x="523" y="47" on="0"/>
        <pt x="538" y="34" on="0"/>
        <pt x="538" y="14" on="0"/>
        <pt x="522" y="0" on="0"/>
        <pt x="511" y="0" on="1"/>
        <pt x="127" y="0" on="1"/>
        <pt x="102" y="0" on="0"/>
        <pt x="102" y="22" on="1"/>
        <pt x="102" y="561" on="1"/>
        <pt x="43" y="561" on="1"/>
        <pt x="33" y="561" on="0"/>
        <pt x="20" y="574" on="0"/>
        <pt x="20" y="594" on="0"/>
        <pt x="33" y="608" on="0"/>
      </contour>
      <contour>
        <pt x="238" y="686" on="1"/>
        <pt x="232" y="692" on="0"/>
        <pt x="232" y="704" on="0"/>
        <pt x="237" y="710" on="1"/>
        <pt x="281" y="768" on="1"/>
        <pt x="289" y="779" on="0"/>
        <pt x="317" y="779" on="0"/>
        <pt x="325" y="768" on="1"/>
        <pt x="369" y="710" on="1"/>
        <pt x="374" y="704" on="0"/>
        <pt x="374" y="692" on="0"/>
        <pt x="363" y="682" on="0"/>
        <pt x="357" y="682" on="1"/>
        <pt x="342" y="690" on="1"/>
        <pt x="303" y="731" on="1"/>
        <pt x="264" y="690" on="1"/>
        <pt x="256" y="682" on="0"/>
        <pt x="249" y="682" on="1"/>
      </contour>
    </TTGlyph>
    <TTGlyph name="Edieresis" xMin="20" yMin="0" xMax="538" yMax="760">
      <contour>
        <pt x="43" y="608" on="1"/>
        <pt x="512" y="608" on="1"/>
        <pt x="538" y="608" on="0"/>
        <pt x="538" y="584" on="1"/>
        <pt x="538" y="502" on="1"/>
        <pt x="538" y="492" on="0"/>
        <pt x="522" y="479" on="0"/>
        <pt x="500" y="479" on="0"/>
        <pt x="484" y="492" on="0"/>
        <pt x="484" y="502" on="1"/>
        <pt x="484" y="561" on="1"/>
        <pt x="156" y="561" on="1"/>
        <pt x="156" y="329" on="1"/>
        <pt x="438" y="329" on="1"/>
        <pt x="438" y="366" on="1"/>
        <pt x="438" y="376" on="0"/>
        <pt x="453" y="389" on="0"/>
        <pt x="475" y="389" on="0"/>
        <pt x="490" y="376" on="0"/>
        <pt x="490" y="366" on="1"/>
        <pt x="490" y="244" on="1"/>
        <pt x="490" y="234" on="0"/>
        <pt x="475" y="221" on="0"/>
        <pt x="453" y="221" on="0"/>
        <pt x="438" y="234" on="0"/>
        <pt x="438" y="244" on="1"/>
        <pt x="438" y="282" on="1"/>
        <pt x="156" y="282" on="1"/>
        <pt x="156" y="47" on="1"/>
        <pt x="511" y="47" on="1"/>
        <pt x="523" y="47" on="0"/>
        <pt x="538" y="34" on="0"/>
        <pt x="538" y="14" on="0"/>
        <pt x="522" y="0" on="0"/>
        <pt x="511" y="0" on="1"/>
        <pt x="127" y="0" on="1"/>
        <pt x="102" y="0" on="0"/>
        <pt x="102" y="22" on="1"/>
        <pt x="102" y="561" on="1"/>
        <pt x="43" y="561" on="1"/>
        <pt x="33" y="561" on="0"/>
        <pt x="20" y="574" on="0"/>
        <pt x="20" y="594" on="0"/>
        <pt x="33" y="608" on="0"/>
      </contour>
      <contour>
        <pt x="200" y="729" on="1"/>
        <pt x="200" y="760" on="0"/>
        <pt x="231" y="760" on="1"/>
        <pt x="245" y="760" on="0"/>
        <pt x="262" y="742" on="0"/>
        <pt x="262" y="716" on="0"/>
        <pt x="245" y="699" on="0"/>
        <pt x="216" y="699" on="0"/>
        <pt x="200" y="716" on="0"/>
      </contour>
      <contour>
        <pt x="335" y="729" on="1"/>
        <pt x="335" y="760" on="0"/>
        <pt x="366" y="760" on="1"/>
        <pt x="380" y="760" on="0"/>
        <pt x="397" y="742" on="0"/>
        <pt x="397" y="716" on="0"/>
        <pt x="380" y="699" on="0"/>
        <pt x="351" y="699" on="0"/>
        <pt x="335" y="716" on="0"/>
      </contour>
    </TTGlyph>
    <TTGlyph name="Egrave" xMin="20" yMin="0" xMax="538" yMax="790">
      <contour>
        <pt x="43" y="608" on="1"/>
        <pt x="512" y="608" on="1"/>
        <pt x="538" y="608" on="0"/>
        <pt x="538" y="584" on="1"/>
        <pt x="538" y="502" on="1"/>
        <pt x="538" y="492" on="0"/>
        <pt x="522" y="479" on="0"/>
        <pt x="500" y="479" on="0"/>
        <pt x="484" y="492" on="0"/>
        <pt x="484" y="502" on="1"/>
        <pt x="484" y="561" on="1"/>
        <pt x="156" y="561" on="1"/>
        <pt x="156" y="329" on="1"/>
        <pt x="438" y="329" on="1"/>
        <pt x="438" y="366" on="1"/>
        <pt x="438" y="376" on="0"/>
        <pt x="453" y="389" on="0"/>
        <pt x="475" y="389" on="0"/>
        <pt x="490" y="376" on="0"/>
        <pt x="490" y="366" on="1"/>
        <pt x="490" y="244" on="1"/>
        <pt x="490" y="234" on="0"/>
        <pt x="475" y="221" on="0"/>
        <pt x="453" y="221" on="0"/>
        <pt x="438" y="234" on="0"/>
        <pt x="438" y="244" on="1"/>
        <pt x="438" y="282" on="1"/>
        <pt x="156" y="282" on="1"/>
        <pt x="156" y="47" on="1"/>
        <pt x="511" y="47" on="1"/>
        <pt x="523" y="47" on="0"/>
        <pt x="538" y="34" on="0"/>
        <pt x="538" y="14" on="0"/>
        <pt x="522" y="0" on="0"/>
        <pt x="511" y="0" on="1"/>
        <pt x="127" y="0" on="1"/>
        <pt x="102" y="0" on="0"/>
        <pt x="102" y="22" on="1"/>
        <pt x="102" y="561" on="1"/>
        <pt x="43" y="561" on="1"/>
        <pt x="33" y="561" on="0"/>
        <pt x="20" y="574" on="0"/>
        <pt x="20" y="594" on="0"/>
        <pt x="33" y="608" on="0"/>
      </contour>
      <contour>
        <pt x="336" y="718" on="1"/>
        <pt x="342" y="711" on="0"/>
        <pt x="342" y="698" on="0"/>
        <pt x="332" y="688" on="0"/>
        <pt x="319" y="688" on="0"/>
        <pt x="312" y="694" on="1"/>
        <pt x="250" y="749" on="1"/>
        <pt x="240" y="758" on="0"/>
        <pt x="240" y="774" on="0"/>
        <pt x="256" y="790" on="0"/>
        <pt x="272" y="790" on="0"/>
        <pt x="281" y="780" on="1"/>
      </contour>
    </TTGlyph>
    <TTGlyph name="Eth" xMin="19" yMin="0" xMax="610" yMax="608">
      <contour>
        <pt x="102" y="289" on="1"/>
        <pt x="43" y="289" on="1"/>
        <pt x="33" y="289" on="0"/>
        <pt x="20" y="302" on="0"/>
        <pt x="20" y="322" on="0"/>
        <pt x="33" y="336" on="0"/>
        <pt x="43" y="336" on="1"/>
        <pt x="102" y="336" on="1"/>
        <pt x="102" y="561" on="1"/>
        <pt x="42" y="561" on="1"/>
        <pt x="32" y="561" on="0"/>
        <pt x="19" y="574" on="0"/>
        <pt x="19" y="594" on="0"/>
        <pt x="32" y="608" on="0"/>
        <pt x="42" y="608" on="1"/>
        <pt x="309" y="608" on="1"/>
        <pt x="445" y="608" on="0"/>
        <pt x="610" y="443" on="0"/>
        <pt x="610" y="163" on="0"/>
        <pt x="448" y="0" on="0"/>
        <pt x="309" y="0" on="1"/>
        <pt x="128" y="0" on="1"/>
        <pt x="102" y="0" on="0"/>
        <pt x="102" y="23" on="1"/>
      </contour>
      <contour>
        <pt x="156" y="289" on="1"/>
        <pt x="156" y="47" on="1"/>
        <pt x="309" y="47" on="1"/>
        <pt x="425" y="47" on="0"/>
        <pt x="556" y="182" on="0"/>
        <pt x="556" y="423" on="0"/>
        <pt x="422" y="561" on="0"/>
        <pt x="309" y="561" on="1"/>
        <pt x="156" y="561" on="1"/>
        <pt x="156" y="336" on="1"/>
        <pt x="246" y="336" on="1"/>
        <pt x="256" y="336" on="0"/>
        <pt x="269" y="322" on="0"/>
        <pt x="269" y="302" on="0"/>
        <pt x="256" y="289" on="0"/>
        <pt x="246" y="289" on="1"/>
      </contour>
    </TTGlyph>
    <TTGlyph name="Euro" xMin="39" yMin="-10" xMax="373" yMax="618">
      <contour>
        <pt x="350" y="-10" on="1"/>
        <pt x="242" y="-10" on="0"/>
        <pt x="114" y="108" on="0"/>
        <pt x="95" y="211" on="1"/>
        <pt x="62" y="211" on="1"/>
        <pt x="52" y="211" on="0"/>
        <pt x="39" y="224" on="0"/>
        <pt x="39" y="244" on="0"/>
        <pt x="52" y="258" on="0"/>
        <pt x="62" y="258" on="1"/>
        <pt x="89" y="258" on="1"/>
        <pt x="87" y="282" on="0"/>
        <pt x="87" y="323" on="0"/>
        <pt x="89" y="342" on="1"/>
        <pt x="62" y="342" on="1"/>
        <pt x="52" y="342" on="0"/>
        <pt x="39" y="355" on="0"/>
        <pt x="39" y="375" on="0"/>
        <pt x="52" y="389" on="0"/>
        <pt x="62" y="389" on="1"/>
        <pt x="96" y="389" on="1"/>
        <pt x="115" y="493" on="0"/>
        <pt x="244" y="618" on="0"/>
        <pt x="350" y="618" on="1"/>
        <pt x="360" y="618" on="0"/>
        <pt x="373" y="605" on="0"/>
        <pt x="373" y="585" on="0"/>
        <pt x="360" y="572" on="0"/>
        <pt x="350" y="572" on="1"/>
        <pt x="265" y="572" on="0"/>
        <pt x="165" y="475" on="0"/>
        <pt x="149" y="389" on="1"/>
        <pt x="335" y="389" on="1"/>
        <pt x="345" y="389" on="0"/>
        <pt x="358" y="375" on="0"/>
        <pt x="358" y="355" on="0"/>
        <pt x="345" y="342" on="0"/>
        <pt x="335" y="342" on="1"/>
        <pt x="143" y="342" on="1"/>
        <pt x="141" y="316" on="0"/>
        <pt x="141" y="276" on="0"/>
        <pt x="143" y="258" on="1"/>
        <pt x="335" y="258" on="1"/>
        <pt x="345" y="258" on="0"/>
        <pt x="358" y="244" on="0"/>
        <pt x="358" y="224" on="0"/>
        <pt x="345" y="211" on="0"/>
        <pt x="335" y="211" on="1"/>
        <pt x="150" y="211" on="1"/>
        <pt x="168" y="131" on="0"/>
        <pt x="269" y="36" on="0"/>
        <pt x="350" y="36" on="1"/>
        <pt x="360" y="36" on="0"/>
        <pt x="373" y="23" on="0"/>
        <pt x="373" y="3" on="0"/>
        <pt x="360" y="-10" on="0"/>
      </contour>
    </TTGlyph>
    <TTGlyph name="F" xMin="20" yMin="-10" xMax="511" yMax="608">
      <contour>
        <pt x="102" y="561" on="1"/>
        <pt x="43" y="561" on="1"/>
        <pt x="33" y="561" on="0"/>
        <pt x="20" y="574" on="0"/>
        <pt x="20" y="594" on="0"/>
        <pt x="33" y="608" on="0"/>
        <pt x="43" y="608" on="1"/>
        <pt x="485" y="608" on="1"/>
        <pt x="511" y="608" on="0"/>
        <pt x="511" y="584" on="1"/>
        <pt x="511" y="502" on="1"/>
        <pt x="511" y="492" on="0"/>
        <pt x="495" y="479" on="0"/>
        <pt x="473" y="479" on="0"/>
        <pt x="457" y="492" on="0"/>
        <pt x="457" y="502" on="1"/>
        <pt x="457" y="561" on="1"/>
        <pt x="156" y="561" on="1"/>
        <pt x="156" y="329" on="1"/>
        <pt x="409" y="329" on="1"/>
        <pt x="409" y="366" on="1"/>
        <pt x="409" y="376" on="0"/>
        <pt x="424" y="389" on="0"/>
        <pt x="446" y="389" on="0"/>
        <pt x="461" y="376" on="0"/>
        <pt x="461" y="366" on="1"/>
        <pt x="461" y="244" on="1"/>
        <pt x="461" y="234" on="0"/>
        <pt x="446" y="221" on="0"/>
        <pt x="424" y="221" on="0"/>
        <pt x="409" y="234" on="0"/>
        <pt x="409" y="244" on="1"/>
        <pt x="409" y="282" on="1"/>
        <pt x="156" y="282" on="1"/>
        <pt x="156" y="13" on="1"/>
        <pt x="156" y="3" on="0"/>
        <pt x="140" y="-10" on="0"/>
        <pt x="118" y="-10" on="0"/>
        <pt x="102" y="3" on="0"/>
        <pt x="102" y="13" on="1"/>
      </contour>
    </TTGlyph>
    <TTGlyph name="G" xMin="46" yMin="-10" xMax="570" yMax="618">
      <contour>
        <pt x="516" y="13" on="1"/>
        <pt x="516" y="53" on="1"/>
        <pt x="439" y="-10" on="0"/>
        <pt x="338" y="-10" on="1"/>
        <pt x="208" y="-10" on="0"/>
        <pt x="46" y="171" on="0"/>
        <pt x="46" y="446" on="0"/>
        <pt x="213" y="618" on="0"/>
        <pt x="455" y="618" on="0"/>
        <pt x="542" y="569" on="1"/>
        <pt x="558" y="561" on="0"/>
        <pt x="558" y="548" on="1"/>
        <pt x="558" y="462" on="1"/>
        <pt x="558" y="452" on="0"/>
        <pt x="542" y="439" on="0"/>
        <pt x="520" y="439" on="0"/>
        <pt x="504" y="452" on="0"/>
        <pt x="504" y="462" on="1"/>
        <pt x="504" y="535" on="1"/>
        <pt x="429" y="571" on="0"/>
        <pt x="341" y="571" on="1"/>
        <pt x="233" y="571" on="0"/>
        <pt x="100" y="424" on="0"/>
        <pt x="100" y="188" on="0"/>
        <pt x="234" y="37" on="0"/>
        <pt x="440" y="37" on="0"/>
        <pt x="516" y="102" on="1"/>
        <pt x="516" y="252" on="1"/>
        <pt x="366" y="252" on="1"/>
        <pt x="356" y="252" on="0"/>
        <pt x="343" y="265" on="0"/>
        <pt x="343" y="285" on="0"/>
        <pt x="356" y="299" on="0"/>
        <pt x="366" y="299" on="1"/>
        <pt x="544" y="299" on="1"/>
        <pt x="570" y="299" on="0"/>
        <pt x="570" y="276" on="1"/>
        <pt x="570" y="13" on="1"/>
        <pt x="570" y="3" on="0"/>
        <pt x="554" y="-10" on="0"/>
        <pt x="532" y="-10" on="0"/>
        <pt x="516" y="3" on="0"/>
      </contour>
    </TTGlyph>
    <TTGlyph name="H" xMin="21" yMin="-10" xMax="660" yMax="608">
      <contour>
        <pt x="600" y="47" on="1"/>
        <pt x="637" y="47" on="1"/>
        <pt x="647" y="47" on="0"/>
        <pt x="660" y="33" on="0"/>
        <pt x="660" y="13" on="0"/>
        <pt x="647" y="0" on="0"/>
        <pt x="637" y="0" on="1"/>
        <pt x="600" y="0" on="1"/>
        <pt x="556" y="0" on="0"/>
        <pt x="523" y="38" on="0"/>
        <pt x="523" y="62" on="1"/>
        <pt x="523" y="282" on="1"/>
        <pt x="156" y="282" on="1"/>
        <pt x="156" y="13" on="1"/>
        <pt x="156" y="3" on="0"/>
        <pt x="140" y="-10" on="0"/>
        <pt x="118" y="-10" on="0"/>
        <pt x="102" y="3" on="0"/>
        <pt x="102" y="13" on="1"/>
        <pt x="102" y="561" on="1"/>
        <pt x="44" y="561" on="1"/>
        <pt x="34" y="561" on="0"/>
        <pt x="21" y="574" on="0"/>
        <pt x="21" y="594" on="0"/>
        <pt x="34" y="608" on="0"/>
        <pt x="44" y="608" on="1"/>
        <pt x="130" y="608" on="1"/>
        <pt x="140" y="608" on="0"/>
        <pt x="156" y="594" on="0"/>
        <pt x="156" y="584" on="1"/>
        <pt x="156" y="329" on="1"/>
        <pt x="523" y="329" on="1"/>
        <pt x="523" y="561" on="1"/>
        <pt x="464" y="561" on="1"/>
        <pt x="454" y="561" on="0"/>
        <pt x="441" y="574" on="0"/>
        <pt x="441" y="594" on="0"/>
        <pt x="454" y="608" on="0"/>
        <pt x="464" y="608" on="1"/>
        <pt x="551" y="608" on="1"/>
        <pt x="561" y="608" on="0"/>
        <pt x="577" y="594" on="0"/>
        <pt x="577" y="584" on="1"/>
        <pt x="577" y="62" on="1"/>
        <pt x="577" y="47" on="0"/>
      </contour>
    </TTGlyph>
    <TTGlyph name="I" xMin="30" yMin="0" xMax="248" yMax="608">
      <contour>
        <pt x="112" y="47" on="1"/>
        <pt x="112" y="561" on="1"/>
        <pt x="53" y="561" on="1"/>
        <pt x="43" y="561" on="0"/>
        <pt x="30" y="574" on="0"/>
        <pt x="30" y="594" on="0"/>
        <pt x="43" y="608" on="0"/>
        <pt x="53" y="608" on="1"/>
        <pt x="225" y="608" on="1"/>
        <pt x="235" y="608" on="0"/>
        <pt x="248" y="594" on="0"/>
        <pt x="248" y="574" on="0"/>
        <pt x="235" y="561" on="0"/>
        <pt x="225" y="561" on="1"/>
        <pt x="166" y="561" on="1"/>
        <pt x="166" y="47" on="1"/>
        <pt x="225" y="47" on="1"/>
        <pt x="235" y="47" on="0"/>
        <pt x="248" y="34" on="0"/>
        <pt x="248" y="14" on="0"/>
        <pt x="235" y="0" on="0"/>
        <pt x="225" y="0" on="1"/>
        <pt x="53" y="0" on="1"/>
        <pt x="43" y="0" on="0"/>
        <pt x="30" y="14" on="0"/>
        <pt x="30" y="34" on="0"/>
        <pt x="43" y="47" on="0"/>
        <pt x="53" y="47" on="1"/>
      </contour>
    </TTGlyph>
    <TTGlyph name="Iacute" xMin="30" yMin="0" xMax="248" yMax="790">
      <contour>
        <pt x="112" y="47" on="1"/>
        <pt x="112" y="561" on="1"/>
        <pt x="53" y="561" on="1"/>
        <pt x="43" y="561" on="0"/>
        <pt x="30" y="574" on="0"/>
        <pt x="30" y="594" on="0"/>
        <pt x="43" y="608" on="0"/>
        <pt x="53" y="608" on="1"/>
        <pt x="225" y="608" on="1"/>
        <pt x="235" y="608" on="0"/>
        <pt x="248" y="594" on="0"/>
        <pt x="248" y="574" on="0"/>
        <pt x="235" y="561" on="0"/>
        <pt x="225" y="561" on="1"/>
        <pt x="166" y="561" on="1"/>
        <pt x="166" y="47" on="1"/>
        <pt x="225" y="47" on="1"/>
        <pt x="235" y="47" on="0"/>
        <pt x="248" y="34" on="0"/>
        <pt x="248" y="14" on="0"/>
        <pt x="235" y="0" on="0"/>
        <pt x="225" y="0" on="1"/>
        <pt x="53" y="0" on="1"/>
        <pt x="43" y="0" on="0"/>
        <pt x="30" y="14" on="0"/>
        <pt x="30" y="34" on="0"/>
        <pt x="43" y="47" on="0"/>
        <pt x="53" y="47" on="1"/>
      </contour>
      <contour>
        <pt x="151" y="780" on="1"/>
        <pt x="160" y="790" on="0"/>
        <pt x="176" y="790" on="0"/>
        <pt x="192" y="774" on="0"/>
        <pt x="192" y="758" on="0"/>
        <pt x="182" y="749" on="1"/>
        <pt x="120" y="694" on="1"/>
        <pt x="113" y="688" on="0"/>
        <pt x="100" y="688" on="0"/>
        <pt x="90" y="698" on="0"/>
        <pt x="90" y="711" on="0"/>
        <pt x="96" y="718" on="1"/>
      </contour>
    </TTGlyph>
    <TTGlyph name="Icircumflex" xMin="30" yMin="0" xMax="248" yMax="779">
      <contour>
        <pt x="112" y="47" on="1"/>
        <pt x="112" y="561" on="1"/>
        <pt x="53" y="561" on="1"/>
        <pt x="43" y="561" on="0"/>
        <pt x="30" y="574" on="0"/>
        <pt x="30" y="594" on="0"/>
        <pt x="43" y="608" on="0"/>
        <pt x="53" y="608" on="1"/>
        <pt x="225" y="608" on="1"/>
        <pt x="235" y="608" on="0"/>
        <pt x="248" y="594" on="0"/>
        <pt x="248" y="574" on="0"/>
        <pt x="235" y="561" on="0"/>
        <pt x="225" y="561" on="1"/>
        <pt x="166" y="561" on="1"/>
        <pt x="166" y="47" on="1"/>
        <pt x="225" y="47" on="1"/>
        <pt x="235" y="47" on="0"/>
        <pt x="248" y="34" on="0"/>
        <pt x="248" y="14" on="0"/>
        <pt x="235" y="0" on="0"/>
        <pt x="225" y="0" on="1"/>
        <pt x="53" y="0" on="1"/>
        <pt x="43" y="0" on="0"/>
        <pt x="30" y="14" on="0"/>
        <pt x="30" y="34" on="0"/>
        <pt x="43" y="47" on="0"/>
        <pt x="53" y="47" on="1"/>
      </contour>
      <contour>
        <pt x="76" y="686" on="1"/>
        <pt x="70" y="692" on="0"/>
        <pt x="70" y="704" on="0"/>
        <pt x="75" y="710" on="1"/>
        <pt x="119" y="768" on="1"/>
        <pt x="127" y="779" on="0"/>
        <pt x="155" y="779" on="0"/>
        <pt x="163" y="768" on="1"/>
        <pt x="207" y="710" on="1"/>
        <pt x="212" y="704" on="0"/>
        <pt x="212" y="692" on="0"/>
        <pt x="201" y="682" on="0"/>
        <pt x="195" y="682" on="1"/>
        <pt x="180" y="690" on="1"/>
        <pt x="141" y="731" on="1"/>
        <pt x="102" y="690" on="1"/>
        <pt x="94" y="682" on="0"/>
        <pt x="87" y="682" on="1"/>
      </contour>
    </TTGlyph>
    <TTGlyph name="Idieresis" xMin="30" yMin="0" xMax="248" yMax="760">
      <contour>
        <pt x="112" y="47" on="1"/>
        <pt x="112" y="561" on="1"/>
        <pt x="53" y="561" on="1"/>
        <pt x="43" y="561" on="0"/>
        <pt x="30" y="574" on="0"/>
        <pt x="30" y="594" on="0"/>
        <pt x="43" y="608" on="0"/>
        <pt x="53" y="608" on="1"/>
        <pt x="225" y="608" on="1"/>
        <pt x="235" y="608" on="0"/>
        <pt x="248" y="594" on="0"/>
        <pt x="248" y="574" on="0"/>
        <pt x="235" y="561" on="0"/>
        <pt x="225" y="561" on="1"/>
        <pt x="166" y="561" on="1"/>
        <pt x="166" y="47" on="1"/>
        <pt x="225" y="47" on="1"/>
        <pt x="235" y="47" on="0"/>
        <pt x="248" y="34" on="0"/>
        <pt x="248" y="14" on="0"/>
        <pt x="235" y="0" on="0"/>
        <pt x="225" y="0" on="1"/>
        <pt x="53" y="0" on="1"/>
        <pt x="43" y="0" on="0"/>
        <pt x="30" y="14" on="0"/>
        <pt x="30" y="34" on="0"/>
        <pt x="43" y="47" on="0"/>
        <pt x="53" y="47" on="1"/>
      </contour>
      <contour>
        <pt x="43" y="729" on="1"/>
        <pt x="43" y="760" on="0"/>
        <pt x="74" y="760" on="1"/>
        <pt x="88" y="760" on="0"/>
        <pt x="105" y="742" on="0"/>
        <pt x="105" y="716" on="0"/>
        <pt x="88" y="699" on="0"/>
        <pt x="59" y="699" on="0"/>
        <pt x="43" y="716" on="0"/>
      </contour>
      <contour>
        <pt x="178" y="729" on="1"/>
        <pt x="178" y="760" on="0"/>
        <pt x="209" y="760" on="1"/>
        <pt x="223" y="760" on="0"/>
        <pt x="240" y="742" on="0"/>
        <pt x="240" y="716" on="0"/>
        <pt x="223" y="699" on="0"/>
        <pt x="194" y="699" on="0"/>
        <pt x="178" y="716" on="0"/>
      </contour>
    </TTGlyph>
    <TTGlyph name="Igrave" xMin="30" yMin="0" xMax="248" yMax="790">
      <contour>
        <pt x="112" y="47" on="1"/>
        <pt x="112" y="561" on="1"/>
        <pt x="53" y="561" on="1"/>
        <pt x="43" y="561" on="0"/>
        <pt x="30" y="574" on="0"/>
        <pt x="30" y="594" on="0"/>
        <pt x="43" y="608" on="0"/>
        <pt x="53" y="608" on="1"/>
        <pt x="225" y="608" on="1"/>
        <pt x="235" y="608" on="0"/>
        <pt x="248" y="594" on="0"/>
        <pt x="248" y="574" on="0"/>
        <pt x="235" y="561" on="0"/>
        <pt x="225" y="561" on="1"/>
        <pt x="166" y="561" on="1"/>
        <pt x="166" y="47" on="1"/>
        <pt x="225" y="47" on="1"/>
        <pt x="235" y="47" on="0"/>
        <pt x="248" y="34" on="0"/>
        <pt x="248" y="14" on="0"/>
        <pt x="235" y="0" on="0"/>
        <pt x="225" y="0" on="1"/>
        <pt x="53" y="0" on="1"/>
        <pt x="43" y="0" on="0"/>
        <pt x="30" y="14" on="0"/>
        <pt x="30" y="34" on="0"/>
        <pt x="43" y="47" on="0"/>
        <pt x="53" y="47" on="1"/>
      </contour>
      <contour>
        <pt x="178" y="718" on="1"/>
        <pt x="184" y="711" on="0"/>
        <pt x="184" y="698" on="0"/>
        <pt x="174" y="688" on="0"/>
        <pt x="161" y="688" on="0"/>
        <pt x="154" y="694" on="1"/>
        <pt x="92" y="749" on="1"/>
        <pt x="82" y="758" on="0"/>
        <pt x="82" y="774" on="0"/>
        <pt x="98" y="790" on="0"/>
        <pt x="114" y="790" on="0"/>
        <pt x="123" y="780" on="1"/>
      </contour>
    </TTGlyph>
    <TTGlyph name="J" xMin="-3" yMin="-201" xMax="238" yMax="608">
      <contour>
        <pt x="20" y="-200" on="1"/>
        <pt x="-3" y="-200" on="0"/>
        <pt x="-3" y="-175" on="1"/>
        <pt x="-3" y="-161" on="0"/>
        <pt x="16" y="-155" on="1"/>
        <pt x="66" y="-140" on="0"/>
        <pt x="102" y="-61" on="0"/>
        <pt x="102" y="8" on="1"/>
        <pt x="102" y="561" on="1"/>
        <pt x="43" y="561" on="1"/>
        <pt x="33" y="561" on="0"/>
        <pt x="20" y="574" on="0"/>
        <pt x="20" y="594" on="0"/>
        <pt x="33" y="608" on="0"/>
        <pt x="43" y="608" on="1"/>
        <pt x="215" y="608" on="1"/>
        <pt x="225" y="608" on="0"/>
        <pt x="238" y="594" on="0"/>
        <pt x="238" y="574" on="0"/>
        <pt x="225" y="561" on="0"/>
        <pt x="215" y="561" on="1"/>
        <pt x="156" y="561" on="1"/>
        <pt x="156" y="5" on="1"/>
        <pt x="156" y="-82" on="0"/>
        <pt x="105" y="-170" on="0"/>
        <pt x="45" y="-195" on="1"/>
        <pt x="32" y="-200" on="0"/>
      </contour>
    </TTGlyph>
    <TTGlyph name="K" xMin="20" yMin="-12" xMax="583" yMax="608">
      <contour>
        <pt x="552" y="29" on="1"/>
        <pt x="558" y="22" on="0"/>
        <pt x="558" y="6" on="0"/>
        <pt x="535" y="-11" on="0"/>
        <pt x="517" y="-11" on="0"/>
        <pt x="510" y="-2" on="1"/>
        <pt x="278" y="293" on="1"/>
        <pt x="156" y="151" on="1"/>
        <pt x="156" y="13" on="1"/>
        <pt x="156" y="3" on="0"/>
        <pt x="140" y="-10" on="0"/>
        <pt x="118" y="-10" on="0"/>
        <pt x="102" y="3" on="0"/>
        <pt x="102" y="13" on="1"/>
        <pt x="102" y="561" on="1"/>
        <pt x="43" y="561" on="1"/>
        <pt x="33" y="561" on="0"/>
        <pt x="20" y="574" on="0"/>
        <pt x="20" y="594" on="0"/>
        <pt x="33" y="608" on="0"/>
        <pt x="43" y="608" on="1"/>
        <pt x="130" y="608" on="1"/>
        <pt x="156" y="608" on="0"/>
        <pt x="156" y="584" on="1"/>
        <pt x="156" y="226" on="1"/>
        <pt x="441" y="561" on="1"/>
        <pt x="416" y="561" on="1"/>
        <pt x="406" y="561" on="0"/>
        <pt x="393" y="574" on="0"/>
        <pt x="393" y="594" on="0"/>
        <pt x="406" y="608" on="0"/>
        <pt x="416" y="608" on="1"/>
        <pt x="560" y="608" on="1"/>
        <pt x="570" y="608" on="0"/>
        <pt x="583" y="594" on="0"/>
        <pt x="583" y="574" on="0"/>
        <pt x="570" y="561" on="0"/>
        <pt x="560" y="561" on="1"/>
        <pt x="508" y="561" on="1"/>
        <pt x="313" y="333" on="1"/>
      </contour>
    </TTGlyph>
    <TTGlyph name="L" xMin="20" yMin="0" xMax="531" yMax="608">
      <contour>
        <pt x="531" y="106" on="1"/>
        <pt x="531" y="23" on="1"/>
        <pt x="531" y="0" on="0"/>
        <pt x="508" y="0" on="1"/>
        <pt x="130" y="0" on="1"/>
        <pt x="113" y="0" on="0"/>
        <pt x="102" y="12" on="0"/>
        <pt x="102" y="24" on="1"/>
        <pt x="102" y="561" on="1"/>
        <pt x="43" y="561" on="1"/>
        <pt x="33" y="561" on="0"/>
        <pt x="20" y="574" on="0"/>
        <pt x="20" y="594" on="0"/>
        <pt x="33" y="608" on="0"/>
        <pt x="43" y="608" on="1"/>
        <pt x="215" y="608" on="1"/>
        <pt x="225" y="608" on="0"/>
        <pt x="238" y="594" on="0"/>
        <pt x="238" y="574" on="0"/>
        <pt x="225" y="561" on="0"/>
        <pt x="215" y="561" on="1"/>
        <pt x="156" y="561" on="1"/>
        <pt x="156" y="47" on="1"/>
        <pt x="477" y="47" on="1"/>
        <pt x="477" y="106" on="1"/>
        <pt x="477" y="116" on="0"/>
        <pt x="493" y="129" on="0"/>
        <pt x="515" y="129" on="0"/>
        <pt x="531" y="116" on="0"/>
      </contour>
    </TTGlyph>
    <TTGlyph name="Lslash" xMin="17" yMin="0" xMax="532" yMax="608">
      <contour>
        <pt x="157" y="47" on="1"/>
        <pt x="478" y="47" on="1"/>
        <pt x="478" y="106" on="1"/>
        <pt x="478" y="116" on="0"/>
        <pt x="494" y="129" on="0"/>
        <pt x="516" y="129" on="0"/>
        <pt x="532" y="116" on="0"/>
        <pt x="532" y="106" on="1"/>
        <pt x="532" y="23" on="1"/>
        <pt x="532" y="0" on="0"/>
        <pt x="509" y="0" on="1"/>
        <pt x="131" y="0" on="1"/>
        <pt x="114" y="0" on="0"/>
        <pt x="103" y="12" on="0"/>
        <pt x="103" y="24" on="1"/>
        <pt x="103" y="227" on="1"/>
        <pt x="53" y="198" on="1"/>
        <pt x="46" y="194" on="0"/>
        <pt x="30" y="194" on="0"/>
        <pt x="18" y="214" on="0"/>
        <pt x="18" y="231" on="0"/>
        <pt x="30" y="238" on="1"/>
        <pt x="103" y="280" on="1"/>
        <pt x="103" y="561" on="1"/>
        <pt x="44" y="561" on="1"/>
        <pt x="34" y="561" on="0"/>
        <pt x="21" y="574" on="0"/>
        <pt x="21" y="594" on="0"/>
        <pt x="34" y="608" on="0"/>
        <pt x="44" y="608" on="1"/>
        <pt x="216" y="608" on="1"/>
        <pt x="226" y="608" on="0"/>
        <pt x="239" y="594" on="0"/>
        <pt x="239" y="574" on="0"/>
        <pt x="226" y="561" on="0"/>
        <pt x="216" y="561" on="1"/>
        <pt x="157" y="561" on="1"/>
        <pt x="157" y="311" on="1"/>
        <pt x="233" y="355" on="1"/>
        <pt x="240" y="359" on="0"/>
        <pt x="256" y="359" on="0"/>
        <pt x="263" y="349" on="1"/>
        <pt x="275" y="327" on="0"/>
        <pt x="256" y="315" on="1"/>
        <pt x="157" y="258" on="1"/>
      </contour>
    </TTGlyph>
    <TTGlyph name="M" xMin="19" yMin="-10" xMax="785" yMax="608">
      <contour>
        <pt x="102" y="13" on="1"/>
        <pt x="102" y="561" on="1"/>
        <pt x="42" y="561" on="1"/>
        <pt x="32" y="561" on="0"/>
        <pt x="19" y="574" on="0"/>
        <pt x="19" y="594" on="0"/>
        <pt x="32" y="608" on="0"/>
        <pt x="42" y="608" on="1"/>
        <pt x="125" y="608" on="1"/>
        <pt x="141" y="608" on="0"/>
        <pt x="151" y="596" on="1"/>
        <pt x="402" y="253" on="1"/>
        <pt x="652" y="595" on="1"/>
        <pt x="661" y="608" on="0"/>
        <pt x="677" y="608" on="1"/>
        <pt x="762" y="608" on="1"/>
        <pt x="772" y="608" on="0"/>
        <pt x="785" y="594" on="0"/>
        <pt x="785" y="574" on="0"/>
        <pt x="772" y="561" on="0"/>
        <pt x="762" y="561" on="1"/>
        <pt x="702" y="561" on="1"/>
        <pt x="702" y="62" on="1"/>
        <pt x="702" y="47" on="0"/>
        <pt x="725" y="47" on="1"/>
        <pt x="762" y="47" on="1"/>
        <pt x="772" y="47" on="0"/>
        <pt x="785" y="33" on="0"/>
        <pt x="785" y="13" on="0"/>
        <pt x="772" y="0" on="0"/>
        <pt x="762" y="0" on="1"/>
        <pt x="725" y="0" on="1"/>
        <pt x="648" y="0" on="0"/>
        <pt x="648" y="62" on="1"/>
        <pt x="648" y="503" on="1"/>
        <pt x="424" y="197" on="1"/>
        <pt x="416" y="186" on="0"/>
        <pt x="388" y="186" on="0"/>
        <pt x="380" y="197" on="1"/>
        <pt x="156" y="503" on="1"/>
        <pt x="156" y="13" on="1"/>
        <pt x="156" y="3" on="0"/>
        <pt x="140" y="-10" on="0"/>
        <pt x="118" y="-10" on="0"/>
        <pt x="102" y="3" on="0"/>
      </contour>
    </TTGlyph>
    <TTGlyph name="N" xMin="20" yMin="-10" xMax="678" yMax="608">
      <contour>
        <pt x="156" y="13" on="1"/>
        <pt x="156" y="3" on="0"/>
        <pt x="140" y="-10" on="0"/>
        <pt x="118" y="-10" on="0"/>
        <pt x="102" y="3" on="0"/>
        <pt x="102" y="13" on="1"/>
        <pt x="102" y="561" on="1"/>
        <pt x="47" y="561" on="1"/>
        <pt x="36" y="561" on="0"/>
        <pt x="20" y="575" on="0"/>
        <pt x="20" y="595" on="0"/>
        <pt x="35" y="608" on="0"/>
        <pt x="47" y="608" on="1"/>
        <pt x="125" y="608" on="1"/>
        <pt x="141" y="608" on="0"/>
        <pt x="150" y="598" on="1"/>
        <pt x="542" y="94" on="1"/>
        <pt x="542" y="561" on="1"/>
        <pt x="483" y="561" on="1"/>
        <pt x="473" y="561" on="0"/>
        <pt x="460" y="574" on="0"/>
        <pt x="460" y="594" on="0"/>
        <pt x="473" y="608" on="0"/>
        <pt x="483" y="608" on="1"/>
        <pt x="655" y="608" on="1"/>
        <pt x="665" y="608" on="0"/>
        <pt x="678" y="594" on="0"/>
        <pt x="678" y="574" on="0"/>
        <pt x="665" y="561" on="0"/>
        <pt x="655" y="561" on="1"/>
        <pt x="596" y="561" on="1"/>
        <pt x="596" y="16" on="1"/>
        <pt x="596" y="-10" on="0"/>
        <pt x="570" y="-10" on="1"/>
        <pt x="556" y="-10" on="0"/>
        <pt x="546" y="4" on="1"/>
        <pt x="156" y="506" on="1"/>
      </contour>
    </TTGlyph>
    <TTGlyph name="Ntilde" xMin="20" yMin="-10" xMax="678" yMax="777">
      <contour>
        <pt x="156" y="13" on="1"/>
        <pt x="156" y="3" on="0"/>
        <pt x="140" y="-10" on="0"/>
        <pt x="118" y="-10" on="0"/>
        <pt x="102" y="3" on="0"/>
        <pt x="102" y="13" on="1"/>
        <pt x="102" y="561" on="1"/>
        <pt x="47" y="561" on="1"/>
        <pt x="36" y="561" on="0"/>
        <pt x="20" y="575" on="0"/>
        <pt x="20" y="595" on="0"/>
        <pt x="35" y="608" on="0"/>
        <pt x="47" y="608" on="1"/>
        <pt x="125" y="608" on="1"/>
        <pt x="141" y="608" on="0"/>
        <pt x="150" y="598" on="1"/>
        <pt x="542" y="94" on="1"/>
        <pt x="542" y="561" on="1"/>
        <pt x="483" y="561" on="1"/>
        <pt x="473" y="561" on="0"/>
        <pt x="460" y="574" on="0"/>
        <pt x="460" y="594" on="0"/>
        <pt x="473" y="608" on="0"/>
        <pt x="483" y="608" on="1"/>
        <pt x="655" y="608" on="1"/>
        <pt x="665" y="608" on="0"/>
        <pt x="678" y="594" on="0"/>
        <pt x="678" y="574" on="0"/>
        <pt x="665" y="561" on="0"/>
        <pt x="655" y="561" on="1"/>
        <pt x="596" y="561" on="1"/>
        <pt x="596" y="16" on="1"/>
        <pt x="596" y="-10" on="0"/>
        <pt x="570" y="-10" on="1"/>
        <pt x="556" y="-10" on="0"/>
        <pt x="546" y="4" on="1"/>
        <pt x="156" y="506" on="1"/>
      </contour>
      <contour>
        <pt x="293" y="733" on="1"/>
        <pt x="272" y="733" on="0"/>
        <pt x="272" y="688" on="0"/>
        <pt x="226" y="688" on="0"/>
        <pt x="226" y="740" on="0"/>
        <pt x="262" y="777" on="0"/>
        <pt x="324" y="777" on="0"/>
        <pt x="399" y="733" on="0"/>
        <pt x="411" y="733" on="1"/>
        <pt x="431" y="733" on="0"/>
        <pt x="431" y="777" on="0"/>
        <pt x="477" y="777" on="0"/>
        <pt x="477" y="726" on="0"/>
        <pt x="441" y="690" on="0"/>
        <pt x="380" y="690" on="0"/>
        <pt x="308" y="733" on="0"/>
      </contour>
    </TTGlyph>
    <TTGlyph name="O" xMin="46" yMin="-10" xMax="650" yMax="618">
      <contour>
        <pt x="46" y="168" on="0"/>
        <pt x="46" y="440" on="0"/>
        <pt x="215" y="618" on="0"/>
        <pt x="481" y="618" on="0"/>
        <pt x="650" y="440" on="0"/>
        <pt x="650" y="167" on="0"/>
        <pt x="481" y="-10" on="0"/>
        <pt x="215" y="-10" on="0"/>
      </contour>
      <contour>
        <pt x="100" y="420" on="0"/>
        <pt x="100" y="188" on="0"/>
        <pt x="238" y="37" on="0"/>
        <pt x="458" y="37" on="0"/>
        <pt x="596" y="188" on="0"/>
        <pt x="596" y="420" on="0"/>
        <pt x="458" y="571" on="0"/>
        <pt x="238" y="571" on="0"/>
      </contour>
    </TTGlyph>
    <TTGlyph name="OE" xMin="47" yMin="0" xMax="898" yMax="608">
      <contour>
        <pt x="349" y="608" on="1"/>
        <pt x="872" y="608" on="1"/>
        <pt x="898" y="608" on="0"/>
        <pt x="898" y="584" on="1"/>
        <pt x="898" y="502" on="1"/>
        <pt x="898" y="492" on="0"/>
        <pt x="882" y="479" on="0"/>
        <pt x="860" y="479" on="0"/>
        <pt x="844" y="492" on="0"/>
        <pt x="844" y="502" on="1"/>
        <pt x="844" y="561" on="1"/>
        <pt x="516" y="561" on="1"/>
        <pt x="516" y="329" on="1"/>
        <pt x="796" y="329" on="1"/>
        <pt x="796" y="366" on="1"/>
        <pt x="796" y="376" on="0"/>
        <pt x="811" y="389" on="0"/>
        <pt x="833" y="389" on="0"/>
        <pt x="848" y="376" on="0"/>
        <pt x="848" y="366" on="1"/>
        <pt x="848" y="244" on="1"/>
        <pt x="848" y="234" on="0"/>
        <pt x="833" y="221" on="0"/>
        <pt x="811" y="221" on="0"/>
        <pt x="796" y="234" on="0"/>
        <pt x="796" y="244" on="1"/>
        <pt x="796" y="282" on="1"/>
        <pt x="516" y="282" on="1"/>
        <pt x="516" y="47" on="1"/>
        <pt x="871" y="47" on="1"/>
        <pt x="883" y="47" on="0"/>
        <pt x="898" y="34" on="0"/>
        <pt x="898" y="14" on="0"/>
        <pt x="882" y="0" on="0"/>
        <pt x="871" y="0" on="1"/>
        <pt x="349" y="0" on="1"/>
        <pt x="209" y="0" on="0"/>
        <pt x="47" y="163" on="0"/>
        <pt x="47" y="443" on="0"/>
        <pt x="212" y="608" on="0"/>
      </contour>
      <contour>
        <pt x="462" y="47" on="1"/>
        <pt x="462" y="561" on="1"/>
        <pt x="349" y="561" on="1"/>
        <pt x="235" y="561" on="0"/>
        <pt x="102" y="423" on="0"/>
        <pt x="102" y="182" on="0"/>
        <pt x="232" y="47" on="0"/>
        <pt x="349" y="47" on="1"/>
      </contour>
    </TTGlyph>
    <TTGlyph name="Oacute" xMin="46" yMin="-10" xMax="650" yMax="790">
      <contour>
        <pt x="46" y="168" on="0"/>
        <pt x="46" y="440" on="0"/>
        <pt x="215" y="618" on="0"/>
        <pt x="481" y="618" on="0"/>
        <pt x="650" y="440" on="0"/>
        <pt x="650" y="167" on="0"/>
        <pt x="481" y="-10" on="0"/>
        <pt x="215" y="-10" on="0"/>
      </contour>
      <contour>
        <pt x="100" y="420" on="0"/>
        <pt x="100" y="188" on="0"/>
        <pt x="238" y="37" on="0"/>
        <pt x="458" y="37" on="0"/>
        <pt x="596" y="188" on="0"/>
        <pt x="596" y="420" on="0"/>
        <pt x="458" y="571" on="0"/>
        <pt x="238" y="571" on="0"/>
      </contour>
      <contour>
        <pt x="366" y="780" on="1"/>
        <pt x="375" y="790" on="0"/>
        <pt x="391" y="790" on="0"/>
        <pt x="407" y="774" on="0"/>
        <pt x="407" y="758" on="0"/>
        <pt x="397" y="749" on="1"/>
        <pt x="335" y="694" on="1"/>
        <pt x="328" y="688" on="0"/>
        <pt x="315" y="688" on="0"/>
        <pt x="305" y="698" on="0"/>
        <pt x="305" y="711" on="0"/>
        <pt x="311" y="718" on="1"/>
      </contour>
    </TTGlyph>
    <TTGlyph name="Ocircumflex" xMin="46" yMin="-10" xMax="650" yMax="779">
      <contour>
        <pt x="46" y="168" on="0"/>
        <pt x="46" y="440" on="0"/>
        <pt x="215" y="618" on="0"/>
        <pt x="481" y="618" on="0"/>
        <pt x="650" y="440" on="0"/>
        <pt x="650" y="167" on="0"/>
        <pt x="481" y="-10" on="0"/>
        <pt x="215" y="-10" on="0"/>
      </contour>
      <contour>
        <pt x="100" y="420" on="0"/>
        <pt x="100" y="188" on="0"/>
        <pt x="238" y="37" on="0"/>
        <pt x="458" y="37" on="0"/>
        <pt x="596" y="188" on="0"/>
        <pt x="596" y="420" on="0"/>
        <pt x="458" y="571" on="0"/>
        <pt x="238" y="571" on="0"/>
      </contour>
      <contour>
        <pt x="292" y="686" on="1"/>
        <pt x="286" y="692" on="0"/>
        <pt x="286" y="704" on="0"/>
        <pt x="291" y="710" on="1"/>
        <pt x="335" y="768" on="1"/>
        <pt x="343" y="779" on="0"/>
        <pt x="371" y="779" on="0"/>
        <pt x="379" y="768" on="1"/>
        <pt x="423" y="710" on="1"/>
        <pt x="428" y="704" on="0"/>
        <pt x="428" y="692" on="0"/>
        <pt x="417" y="682" on="0"/>
        <pt x="411" y="682" on="1"/>
        <pt x="396" y="690" on="1"/>
        <pt x="357" y="731" on="1"/>
        <pt x="318" y="690" on="1"/>
        <pt x="310" y="682" on="0"/>
        <pt x="303" y="682" on="1"/>
      </contour>
    </TTGlyph>
    <TTGlyph name="Odieresis" xMin="46" yMin="-10" xMax="650" yMax="760">
      <contour>
        <pt x="46" y="168" on="0"/>
        <pt x="46" y="440" on="0"/>
        <pt x="215" y="618" on="0"/>
        <pt x="481" y="618" on="0"/>
        <pt x="650" y="440" on="0"/>
        <pt x="650" y="167" on="0"/>
        <pt x="481" y="-10" on="0"/>
        <pt x="215" y="-10" on="0"/>
      </contour>
      <contour>
        <pt x="100" y="420" on="0"/>
        <pt x="100" y="188" on="0"/>
        <pt x="238" y="37" on="0"/>
        <pt x="458" y="37" on="0"/>
        <pt x="596" y="188" on="0"/>
        <pt x="596" y="420" on="0"/>
        <pt x="458" y="571" on="0"/>
        <pt x="238" y="571" on="0"/>
      </contour>
      <contour>
        <pt x="258" y="729" on="1"/>
        <pt x="258" y="760" on="0"/>
        <pt x="289" y="760" on="1"/>
        <pt x="303" y="760" on="0"/>
        <pt x="320" y="742" on="0"/>
        <pt x="320" y="716" on="0"/>
        <pt x="303" y="699" on="0"/>
        <pt x="274" y="699" on="0"/>
        <pt x="258" y="716" on="0"/>
      </contour>
      <contour>
        <pt x="393" y="729" on="1"/>
        <pt x="393" y="760" on="0"/>
        <pt x="424" y="760" on="1"/>
        <pt x="438" y="760" on="0"/>
        <pt x="455" y="742" on="0"/>
        <pt x="455" y="716" on="0"/>
        <pt x="438" y="699" on="0"/>
        <pt x="409" y="699" on="0"/>
        <pt x="393" y="716" on="0"/>
      </contour>
    </TTGlyph>
    <TTGlyph name="Ograve" xMin="46" yMin="-10" xMax="650" yMax="790">
      <contour>
        <pt x="46" y="168" on="0"/>
        <pt x="46" y="440" on="0"/>
        <pt x="215" y="618" on="0"/>
        <pt x="481" y="618" on="0"/>
        <pt x="650" y="440" on="0"/>
        <pt x="650" y="167" on="0"/>
        <pt x="481" y="-10" on="0"/>
        <pt x="215" y="-10" on="0"/>
      </contour>
      <contour>
        <pt x="100" y="420" on="0"/>
        <pt x="100" y="188" on="0"/>
        <pt x="238" y="37" on="0"/>
        <pt x="458" y="37" on="0"/>
        <pt x="596" y="188" on="0"/>
        <pt x="596" y="420" on="0"/>
        <pt x="458" y="571" on="0"/>
        <pt x="238" y="571" on="0"/>
      </contour>
      <contour>
        <pt x="382" y="718" on="1"/>
        <pt x="388" y="711" on="0"/>
        <pt x="388" y="698" on="0"/>
        <pt x="378" y="688" on="0"/>
        <pt x="365" y="688" on="0"/>
        <pt x="358" y="694" on="1"/>
        <pt x="296" y="749" on="1"/>
        <pt x="286" y="758" on="0"/>
        <pt x="286" y="774" on="0"/>
        <pt x="302" y="790" on="0"/>
        <pt x="318" y="790" on="0"/>
        <pt x="327" y="780" on="1"/>
      </contour>
    </TTGlyph>
    <TTGlyph name="Oslash" xMin="46" yMin="-11" xMax="650" yMax="619">
      <contour>
        <pt x="46" y="304" on="1"/>
        <pt x="46" y="440" on="0"/>
        <pt x="215" y="618" on="0"/>
        <pt x="348" y="618" on="1"/>
        <pt x="436" y="618" on="0"/>
        <pt x="506" y="576" on="1"/>
        <pt x="528" y="607" on="1"/>
        <pt x="535" y="619" on="0"/>
        <pt x="553" y="619" on="0"/>
        <pt x="577" y="605" on="0"/>
        <pt x="577" y="588" on="0"/>
        <pt x="572" y="582" on="1"/>
        <pt x="547" y="546" on="1"/>
        <pt x="650" y="457" on="0"/>
        <pt x="650" y="167" on="0"/>
        <pt x="481" y="-10" on="0"/>
        <pt x="348" y="-10" on="1"/>
        <pt x="261" y="-10" on="0"/>
        <pt x="190" y="31" on="1"/>
        <pt x="169" y="1" on="1"/>
        <pt x="162" y="-11" on="0"/>
        <pt x="144" y="-11" on="0"/>
        <pt x="120" y="3" on="0"/>
        <pt x="120" y="20" on="0"/>
        <pt x="125" y="26" on="1"/>
        <pt x="149" y="61" on="1"/>
        <pt x="46" y="150" on="0"/>
      </contour>
      <contour>
        <pt x="238" y="571" on="0"/>
        <pt x="100" y="420" on="0"/>
        <pt x="100" y="179" on="0"/>
        <pt x="178" y="103" on="1"/>
        <pt x="478" y="535" on="1"/>
        <pt x="420" y="571" on="0"/>
        <pt x="348" y="571" on="1"/>
      </contour>
      <contour>
        <pt x="458" y="37" on="0"/>
        <pt x="596" y="188" on="0"/>
        <pt x="596" y="428" on="0"/>
        <pt x="518" y="504" on="1"/>
        <pt x="218" y="72" on="1"/>
        <pt x="274" y="37" on="0"/>
        <pt x="348" y="37" on="1"/>
      </contour>
    </TTGlyph>
    <TTGlyph name="Otilde" xMin="46" yMin="-10" xMax="650" yMax="777">
      <contour>
        <pt x="46" y="168" on="0"/>
        <pt x="46" y="440" on="0"/>
        <pt x="215" y="618" on="0"/>
        <pt x="481" y="618" on="0"/>
        <pt x="650" y="440" on="0"/>
        <pt x="650" y="167" on="0"/>
        <pt x="481" y="-10" on="0"/>
        <pt x="215" y="-10" on="0"/>
      </contour>
      <contour>
        <pt x="100" y="420" on="0"/>
        <pt x="100" y="188" on="0"/>
        <pt x="238" y="37" on="0"/>
        <pt x="458" y="37" on="0"/>
        <pt x="596" y="188" on="0"/>
        <pt x="596" y="420" on="0"/>
        <pt x="458" y="571" on="0"/>
        <pt x="238" y="571" on="0"/>
      </contour>
      <contour>
        <pt x="289" y="733" on="1"/>
        <pt x="268" y="733" on="0"/>
        <pt x="268" y="688" on="0"/>
        <pt x="222" y="688" on="0"/>
        <pt x="222" y="740" on="0"/>
        <pt x="258" y="777" on="0"/>
        <pt x="320" y="777" on="0"/>
        <pt x="395" y="733" on="0"/>
        <pt x="407" y="733" on="1"/>
        <pt x="427" y="733" on="0"/>
        <pt x="427" y="777" on="0"/>
        <pt x="473" y="777" on="0"/>
        <pt x="473" y="726" on="0"/>
        <pt x="437" y="690" on="0"/>
        <pt x="376" y="690" on="0"/>
        <pt x="304" y="733" on="0"/>
      </contour>
    </TTGlyph>
    <TTGlyph name="P" xMin="20" yMin="-10" xMax="575" yMax="608">
      <contour>
        <pt x="102" y="13" on="1"/>
        <pt x="102" y="561" on="1"/>
        <pt x="43" y="561" on="1"/>
        <pt x="33" y="561" on="0"/>
        <pt x="20" y="574" on="0"/>
        <pt x="20" y="594" on="0"/>
        <pt x="33" y="608" on="0"/>
        <pt x="43" y="608" on="1"/>
        <pt x="357" y="608" on="1"/>
        <pt x="575" y="608" on="0"/>
        <pt x="575" y="215" on="0"/>
        <pt x="357" y="215" on="1"/>
        <pt x="156" y="215" on="1"/>
        <pt x="156" y="13" on="1"/>
        <pt x="156" y="3" on="0"/>
        <pt x="140" y="-10" on="0"/>
        <pt x="118" y="-10" on="0"/>
        <pt x="102" y="3" on="0"/>
      </contour>
      <contour>
        <pt x="156" y="561" on="1"/>
        <pt x="156" y="261" on="1"/>
        <pt x="357" y="261" on="1"/>
        <pt x="521" y="261" on="0"/>
        <pt x="521" y="561" on="0"/>
        <pt x="357" y="561" on="1"/>
      </contour>
    </TTGlyph>
    <TTGlyph name="Q" xMin="46" yMin="-107" xMax="650" yMax="618">
      <contour>
        <pt x="329" y="185" on="1"/>
        <pt x="324" y="191" on="0"/>
        <pt x="324" y="207" on="0"/>
        <pt x="345" y="224" on="0"/>
        <pt x="362" y="224" on="0"/>
        <pt x="370" y="215" on="1"/>
        <pt x="490" y="79" on="1"/>
        <pt x="538" y="113" on="0"/>
        <pt x="596" y="233" on="0"/>
        <pt x="596" y="304" on="1"/>
        <pt x="596" y="420" on="0"/>
        <pt x="458" y="571" on="0"/>
        <pt x="238" y="571" on="0"/>
        <pt x="100" y="420" on="0"/>
        <pt x="100" y="188" on="0"/>
        <pt x="238" y="37" on="0"/>
        <pt x="348" y="37" on="1"/>
        <pt x="404" y="37" on="0"/>
        <pt x="443" y="53" on="1"/>
      </contour>
      <contour>
        <pt x="348" y="-10" on="1"/>
        <pt x="215" y="-10" on="0"/>
        <pt x="46" y="167" on="0"/>
        <pt x="46" y="440" on="0"/>
        <pt x="215" y="618" on="0"/>
        <pt x="481" y="618" on="0"/>
        <pt x="650" y="440" on="0"/>
        <pt x="650" y="304" on="1"/>
        <pt x="650" y="220" on="0"/>
        <pt x="582" y="82" on="0"/>
        <pt x="522" y="41" on="1"/>
        <pt x="621" y="-67" on="1"/>
        <pt x="626" y="-73" on="0"/>
        <pt x="626" y="-89" on="0"/>
        <pt x="605" y="-106" on="0"/>
        <pt x="588" y="-106" on="0"/>
        <pt x="580" y="-97" on="1"/>
        <pt x="476" y="16" on="1"/>
        <pt x="416" y="-10" on="0"/>
      </contour>
    </TTGlyph>
    <TTGlyph name="R" xMin="19" yMin="-12" xMax="588" yMax="608">
      <contour>
        <pt x="156" y="561" on="1"/>
        <pt x="156" y="279" on="1"/>
        <pt x="356" y="279" on="1"/>
        <pt x="521" y="279" on="0"/>
        <pt x="521" y="421" on="1"/>
        <pt x="521" y="496" on="0"/>
        <pt x="438" y="561" on="0"/>
        <pt x="356" y="561" on="1"/>
      </contour>
      <contour>
        <pt x="156" y="233" on="1"/>
        <pt x="156" y="13" on="1"/>
        <pt x="156" y="3" on="0"/>
        <pt x="140" y="-10" on="0"/>
        <pt x="118" y="-10" on="0"/>
        <pt x="102" y="3" on="0"/>
        <pt x="102" y="13" on="1"/>
        <pt x="102" y="561" on="1"/>
        <pt x="42" y="561" on="1"/>
        <pt x="32" y="561" on="0"/>
        <pt x="19" y="574" on="0"/>
        <pt x="19" y="594" on="0"/>
        <pt x="32" y="608" on="0"/>
        <pt x="42" y="608" on="1"/>
        <pt x="356" y="608" on="1"/>
        <pt x="575" y="608" on="0"/>
        <pt x="575" y="421" on="1"/>
        <pt x="575" y="286" on="0"/>
        <pt x="456" y="247" on="1"/>
        <pt x="585" y="24" on="1"/>
        <pt x="587" y="20" on="0"/>
        <pt x="587" y="15" on="1"/>
        <pt x="587" y="1" on="0"/>
        <pt x="564" y="-11" on="0"/>
        <pt x="546" y="-11" on="0"/>
        <pt x="539" y="0" on="1"/>
        <pt x="402" y="235" on="1"/>
        <pt x="376" y="233" on="0"/>
        <pt x="356" y="233" on="1"/>
      </contour>
    </TTGlyph>
    <TTGlyph name="S" xMin="48" yMin="-10" xMax="533" yMax="618">
      <contour>
        <pt x="102" y="138" on="1"/>
        <pt x="102" y="69" on="1"/>
        <pt x="169" y="37" on="0"/>
        <pt x="375" y="37" on="0"/>
        <pt x="479" y="102" on="0"/>
        <pt x="479" y="221" on="0"/>
        <pt x="381" y="279" on="0"/>
        <pt x="167" y="320" on="0"/>
        <pt x="60" y="388" on="0"/>
        <pt x="60" y="461" on="1"/>
        <pt x="60" y="618" on="0"/>
        <pt x="293" y="618" on="1"/>
        <pt x="417" y="618" on="0"/>
        <pt x="498" y="573" on="1"/>
        <pt x="513" y="564" on="0"/>
        <pt x="513" y="552" on="1"/>
        <pt x="513" y="470" on="1"/>
        <pt x="513" y="460" on="0"/>
        <pt x="497" y="447" on="0"/>
        <pt x="475" y="447" on="0"/>
        <pt x="459" y="460" on="0"/>
        <pt x="459" y="470" on="1"/>
        <pt x="459" y="539" on="1"/>
        <pt x="390" y="571" on="0"/>
        <pt x="201" y="571" on="0"/>
        <pt x="114" y="517" on="0"/>
        <pt x="114" y="461" on="1"/>
        <pt x="114" y="408" on="0"/>
        <pt x="170" y="382" on="1"/>
        <pt x="208" y="363" on="0"/>
        <pt x="337" y="336" on="0"/>
        <pt x="391" y="322" on="0"/>
        <pt x="463" y="293" on="0"/>
        <pt x="503" y="257" on="0"/>
        <pt x="533" y="198" on="0"/>
        <pt x="533" y="160" on="1"/>
        <pt x="533" y="82" on="0"/>
        <pt x="402" y="-10" on="0"/>
        <pt x="280" y="-10" on="1"/>
        <pt x="224" y="-10" on="0"/>
        <pt x="94" y="15" on="0"/>
        <pt x="61" y="36" on="1"/>
        <pt x="48" y="44" on="0"/>
        <pt x="48" y="56" on="1"/>
        <pt x="48" y="138" on="1"/>
        <pt x="48" y="148" on="0"/>
        <pt x="64" y="161" on="0"/>
        <pt x="86" y="161" on="0"/>
        <pt x="102" y="148" on="0"/>
      </contour>
    </TTGlyph>
    <TTGlyph name="Scaron" xMin="48" yMin="-10" xMax="533" yMax="780">
      <contour>
        <pt x="102" y="138" on="1"/>
        <pt x="102" y="69" on="1"/>
        <pt x="169" y="37" on="0"/>
        <pt x="375" y="37" on="0"/>
        <pt x="479" y="102" on="0"/>
        <pt x="479" y="221" on="0"/>
        <pt x="381" y="279" on="0"/>
        <pt x="167" y="320" on="0"/>
        <pt x="60" y="388" on="0"/>
        <pt x="60" y="461" on="1"/>
        <pt x="60" y="618" on="0"/>
        <pt x="293" y="618" on="1"/>
        <pt x="417" y="618" on="0"/>
        <pt x="498" y="573" on="1"/>
        <pt x="513" y="564" on="0"/>
        <pt x="513" y="552" on="1"/>
        <pt x="513" y="470" on="1"/>
        <pt x="513" y="460" on="0"/>
        <pt x="497" y="447" on="0"/>
        <pt x="475" y="447" on="0"/>
        <pt x="459" y="460" on="0"/>
        <pt x="459" y="470" on="1"/>
        <pt x="459" y="539" on="1"/>
        <pt x="390" y="571" on="0"/>
        <pt x="293" y="571" on="1"/>
        <pt x="114" y="571" on="0"/>
        <pt x="114" y="462" on="1"/>
        <pt x="114" y="408" on="0"/>
        <pt x="170" y="382" on="1"/>
        <pt x="198" y="368" on="0"/>
        <pt x="251" y="354" on="0"/>
        <pt x="376" y="328" on="0"/>
        <pt x="427" y="308" on="1"/>
        <pt x="463" y="293" on="0"/>
        <pt x="503" y="257" on="0"/>
        <pt x="533" y="198" on="0"/>
        <pt x="533" y="160" on="1"/>
        <pt x="533" y="82" on="0"/>
        <pt x="402" y="-10" on="0"/>
        <pt x="280" y="-10" on="1"/>
        <pt x="224" y="-10" on="0"/>
        <pt x="94" y="15" on="0"/>
        <pt x="61" y="36" on="1"/>
        <pt x="48" y="44" on="0"/>
        <pt x="48" y="56" on="1"/>
        <pt x="48" y="138" on="1"/>
        <pt x="48" y="148" on="0"/>
        <pt x="64" y="161" on="0"/>
        <pt x="86" y="161" on="0"/>
        <pt x="102" y="148" on="0"/>
      </contour>
      <contour>
        <pt x="347" y="775" on="1"/>
        <pt x="353" y="769" on="0"/>
        <pt x="353" y="757" on="0"/>
        <pt x="348" y="751" on="1"/>
        <pt x="304" y="693" on="1"/>
        <pt x="296" y="682" on="0"/>
        <pt x="268" y="682" on="0"/>
        <pt x="260" y="693" on="1"/>
        <pt x="216" y="751" on="1"/>
        <pt x="211" y="757" on="0"/>
        <pt x="211" y="769" on="0"/>
        <pt x="222" y="779" on="0"/>
        <pt x="228" y="779" on="1"/>
        <pt x="243" y="771" on="1"/>
        <pt x="282" y="730" on="1"/>
        <pt x="321" y="771" on="1"/>
        <pt x="329" y="779" on="0"/>
        <pt x="336" y="779" on="1"/>
      </contour>
    </TTGlyph>
    <TTGlyph name="T" xMin="14" yMin="-10" xMax="572" yMax="608">
      <contour>
        <pt x="266" y="13" on="1"/>
        <pt x="266" y="561" on="1"/>
        <pt x="68" y="561" on="1"/>
        <pt x="68" y="502" on="1"/>
        <pt x="68" y="492" on="0"/>
        <pt x="52" y="479" on="0"/>
        <pt x="30" y="479" on="0"/>
        <pt x="14" y="492" on="0"/>
        <pt x="14" y="502" on="1"/>
        <pt x="14" y="584" on="1"/>
        <pt x="14" y="594" on="0"/>
        <pt x="30" y="608" on="0"/>
        <pt x="40" y="608" on="1"/>
        <pt x="545" y="608" on="1"/>
        <pt x="556" y="608" on="0"/>
        <pt x="572" y="594" on="0"/>
        <pt x="572" y="584" on="1"/>
        <pt x="572" y="502" on="1"/>
        <pt x="572" y="492" on="0"/>
        <pt x="556" y="479" on="0"/>
        <pt x="534" y="479" on="0"/>
        <pt x="518" y="492" on="0"/>
        <pt x="518" y="502" on="1"/>
        <pt x="518" y="561" on="1"/>
        <pt x="320" y="561" on="1"/>
        <pt x="320" y="13" on="1"/>
        <pt x="320" y="3" on="0"/>
        <pt x="304" y="-10" on="0"/>
        <pt x="282" y="-10" on="0"/>
        <pt x="266" y="3" on="0"/>
      </contour>
    </TTGlyph>
    <TTGlyph name="Thorn" xMin="90" yMin="-10" xMax="563" yMax="618">
      <contour>
        <pt x="144" y="449" on="1"/>
        <pt x="144" y="168" on="1"/>
        <pt x="345" y="168" on="1"/>
        <pt x="430" y="168" on="0"/>
        <pt x="509" y="234" on="0"/>
        <pt x="509" y="386" on="0"/>
        <pt x="426" y="449" on="0"/>
        <pt x="345" y="449" on="1"/>
      </contour>
      <contour>
        <pt x="144" y="595" on="1"/>
        <pt x="144" y="496" on="1"/>
        <pt x="345" y="496" on="1"/>
        <pt x="455" y="496" on="0"/>
        <pt x="563" y="406" on="0"/>
        <pt x="563" y="212" on="0"/>
        <pt x="455" y="122" on="0"/>
        <pt x="345" y="122" on="1"/>
        <pt x="144" y="122" on="1"/>
        <pt x="144" y="13" on="1"/>
        <pt x="144" y="3" on="0"/>
        <pt x="128" y="-10" on="0"/>
        <pt x="106" y="-10" on="0"/>
        <pt x="90" y="3" on="0"/>
        <pt x="90" y="13" on="1"/>
        <pt x="90" y="595" on="1"/>
        <pt x="90" y="605" on="0"/>
        <pt x="106" y="618" on="0"/>
        <pt x="128" y="618" on="0"/>
        <pt x="144" y="605" on="0"/>
      </contour>
    </TTGlyph>
    <TTGlyph name="U" xMin="10" yMin="-10" xMax="567" yMax="608">
      <contour>
        <pt x="454" y="608" on="1"/>
        <pt x="541" y="608" on="1"/>
        <pt x="567" y="608" on="0"/>
        <pt x="567" y="584" on="1"/>
        <pt x="567" y="190" on="1"/>
        <pt x="567" y="98" on="0"/>
        <pt x="428" y="-10" on="0"/>
        <pt x="224" y="-10" on="0"/>
        <pt x="92" y="102" on="0"/>
        <pt x="92" y="190" on="1"/>
        <pt x="92" y="561" on="1"/>
        <pt x="33" y="561" on="1"/>
        <pt x="23" y="561" on="0"/>
        <pt x="10" y="574" on="0"/>
        <pt x="10" y="594" on="0"/>
        <pt x="23" y="608" on="0"/>
        <pt x="33" y="608" on="1"/>
        <pt x="120" y="608" on="1"/>
        <pt x="130" y="608" on="0"/>
        <pt x="146" y="594" on="0"/>
        <pt x="146" y="584" on="1"/>
        <pt x="146" y="190" on="1"/>
        <pt x="146" y="122" on="0"/>
        <pt x="248" y="37" on="0"/>
        <pt x="410" y="37" on="0"/>
        <pt x="513" y="122" on="0"/>
        <pt x="513" y="190" on="1"/>
        <pt x="513" y="561" on="1"/>
        <pt x="454" y="561" on="1"/>
        <pt x="444" y="561" on="0"/>
        <pt x="431" y="574" on="0"/>
        <pt x="431" y="594" on="0"/>
        <pt x="444" y="608" on="0"/>
      </contour>
    </TTGlyph>
    <TTGlyph name="Uacute" xMin="10" yMin="-10" xMax="567" yMax="790">
      <contour>
        <pt x="541" y="608" on="1"/>
        <pt x="567" y="608" on="0"/>
        <pt x="567" y="584" on="1"/>
        <pt x="567" y="190" on="1"/>
        <pt x="567" y="98" on="0"/>
        <pt x="428" y="-10" on="0"/>
        <pt x="224" y="-10" on="0"/>
        <pt x="92" y="102" on="0"/>
        <pt x="92" y="190" on="1"/>
        <pt x="92" y="561" on="1"/>
        <pt x="33" y="561" on="1"/>
        <pt x="23" y="561" on="0"/>
        <pt x="10" y="574" on="0"/>
        <pt x="10" y="594" on="0"/>
        <pt x="23" y="608" on="0"/>
        <pt x="33" y="608" on="1"/>
        <pt x="120" y="608" on="1"/>
        <pt x="130" y="608" on="0"/>
        <pt x="146" y="594" on="0"/>
        <pt x="146" y="584" on="1"/>
        <pt x="146" y="190" on="1"/>
        <pt x="146" y="122" on="0"/>
        <pt x="248" y="37" on="0"/>
        <pt x="410" y="37" on="0"/>
        <pt x="513" y="122" on="0"/>
        <pt x="513" y="190" on="1"/>
        <pt x="513" y="561" on="1"/>
        <pt x="454" y="561" on="1"/>
        <pt x="444" y="561" on="0"/>
        <pt x="431" y="574" on="0"/>
        <pt x="431" y="594" on="0"/>
        <pt x="444" y="608" on="0"/>
        <pt x="454" y="608" on="1"/>
      </contour>
      <contour>
        <pt x="342" y="780" on="1"/>
        <pt x="351" y="790" on="0"/>
        <pt x="367" y="790" on="0"/>
        <pt x="383" y="774" on="0"/>
        <pt x="383" y="758" on="0"/>
        <pt x="373" y="749" on="1"/>
        <pt x="311" y="694" on="1"/>
        <pt x="304" y="688" on="0"/>
        <pt x="291" y="688" on="0"/>
        <pt x="281" y="698" on="0"/>
        <pt x="281" y="711" on="0"/>
        <pt x="287" y="718" on="1"/>
      </contour>
    </TTGlyph>
    <TTGlyph name="Ucircumflex" xMin="10" yMin="-10" xMax="567" yMax="779">
      <contour>
        <pt x="454" y="608" on="1"/>
        <pt x="541" y="608" on="1"/>
        <pt x="567" y="608" on="0"/>
        <pt x="567" y="584" on="1"/>
        <pt x="567" y="190" on="1"/>
        <pt x="567" y="98" on="0"/>
        <pt x="428" y="-10" on="0"/>
        <pt x="224" y="-10" on="0"/>
        <pt x="92" y="102" on="0"/>
        <pt x="92" y="190" on="1"/>
        <pt x="92" y="561" on="1"/>
        <pt x="33" y="561" on="1"/>
        <pt x="23" y="561" on="0"/>
        <pt x="10" y="574" on="0"/>
        <pt x="10" y="594" on="0"/>
        <pt x="23" y="608" on="0"/>
        <pt x="33" y="608" on="1"/>
        <pt x="120" y="608" on="1"/>
        <pt x="130" y="608" on="0"/>
        <pt x="146" y="594" on="0"/>
        <pt x="146" y="584" on="1"/>
        <pt x="146" y="190" on="1"/>
        <pt x="146" y="122" on="0"/>
        <pt x="248" y="37" on="0"/>
        <pt x="410" y="37" on="0"/>
        <pt x="513" y="122" on="0"/>
        <pt x="513" y="190" on="1"/>
        <pt x="513" y="561" on="1"/>
        <pt x="454" y="561" on="1"/>
        <pt x="444" y="561" on="0"/>
        <pt x="431" y="574" on="0"/>
        <pt x="431" y="594" on="0"/>
        <pt x="444" y="608" on="0"/>
      </contour>
      <contour>
        <pt x="257" y="686" on="1"/>
        <pt x="251" y="692" on="0"/>
        <pt x="251" y="704" on="0"/>
        <pt x="256" y="710" on="1"/>
        <pt x="300" y="768" on="1"/>
        <pt x="308" y="779" on="0"/>
        <pt x="336" y="779" on="0"/>
        <pt x="344" y="768" on="1"/>
        <pt x="388" y="710" on="1"/>
        <pt x="393" y="704" on="0"/>
        <pt x="393" y="692" on="0"/>
        <pt x="382" y="682" on="0"/>
        <pt x="376" y="682" on="1"/>
        <pt x="361" y="690" on="1"/>
        <pt x="322" y="731" on="1"/>
        <pt x="283" y="690" on="1"/>
        <pt x="275" y="682" on="0"/>
        <pt x="268" y="682" on="1"/>
      </contour>
    </TTGlyph>
    <TTGlyph name="Udieresis" xMin="10" yMin="-10" xMax="567" yMax="760">
      <contour>
        <pt x="541" y="608" on="1"/>
        <pt x="567" y="608" on="0"/>
        <pt x="567" y="584" on="1"/>
        <pt x="567" y="190" on="1"/>
        <pt x="567" y="98" on="0"/>
        <pt x="428" y="-10" on="0"/>
        <pt x="224" y="-10" on="0"/>
        <pt x="92" y="102" on="0"/>
        <pt x="92" y="190" on="1"/>
        <pt x="92" y="561" on="1"/>
        <pt x="33" y="561" on="1"/>
        <pt x="23" y="561" on="0"/>
        <pt x="10" y="574" on="0"/>
        <pt x="10" y="594" on="0"/>
        <pt x="23" y="608" on="0"/>
        <pt x="33" y="608" on="1"/>
        <pt x="120" y="608" on="1"/>
        <pt x="130" y="608" on="0"/>
        <pt x="146" y="594" on="0"/>
        <pt x="146" y="584" on="1"/>
        <pt x="146" y="190" on="1"/>
        <pt x="146" y="122" on="0"/>
        <pt x="248" y="37" on="0"/>
        <pt x="410" y="37" on="0"/>
        <pt x="513" y="122" on="0"/>
        <pt x="513" y="190" on="1"/>
        <pt x="513" y="561" on="1"/>
        <pt x="454" y="561" on="1"/>
        <pt x="444" y="561" on="0"/>
        <pt x="431" y="574" on="0"/>
        <pt x="431" y="594" on="0"/>
        <pt x="444" y="608" on="0"/>
        <pt x="454" y="608" on="1"/>
      </contour>
      <contour>
        <pt x="219" y="729" on="1"/>
        <pt x="219" y="760" on="0"/>
        <pt x="250" y="760" on="1"/>
        <pt x="264" y="760" on="0"/>
        <pt x="281" y="742" on="0"/>
        <pt x="281" y="716" on="0"/>
        <pt x="264" y="699" on="0"/>
        <pt x="235" y="699" on="0"/>
        <pt x="219" y="716" on="0"/>
      </contour>
      <contour>
        <pt x="354" y="729" on="1"/>
        <pt x="354" y="760" on="0"/>
        <pt x="385" y="760" on="1"/>
        <pt x="399" y="760" on="0"/>
        <pt x="416" y="742" on="0"/>
        <pt x="416" y="716" on="0"/>
        <pt x="399" y="699" on="0"/>
        <pt x="370" y="699" on="0"/>
        <pt x="354" y="716" on="0"/>
      </contour>
    </TTGlyph>
    <TTGlyph name="Ugrave" xMin="10" yMin="-10" xMax="567" yMax="790">
      <contour>
        <pt x="454" y="608" on="1"/>
        <pt x="541" y="608" on="1"/>
        <pt x="567" y="608" on="0"/>
        <pt x="567" y="584" on="1"/>
        <pt x="567" y="190" on="1"/>
        <pt x="567" y="98" on="0"/>
        <pt x="428" y="-10" on="0"/>
        <pt x="224" y="-10" on="0"/>
        <pt x="92" y="102" on="0"/>
        <pt x="92" y="190" on="1"/>
        <pt x="92" y="561" on="1"/>
        <pt x="33" y="561" on="1"/>
        <pt x="23" y="561" on="0"/>
        <pt x="10" y="574" on="0"/>
        <pt x="10" y="594" on="0"/>
        <pt x="23" y="608" on="0"/>
        <pt x="33" y="608" on="1"/>
        <pt x="120" y="608" on="1"/>
        <pt x="130" y="608" on="0"/>
        <pt x="146" y="594" on="0"/>
        <pt x="146" y="584" on="1"/>
        <pt x="146" y="190" on="1"/>
        <pt x="146" y="122" on="0"/>
        <pt x="248" y="37" on="0"/>
        <pt x="410" y="37" on="0"/>
        <pt x="513" y="122" on="0"/>
        <pt x="513" y="190" on="1"/>
        <pt x="513" y="561" on="1"/>
        <pt x="454" y="561" on="1"/>
        <pt x="444" y="561" on="0"/>
        <pt x="431" y="574" on="0"/>
        <pt x="431" y="594" on="0"/>
        <pt x="444" y="608" on="0"/>
      </contour>
      <contour>
        <pt x="348" y="718" on="1"/>
        <pt x="354" y="711" on="0"/>
        <pt x="354" y="698" on="0"/>
        <pt x="344" y="688" on="0"/>
        <pt x="331" y="688" on="0"/>
        <pt x="324" y="694" on="1"/>
        <pt x="262" y="749" on="1"/>
        <pt x="252" y="758" on="0"/>
        <pt x="252" y="774" on="0"/>
        <pt x="268" y="790" on="0"/>
        <pt x="284" y="790" on="0"/>
        <pt x="293" y="780" on="1"/>
      </contour>
    </TTGlyph>
    <TTGlyph name="V" xMin="0" yMin="-5" xMax="593" yMax="619">
      <contour>
        <pt x="322" y="10" on="1"/>
        <pt x="314" y="-5" on="0"/>
        <pt x="280" y="-5" on="0"/>
        <pt x="273" y="9" on="1"/>
        <pt x="2" y="585" on="1"/>
        <pt x="0" y="590" on="0"/>
        <pt x="0" y="594" on="1"/>
        <pt x="0" y="610" on="0"/>
        <pt x="16" y="616" on="1"/>
        <pt x="22" y="618" on="0"/>
        <pt x="27" y="618" on="1"/>
        <pt x="44" y="618" on="0"/>
        <pt x="50" y="605" on="1"/>
        <pt x="297" y="75" on="1"/>
        <pt x="543" y="605" on="1"/>
        <pt x="549" y="618" on="0"/>
        <pt x="560" y="618" on="1"/>
        <pt x="584" y="618" on="0"/>
        <pt x="591" y="602" on="1"/>
        <pt x="593" y="598" on="0"/>
        <pt x="593" y="588" on="0"/>
        <pt x="591" y="584" on="1"/>
      </contour>
    </TTGlyph>
    <TTGlyph name="W" xMin="2" yMin="-10" xMax="825" yMax="619">
      <contour>
        <pt x="280" y="595" on="0"/>
        <pt x="289" y="613" on="0"/>
        <pt x="305" y="618" on="0"/>
        <pt x="310" y="618" on="1"/>
        <pt x="327" y="618" on="0"/>
        <pt x="333" y="604" on="1"/>
        <pt x="414" y="409" on="1"/>
        <pt x="496" y="605" on="1"/>
        <pt x="502" y="618" on="0"/>
        <pt x="524" y="618" on="0"/>
        <pt x="540" y="612" on="0"/>
        <pt x="548" y="593" on="0"/>
        <pt x="544" y="584" on="1"/>
        <pt x="443" y="346" on="1"/>
        <pt x="554" y="74" on="1"/>
        <pt x="775" y="605" on="1"/>
        <pt x="781" y="618" on="0"/>
        <pt x="792" y="618" on="1"/>
        <pt x="816" y="618" on="0"/>
        <pt x="823" y="602" on="1"/>
        <pt x="825" y="598" on="0"/>
        <pt x="825" y="588" on="0"/>
        <pt x="823" y="584" on="1"/>
        <pt x="580" y="7" on="1"/>
        <pt x="574" y="-10" on="0"/>
        <pt x="534" y="-10" on="0"/>
        <pt x="528" y="7" on="1"/>
        <pt x="414" y="279" on="1"/>
        <pt x="300" y="7" on="1"/>
        <pt x="294" y="-10" on="0"/>
        <pt x="255" y="-10" on="0"/>
        <pt x="249" y="7" on="1"/>
        <pt x="4" y="586" on="1"/>
        <pt x="2" y="590" on="0"/>
        <pt x="2" y="595" on="1"/>
        <pt x="2" y="611" on="0"/>
        <pt x="19" y="616" on="1"/>
        <pt x="25" y="618" on="0"/>
        <pt x="30" y="618" on="1"/>
        <pt x="47" y="618" on="0"/>
        <pt x="53" y="604" on="1"/>
        <pt x="276" y="75" on="1"/>
        <pt x="386" y="346" on="1"/>
        <pt x="284" y="586" on="1"/>
      </contour>
    </TTGlyph>
    <TTGlyph name="X" xMin="13" yMin="-12" xMax="592" yMax="620">
      <contour>
        <pt x="60" y="-2" on="1"/>
        <pt x="53" y="-11" on="0"/>
        <pt x="35" y="-11" on="0"/>
        <pt x="14" y="6" on="0"/>
        <pt x="14" y="22" on="0"/>
        <pt x="20" y="29" on="1"/>
        <pt x="268" y="309" on="1"/>
        <pt x="28" y="579" on="1"/>
        <pt x="22" y="586" on="0"/>
        <pt x="22" y="602" on="0"/>
        <pt x="43" y="619" on="0"/>
        <pt x="61" y="619" on="0"/>
        <pt x="68" y="610" on="1"/>
        <pt x="302" y="344" on="1"/>
        <pt x="536" y="610" on="1"/>
        <pt x="543" y="619" on="0"/>
        <pt x="561" y="619" on="0"/>
        <pt x="582" y="602" on="0"/>
        <pt x="582" y="586" on="0"/>
        <pt x="576" y="579" on="1"/>
        <pt x="336" y="308" on="1"/>
        <pt x="585" y="29" on="1"/>
        <pt x="591" y="22" on="0"/>
        <pt x="591" y="6" on="0"/>
        <pt x="570" y="-11" on="0"/>
        <pt x="552" y="-11" on="0"/>
        <pt x="545" y="-2" on="1"/>
        <pt x="303" y="273" on="1"/>
      </contour>
    </TTGlyph>
    <TTGlyph name="Y" xMin="-1" yMin="-10" xMax="562" yMax="620">
      <contour>
        <pt x="514" y="608" on="1"/>
        <pt x="522" y="619" on="0"/>
        <pt x="540" y="619" on="0"/>
        <pt x="549" y="614" on="1"/>
        <pt x="561" y="607" on="0"/>
        <pt x="561" y="586" on="0"/>
        <pt x="558" y="581" on="1"/>
        <pt x="308" y="222" on="1"/>
        <pt x="308" y="13" on="1"/>
        <pt x="308" y="3" on="0"/>
        <pt x="292" y="-10" on="0"/>
        <pt x="270" y="-10" on="0"/>
        <pt x="254" y="3" on="0"/>
        <pt x="254" y="13" on="1"/>
        <pt x="254" y="220" on="1"/>
        <pt x="3" y="582" on="1"/>
        <pt x="0" y="587" on="0"/>
        <pt x="0" y="591" on="1"/>
        <pt x="0" y="607" on="0"/>
        <pt x="22" y="619" on="0"/>
        <pt x="41" y="619" on="0"/>
        <pt x="48" y="607" on="1"/>
        <pt x="281" y="266" on="1"/>
      </contour>
    </TTGlyph>
    <TTGlyph name="Yacute" xMin="-1" yMin="-10" xMax="562" yMax="790">
      <contour>
        <pt x="48" y="607" on="1"/>
        <pt x="281" y="266" on="1"/>
        <pt x="514" y="608" on="1"/>
        <pt x="522" y="619" on="0"/>
        <pt x="540" y="619" on="0"/>
        <pt x="561" y="607" on="0"/>
        <pt x="561" y="591" on="1"/>
        <pt x="561" y="586" on="0"/>
        <pt x="558" y="581" on="1"/>
        <pt x="308" y="222" on="1"/>
        <pt x="308" y="13" on="1"/>
        <pt x="308" y="3" on="0"/>
        <pt x="292" y="-10" on="0"/>
        <pt x="270" y="-10" on="0"/>
        <pt x="254" y="3" on="0"/>
        <pt x="254" y="13" on="1"/>
        <pt x="254" y="220" on="1"/>
        <pt x="3" y="582" on="1"/>
        <pt x="0" y="587" on="0"/>
        <pt x="0" y="596" on="0"/>
        <pt x="1" y="600" on="1"/>
        <pt x="7" y="619" on="0"/>
        <pt x="31" y="619" on="1"/>
        <pt x="41" y="619" on="0"/>
      </contour>
      <contour>
        <pt x="299" y="780" on="1"/>
        <pt x="308" y="790" on="0"/>
        <pt x="324" y="790" on="0"/>
        <pt x="340" y="774" on="0"/>
        <pt x="340" y="758" on="0"/>
        <pt x="330" y="749" on="1"/>
        <pt x="268" y="694" on="1"/>
        <pt x="261" y="688" on="0"/>
        <pt x="248" y="688" on="0"/>
        <pt x="238" y="698" on="0"/>
        <pt x="238" y="711" on="0"/>
        <pt x="244" y="718" on="1"/>
      </contour>
    </TTGlyph>
    <TTGlyph name="Ydieresis" xMin="-1" yMin="-10" xMax="562" yMax="760">
      <contour>
        <pt x="48" y="607" on="1"/>
        <pt x="281" y="266" on="1"/>
        <pt x="514" y="608" on="1"/>
        <pt x="522" y="619" on="0"/>
        <pt x="540" y="619" on="0"/>
        <pt x="561" y="607" on="0"/>
        <pt x="561" y="591" on="1"/>
        <pt x="561" y="586" on="0"/>
        <pt x="558" y="581" on="1"/>
        <pt x="308" y="222" on="1"/>
        <pt x="308" y="13" on="1"/>
        <pt x="308" y="3" on="0"/>
        <pt x="292" y="-10" on="0"/>
        <pt x="270" y="-10" on="0"/>
        <pt x="254" y="3" on="0"/>
        <pt x="254" y="13" on="1"/>
        <pt x="254" y="220" on="1"/>
        <pt x="3" y="582" on="1"/>
        <pt x="0" y="587" on="0"/>
        <pt x="0" y="596" on="0"/>
        <pt x="1" y="600" on="1"/>
        <pt x="7" y="619" on="0"/>
        <pt x="31" y="619" on="1"/>
        <pt x="41" y="619" on="0"/>
      </contour>
      <contour>
        <pt x="183" y="729" on="1"/>
        <pt x="183" y="760" on="0"/>
        <pt x="214" y="760" on="1"/>
        <pt x="228" y="760" on="0"/>
        <pt x="245" y="742" on="0"/>
        <pt x="245" y="716" on="0"/>
        <pt x="228" y="699" on="0"/>
        <pt x="199" y="699" on="0"/>
        <pt x="183" y="716" on="0"/>
      </contour>
      <contour>
        <pt x="318" y="729" on="1"/>
        <pt x="318" y="760" on="0"/>
        <pt x="349" y="760" on="1"/>
        <pt x="363" y="760" on="0"/>
        <pt x="380" y="742" on="0"/>
        <pt x="380" y="716" on="0"/>
        <pt x="363" y="699" on="0"/>
        <pt x="334" y="699" on="0"/>
        <pt x="318" y="716" on="0"/>
      </contour>
    </TTGlyph>
    <TTGlyph name="Z" xMin="40" yMin="0" xMax="557" yMax="608">
      <contour>
        <pt x="557" y="125" on="1"/>
        <pt x="557" y="24" on="1"/>
        <pt x="557" y="14" on="0"/>
        <pt x="541" y="0" on="0"/>
        <pt x="529" y="0" on="1"/>
        <pt x="67" y="0" on="1"/>
        <pt x="56" y="0" on="0"/>
        <pt x="40" y="14" on="0"/>
        <pt x="40" y="24" on="1"/>
        <pt x="40" y="116" on="0"/>
        <pt x="116" y="194" on="1"/>
        <pt x="154" y="234" on="0"/>
        <pt x="226" y="292" on="0"/>
        <pt x="280" y="330" on="1"/>
        <pt x="309" y="351" on="1"/>
        <pt x="360" y="388" on="0"/>
        <pt x="421" y="440" on="0"/>
        <pt x="482" y="521" on="0"/>
        <pt x="489" y="561" on="1"/>
        <pt x="104" y="561" on="1"/>
        <pt x="104" y="483" on="1"/>
        <pt x="104" y="473" on="0"/>
        <pt x="88" y="460" on="0"/>
        <pt x="66" y="460" on="0"/>
        <pt x="50" y="473" on="0"/>
        <pt x="50" y="483" on="1"/>
        <pt x="50" y="585" on="1"/>
        <pt x="50" y="594" on="0"/>
        <pt x="66" y="608" on="0"/>
        <pt x="77" y="608" on="1"/>
        <pt x="517" y="608" on="1"/>
        <pt x="528" y="608" on="0"/>
        <pt x="545" y="594" on="0"/>
        <pt x="545" y="585" on="1"/>
        <pt x="545" y="501" on="0"/>
        <pt x="472" y="426" on="1"/>
        <pt x="435" y="388" on="0"/>
        <pt x="381" y="343" on="0"/>
        <pt x="336" y="310" on="1"/>
        <pt x="286" y="273" on="1"/>
        <pt x="232" y="234" on="0"/>
        <pt x="169" y="180" on="0"/>
        <pt x="103" y="91" on="0"/>
        <pt x="96" y="47" on="1"/>
        <pt x="503" y="47" on="1"/>
        <pt x="503" y="125" on="1"/>
        <pt x="503" y="135" on="0"/>
        <pt x="519" y="148" on="0"/>
        <pt x="541" y="148" on="0"/>
        <pt x="557" y="135" on="0"/>
      </contour>
    </TTGlyph>
    <TTGlyph name="Zcaron" xMin="40" yMin="0" xMax="557" yMax="780">
      <contour>
        <pt x="557" y="125" on="1"/>
        <pt x="557" y="24" on="1"/>
        <pt x="557" y="14" on="0"/>
        <pt x="541" y="0" on="0"/>
        <pt x="529" y="0" on="1"/>
        <pt x="67" y="0" on="1"/>
        <pt x="56" y="0" on="0"/>
        <pt x="40" y="14" on="0"/>
        <pt x="40" y="24" on="1"/>
        <pt x="40" y="116" on="0"/>
        <pt x="116" y="194" on="1"/>
        <pt x="154" y="234" on="0"/>
        <pt x="226" y="292" on="0"/>
        <pt x="280" y="330" on="1"/>
        <pt x="309" y="351" on="1"/>
        <pt x="360" y="388" on="0"/>
        <pt x="421" y="440" on="0"/>
        <pt x="482" y="521" on="0"/>
        <pt x="489" y="561" on="1"/>
        <pt x="104" y="561" on="1"/>
        <pt x="104" y="483" on="1"/>
        <pt x="104" y="473" on="0"/>
        <pt x="88" y="460" on="0"/>
        <pt x="66" y="460" on="0"/>
        <pt x="50" y="473" on="0"/>
        <pt x="50" y="483" on="1"/>
        <pt x="50" y="585" on="1"/>
        <pt x="50" y="594" on="0"/>
        <pt x="66" y="608" on="0"/>
        <pt x="77" y="608" on="1"/>
        <pt x="517" y="608" on="1"/>
        <pt x="528" y="608" on="0"/>
        <pt x="545" y="594" on="0"/>
        <pt x="545" y="585" on="1"/>
        <pt x="545" y="501" on="0"/>
        <pt x="472" y="426" on="1"/>
        <pt x="435" y="388" on="0"/>
        <pt x="381" y="343" on="0"/>
        <pt x="336" y="310" on="1"/>
        <pt x="286" y="273" on="1"/>
        <pt x="232" y="234" on="0"/>
        <pt x="169" y="180" on="0"/>
        <pt x="103" y="91" on="0"/>
        <pt x="96" y="47" on="1"/>
        <pt x="503" y="47" on="1"/>
        <pt x="503" y="125" on="1"/>
        <pt x="503" y="135" on="0"/>
        <pt x="519" y="148" on="0"/>
        <pt x="541" y="148" on="0"/>
        <pt x="557" y="135" on="0"/>
      </contour>
      <contour>
        <pt x="355" y="775" on="1"/>
        <pt x="361" y="769" on="0"/>
        <pt x="361" y="757" on="0"/>
        <pt x="356" y="751" on="1"/>
        <pt x="312" y="693" on="1"/>
        <pt x="304" y="682" on="0"/>
        <pt x="276" y="682" on="0"/>
        <pt x="268" y="693" on="1"/>
        <pt x="224" y="751" on="1"/>
        <pt x="219" y="757" on="0"/>
        <pt x="219" y="769" on="0"/>
        <pt x="230" y="779" on="0"/>
        <pt x="236" y="779" on="1"/>
        <pt x="251" y="771" on="1"/>
        <pt x="290" y="730" on="1"/>
        <pt x="329" y="771" on="1"/>
        <pt x="337" y="779" on="0"/>
        <pt x="344" y="779" on="1"/>
      </contour>
    </TTGlyph>
    <TTGlyph name="a" xMin="42" yMin="-10" xMax="456" yMax="384">
      <contour>
        <pt x="314" y="155" on="1"/>
        <pt x="248" y="173" on="0"/>
        <pt x="155" y="173" on="0"/>
        <pt x="96" y="137" on="0"/>
        <pt x="96" y="72" on="0"/>
        <pt x="134" y="36" on="0"/>
        <pt x="167" y="36" on="1"/>
        <pt x="259" y="36" on="0"/>
        <pt x="314" y="136" on="1"/>
      </contour>
      <contour>
        <pt x="394" y="47" on="1"/>
        <pt x="433" y="47" on="1"/>
        <pt x="443" y="47" on="0"/>
        <pt x="456" y="33" on="0"/>
        <pt x="456" y="13" on="0"/>
        <pt x="443" y="0" on="0"/>
        <pt x="433" y="0" on="1"/>
        <pt x="389" y="0" on="1"/>
        <pt x="353" y="0" on="0"/>
        <pt x="314" y="32" on="0"/>
        <pt x="314" y="61" on="1"/>
        <pt x="314" y="66" on="0"/>
        <pt x="315" y="72" on="1"/>
        <pt x="262" y="-10" on="0"/>
        <pt x="161" y="-10" on="1"/>
        <pt x="105" y="-10" on="0"/>
        <pt x="42" y="50" on="0"/>
        <pt x="42" y="157" on="0"/>
        <pt x="127" y="218" on="0"/>
        <pt x="254" y="218" on="0"/>
        <pt x="314" y="197" on="1"/>
        <pt x="314" y="266" on="1"/>
        <pt x="314" y="314" on="0"/>
        <pt x="279" y="328" on="1"/>
        <pt x="252" y="338" on="0"/>
        <pt x="157" y="338" on="0"/>
        <pt x="117" y="322" on="1"/>
        <pt x="117" y="259" on="1"/>
        <pt x="117" y="249" on="0"/>
        <pt x="101" y="236" on="0"/>
        <pt x="79" y="236" on="0"/>
        <pt x="63" y="249" on="0"/>
        <pt x="63" y="259" on="1"/>
        <pt x="63" y="335" on="1"/>
        <pt x="63" y="348" on="0"/>
        <pt x="76" y="355" on="1"/>
        <pt x="125" y="384" on="0"/>
        <pt x="287" y="384" on="0"/>
        <pt x="367" y="331" on="0"/>
        <pt x="367" y="266" on="1"/>
        <pt x="367" y="66" on="1"/>
        <pt x="367" y="47" on="0"/>
      </contour>
    </TTGlyph>
    <TTGlyph name="aacute" xMin="42" yMin="-10" xMax="456" yMax="556">
      <contour>
        <pt x="155" y="173" on="0"/>
        <pt x="96" y="137" on="0"/>
        <pt x="96" y="72" on="0"/>
        <pt x="134" y="36" on="0"/>
        <pt x="167" y="36" on="1"/>
        <pt x="259" y="36" on="0"/>
        <pt x="314" y="136" on="1"/>
        <pt x="314" y="155" on="1"/>
        <pt x="248" y="173" on="0"/>
      </contour>
      <contour>
        <pt x="433" y="47" on="1"/>
        <pt x="443" y="47" on="0"/>
        <pt x="456" y="33" on="0"/>
        <pt x="456" y="13" on="0"/>
        <pt x="443" y="0" on="0"/>
        <pt x="433" y="0" on="1"/>
        <pt x="389" y="0" on="1"/>
        <pt x="353" y="0" on="0"/>
        <pt x="314" y="32" on="0"/>
        <pt x="314" y="61" on="1"/>
        <pt x="314" y="66" on="0"/>
        <pt x="315" y="72" on="1"/>
        <pt x="262" y="-10" on="0"/>
        <pt x="161" y="-10" on="1"/>
        <pt x="105" y="-10" on="0"/>
        <pt x="42" y="50" on="0"/>
        <pt x="42" y="157" on="0"/>
        <pt x="127" y="218" on="0"/>
        <pt x="254" y="218" on="0"/>
        <pt x="314" y="197" on="1"/>
        <pt x="314" y="266" on="1"/>
        <pt x="314" y="314" on="0"/>
        <pt x="279" y="328" on="1"/>
        <pt x="262" y="334" on="0"/>
        <pt x="231" y="338" on="0"/>
        <pt x="157" y="338" on="0"/>
        <pt x="117" y="322" on="1"/>
        <pt x="117" y="259" on="1"/>
        <pt x="117" y="249" on="0"/>
        <pt x="101" y="236" on="0"/>
        <pt x="79" y="236" on="0"/>
        <pt x="63" y="249" on="0"/>
        <pt x="63" y="259" on="1"/>
        <pt x="63" y="335" on="1"/>
        <pt x="63" y="348" on="0"/>
        <pt x="76" y="355" on="1"/>
        <pt x="125" y="384" on="0"/>
        <pt x="287" y="384" on="0"/>
        <pt x="367" y="331" on="0"/>
        <pt x="367" y="266" on="1"/>
        <pt x="367" y="66" on="1"/>
        <pt x="367" y="47" on="0"/>
        <pt x="394" y="47" on="1"/>
      </contour>
      <contour>
        <pt x="232" y="546" on="1"/>
        <pt x="241" y="556" on="0"/>
        <pt x="257" y="556" on="0"/>
        <pt x="273" y="540" on="0"/>
        <pt x="273" y="524" on="0"/>
        <pt x="263" y="515" on="1"/>
        <pt x="201" y="460" on="1"/>
        <pt x="194" y="454" on="0"/>
        <pt x="181" y="454" on="0"/>
        <pt x="171" y="464" on="0"/>
        <pt x="171" y="477" on="0"/>
        <pt x="177" y="484" on="1"/>
      </contour>
    </TTGlyph>
    <TTGlyph name="acircumflex" xMin="42" yMin="-10" xMax="456" yMax="545">
      <contour>
        <pt x="314" y="155" on="1"/>
        <pt x="248" y="173" on="0"/>
        <pt x="155" y="173" on="0"/>
        <pt x="96" y="137" on="0"/>
        <pt x="96" y="72" on="0"/>
        <pt x="134" y="36" on="0"/>
        <pt x="167" y="36" on="1"/>
        <pt x="259" y="36" on="0"/>
        <pt x="314" y="136" on="1"/>
      </contour>
      <contour>
        <pt x="394" y="47" on="1"/>
        <pt x="433" y="47" on="1"/>
        <pt x="443" y="47" on="0"/>
        <pt x="456" y="33" on="0"/>
        <pt x="456" y="13" on="0"/>
        <pt x="443" y="0" on="0"/>
        <pt x="433" y="0" on="1"/>
        <pt x="389" y="0" on="1"/>
        <pt x="353" y="0" on="0"/>
        <pt x="314" y="32" on="0"/>
        <pt x="314" y="61" on="1"/>
        <pt x="314" y="66" on="0"/>
        <pt x="315" y="72" on="1"/>
        <pt x="262" y="-10" on="0"/>
        <pt x="161" y="-10" on="1"/>
        <pt x="105" y="-10" on="0"/>
        <pt x="42" y="50" on="0"/>
        <pt x="42" y="157" on="0"/>
        <pt x="127" y="218" on="0"/>
        <pt x="254" y="218" on="0"/>
        <pt x="314" y="197" on="1"/>
        <pt x="314" y="266" on="1"/>
        <pt x="314" y="314" on="0"/>
        <pt x="279" y="328" on="1"/>
        <pt x="252" y="338" on="0"/>
        <pt x="157" y="338" on="0"/>
        <pt x="117" y="322" on="1"/>
        <pt x="117" y="259" on="1"/>
        <pt x="117" y="249" on="0"/>
        <pt x="101" y="236" on="0"/>
        <pt x="79" y="236" on="0"/>
        <pt x="63" y="249" on="0"/>
        <pt x="63" y="259" on="1"/>
        <pt x="63" y="335" on="1"/>
        <pt x="63" y="348" on="0"/>
        <pt x="76" y="355" on="1"/>
        <pt x="125" y="384" on="0"/>
        <pt x="287" y="384" on="0"/>
        <pt x="367" y="331" on="0"/>
        <pt x="367" y="266" on="1"/>
        <pt x="367" y="66" on="1"/>
        <pt x="367" y="47" on="0"/>
      </contour>
      <contour>
        <pt x="144" y="452" on="1"/>
        <pt x="138" y="458" on="0"/>
        <pt x="138" y="470" on="0"/>
        <pt x="143" y="476" on="1"/>
        <pt x="187" y="534" on="1"/>
        <pt x="195" y="545" on="0"/>
        <pt x="223" y="545" on="0"/>
        <pt x="231" y="534" on="1"/>
        <pt x="275" y="476" on="1"/>
        <pt x="280" y="470" on="0"/>
        <pt x="280" y="458" on="0"/>
        <pt x="269" y="448" on="0"/>
        <pt x="263" y="448" on="1"/>
        <pt x="248" y="456" on="1"/>
        <pt x="209" y="497" on="1"/>
        <pt x="170" y="456" on="1"/>
        <pt x="162" y="448" on="0"/>
        <pt x="155" y="448" on="1"/>
      </contour>
    </TTGlyph>
    <TTGlyph name="acute" xMin="30" yMin="453" xMax="133" yMax="556">
      <contour>
        <pt x="92" y="546" on="1"/>
        <pt x="101" y="556" on="0"/>
        <pt x="117" y="556" on="0"/>
        <pt x="133" y="540" on="0"/>
        <pt x="133" y="524" on="0"/>
        <pt x="123" y="515" on="1"/>
        <pt x="61" y="460" on="1"/>
        <pt x="54" y="454" on="0"/>
        <pt x="41" y="454" on="0"/>
        <pt x="31" y="464" on="0"/>
        <pt x="31" y="477" on="0"/>
        <pt x="37" y="484" on="1"/>
      </contour>
    </TTGlyph>
    <TTGlyph name="adieresis" xMin="42" yMin="-10" xMax="456" yMax="526">
      <contour>
        <pt x="155" y="173" on="0"/>
        <pt x="96" y="137" on="0"/>
        <pt x="96" y="72" on="0"/>
        <pt x="134" y="36" on="0"/>
        <pt x="167" y="36" on="1"/>
        <pt x="259" y="36" on="0"/>
        <pt x="314" y="136" on="1"/>
        <pt x="314" y="155" on="1"/>
        <pt x="248" y="173" on="0"/>
      </contour>
      <contour>
        <pt x="433" y="47" on="1"/>
        <pt x="443" y="47" on="0"/>
        <pt x="456" y="33" on="0"/>
        <pt x="456" y="13" on="0"/>
        <pt x="443" y="0" on="0"/>
        <pt x="433" y="0" on="1"/>
        <pt x="389" y="0" on="1"/>
        <pt x="353" y="0" on="0"/>
        <pt x="314" y="32" on="0"/>
        <pt x="314" y="61" on="1"/>
        <pt x="314" y="66" on="0"/>
        <pt x="315" y="72" on="1"/>
        <pt x="262" y="-10" on="0"/>
        <pt x="161" y="-10" on="1"/>
        <pt x="105" y="-10" on="0"/>
        <pt x="42" y="50" on="0"/>
        <pt x="42" y="157" on="0"/>
        <pt x="127" y="218" on="0"/>
        <pt x="254" y="218" on="0"/>
        <pt x="314" y="197" on="1"/>
        <pt x="314" y="266" on="1"/>
        <pt x="314" y="314" on="0"/>
        <pt x="279" y="328" on="1"/>
        <pt x="262" y="334" on="0"/>
        <pt x="231" y="338" on="0"/>
        <pt x="157" y="338" on="0"/>
        <pt x="117" y="322" on="1"/>
        <pt x="117" y="259" on="1"/>
        <pt x="117" y="249" on="0"/>
        <pt x="101" y="236" on="0"/>
        <pt x="79" y="236" on="0"/>
        <pt x="63" y="249" on="0"/>
        <pt x="63" y="259" on="1"/>
        <pt x="63" y="335" on="1"/>
        <pt x="63" y="348" on="0"/>
        <pt x="76" y="355" on="1"/>
        <pt x="125" y="384" on="0"/>
        <pt x="287" y="384" on="0"/>
        <pt x="367" y="331" on="0"/>
        <pt x="367" y="266" on="1"/>
        <pt x="367" y="66" on="1"/>
        <pt x="367" y="47" on="0"/>
        <pt x="394" y="47" on="1"/>
      </contour>
      <contour>
        <pt x="114" y="495" on="1"/>
        <pt x="114" y="526" on="0"/>
        <pt x="145" y="526" on="1"/>
        <pt x="159" y="526" on="0"/>
        <pt x="176" y="508" on="0"/>
        <pt x="176" y="482" on="0"/>
        <pt x="159" y="465" on="0"/>
        <pt x="130" y="465" on="0"/>
        <pt x="114" y="482" on="0"/>
      </contour>
      <contour>
        <pt x="249" y="495" on="1"/>
        <pt x="249" y="526" on="0"/>
        <pt x="280" y="526" on="1"/>
        <pt x="294" y="526" on="0"/>
        <pt x="311" y="508" on="0"/>
        <pt x="311" y="482" on="0"/>
        <pt x="294" y="465" on="0"/>
        <pt x="265" y="465" on="0"/>
        <pt x="249" y="482" on="0"/>
      </contour>
    </TTGlyph>
    <TTGlyph name="ae" xMin="42" yMin="-10" xMax="669" yMax="384">
      <contour>
        <pt x="618" y="96" on="1"/>
        <pt x="625" y="108" on="0"/>
        <pt x="643" y="108" on="0"/>
        <pt x="661" y="99" on="0"/>
        <pt x="668" y="80" on="0"/>
        <pt x="663" y="72" on="1"/>
        <pt x="612" y="-10" on="0"/>
        <pt x="382" y="-10" on="0"/>
        <pt x="333" y="89" on="1"/>
        <pt x="260" y="-10" on="0"/>
        <pt x="161" y="-10" on="1"/>
        <pt x="105" y="-10" on="0"/>
        <pt x="42" y="50" on="0"/>
        <pt x="42" y="158" on="0"/>
        <pt x="114" y="218" on="0"/>
        <pt x="171" y="218" on="1"/>
        <pt x="314" y="218" on="1"/>
        <pt x="314" y="266" on="1"/>
        <pt x="314" y="314" on="0"/>
        <pt x="279" y="328" on="1"/>
        <pt x="252" y="338" on="0"/>
        <pt x="154" y="338" on="0"/>
        <pt x="117" y="323" on="1"/>
        <pt x="117" y="265" on="1"/>
        <pt x="117" y="255" on="0"/>
        <pt x="101" y="242" on="0"/>
        <pt x="79" y="242" on="0"/>
        <pt x="63" y="255" on="0"/>
        <pt x="63" y="265" on="1"/>
        <pt x="63" y="336" on="1"/>
        <pt x="63" y="349" on="0"/>
        <pt x="76" y="356" on="1"/>
        <pt x="124" y="384" on="0"/>
        <pt x="271" y="384" on="0"/>
        <pt x="343" y="356" on="0"/>
        <pt x="357" y="316" on="1"/>
        <pt x="409" y="384" on="0"/>
        <pt x="586" y="384" on="0"/>
        <pt x="669" y="282" on="0"/>
        <pt x="669" y="197" on="1"/>
        <pt x="669" y="174" on="0"/>
        <pt x="643" y="174" on="1"/>
        <pt x="366" y="173" on="1"/>
        <pt x="370" y="111" on="0"/>
        <pt x="443" y="36" on="0"/>
        <pt x="501" y="36" on="1"/>
        <pt x="579" y="36" on="0"/>
      </contour>
      <contour>
        <pt x="613" y="272" on="0"/>
        <pt x="556" y="338" on="0"/>
        <pt x="449" y="338" on="0"/>
        <pt x="377" y="271" on="0"/>
        <pt x="368" y="218" on="1"/>
        <pt x="616" y="218" on="1"/>
      </contour>
      <contour>
        <pt x="314" y="173" on="1"/>
        <pt x="183" y="173" on="1"/>
        <pt x="96" y="173" on="0"/>
        <pt x="96" y="101" on="1"/>
        <pt x="96" y="72" on="0"/>
        <pt x="134" y="36" on="0"/>
        <pt x="167" y="36" on="1"/>
        <pt x="259" y="36" on="0"/>
        <pt x="314" y="136" on="1"/>
      </contour>
    </TTGlyph>
    <TTGlyph name="agrave" xMin="42" yMin="-10" xMax="456" yMax="556">
      <contour>
        <pt x="314" y="155" on="1"/>
        <pt x="248" y="173" on="0"/>
        <pt x="155" y="173" on="0"/>
        <pt x="96" y="137" on="0"/>
        <pt x="96" y="72" on="0"/>
        <pt x="134" y="36" on="0"/>
        <pt x="167" y="36" on="1"/>
        <pt x="259" y="36" on="0"/>
        <pt x="314" y="136" on="1"/>
      </contour>
      <contour>
        <pt x="394" y="47" on="1"/>
        <pt x="433" y="47" on="1"/>
        <pt x="443" y="47" on="0"/>
        <pt x="456" y="33" on="0"/>
        <pt x="456" y="13" on="0"/>
        <pt x="443" y="0" on="0"/>
        <pt x="433" y="0" on="1"/>
        <pt x="389" y="0" on="1"/>
        <pt x="353" y="0" on="0"/>
        <pt x="314" y="32" on="0"/>
        <pt x="314" y="61" on="1"/>
        <pt x="314" y="66" on="0"/>
        <pt x="315" y="72" on="1"/>
        <pt x="262" y="-10" on="0"/>
        <pt x="161" y="-10" on="1"/>
        <pt x="105" y="-10" on="0"/>
        <pt x="42" y="50" on="0"/>
        <pt x="42" y="157" on="0"/>
        <pt x="127" y="218" on="0"/>
        <pt x="254" y="218" on="0"/>
        <pt x="314" y="197" on="1"/>
        <pt x="314" y="266" on="1"/>
        <pt x="314" y="314" on="0"/>
        <pt x="279" y="328" on="1"/>
        <pt x="252" y="338" on="0"/>
        <pt x="157" y="338" on="0"/>
        <pt x="117" y="322" on="1"/>
        <pt x="117" y="259" on="1"/>
        <pt x="117" y="249" on="0"/>
        <pt x="101" y="236" on="0"/>
        <pt x="79" y="236" on="0"/>
        <pt x="63" y="249" on="0"/>
        <pt x="63" y="259" on="1"/>
        <pt x="63" y="335" on="1"/>
        <pt x="63" y="348" on="0"/>
        <pt x="76" y="355" on="1"/>
        <pt x="125" y="384" on="0"/>
        <pt x="287" y="384" on="0"/>
        <pt x="367" y="331" on="0"/>
        <pt x="367" y="266" on="1"/>
        <pt x="367" y="66" on="1"/>
        <pt x="367" y="47" on="0"/>
      </contour>
      <contour>
        <pt x="250" y="484" on="1"/>
        <pt x="256" y="477" on="0"/>
        <pt x="256" y="464" on="0"/>
        <pt x="246" y="454" on="0"/>
        <pt x="233" y="454" on="0"/>
        <pt x="226" y="460" on="1"/>
        <pt x="164" y="515" on="1"/>
        <pt x="154" y="524" on="0"/>
        <pt x="154" y="540" on="0"/>
        <pt x="170" y="556" on="0"/>
        <pt x="186" y="556" on="0"/>
        <pt x="195" y="546" on="1"/>
      </contour>
    </TTGlyph>
    <TTGlyph name="ampersand" xMin="48" yMin="-11" xMax="506" yMax="618">
      <contour>
        <pt x="154" y="267" on="0"/>
        <pt x="102" y="185" on="0"/>
        <pt x="102" y="91" on="0"/>
        <pt x="167" y="36" on="0"/>
        <pt x="296" y="36" on="0"/>
        <pt x="362" y="98" on="1"/>
        <pt x="270" y="190" on="0"/>
        <pt x="193" y="296" on="1"/>
      </contour>
      <contour>
        <pt x="247" y="572" on="1"/>
        <pt x="214" y="572" on="0"/>
        <pt x="177" y="536" on="0"/>
        <pt x="171" y="506" on="0"/>
        <pt x="171" y="490" on="1"/>
        <pt x="171" y="430" on="0"/>
        <pt x="209" y="363" on="1"/>
        <pt x="249" y="392" on="0"/>
        <pt x="309" y="465" on="0"/>
        <pt x="309" y="497" on="1"/>
        <pt x="309" y="572" on="0"/>
      </contour>
      <contour>
        <pt x="505" y="241" on="1"/>
        <pt x="505" y="237" on="0"/>
        <pt x="504" y="232" on="1"/>
        <pt x="486" y="169" on="0"/>
        <pt x="428" y="99" on="1"/>
        <pt x="499" y="29" on="1"/>
        <pt x="505" y="22" on="0"/>
        <pt x="505" y="2" on="0"/>
        <pt x="488" y="-10" on="0"/>
        <pt x="470" y="-10" on="0"/>
        <pt x="460" y="-1" on="1"/>
        <pt x="393" y="64" on="1"/>
        <pt x="312" y="-10" on="0"/>
        <pt x="142" y="-10" on="0"/>
        <pt x="48" y="70" on="0"/>
        <pt x="48" y="143" on="1"/>
        <pt x="48" y="242" on="0"/>
        <pt x="167" y="333" on="1"/>
        <pt x="117" y="415" on="0"/>
        <pt x="117" y="549" on="0"/>
        <pt x="187" y="618" on="0"/>
        <pt x="302" y="618" on="0"/>
        <pt x="362" y="550" on="0"/>
        <pt x="362" y="495" on="1"/>
        <pt x="362" y="416" on="0"/>
        <pt x="234" y="326" on="1"/>
        <pt x="305" y="227" on="0"/>
        <pt x="394" y="135" on="1"/>
        <pt x="434" y="186" on="0"/>
        <pt x="454" y="246" on="1"/>
        <pt x="458" y="257" on="0"/>
        <pt x="477" y="267" on="0"/>
        <pt x="487" y="263" on="1"/>
        <pt x="505" y="257" on="0"/>
      </contour>
    </TTGlyph>
    <TTGlyph name="apple" xMin="60" yMin="73" xMax="1287" yMax="760">
      <contour>
        <pt x="889" y="488" on="1"/>
        <pt x="894" y="394" on="1"/>
        <pt x="781" y="394" on="1"/>
        <pt x="781" y="554" on="0"/>
        <pt x="789" y="607" on="1"/>
        <pt x="792" y="627" on="1"/>
        <pt x="868" y="627" on="1"/>
        <pt x="874" y="585" on="0"/>
        <pt x="874" y="553" on="1"/>
        <pt x="876" y="563" on="1"/>
        <pt x="894" y="631" on="0"/>
        <pt x="955" y="631" on="1"/>
        <pt x="995" y="631" on="0"/>
        <pt x="1028" y="584" on="0"/>
        <pt x="1029" y="530" on="1"/>
        <pt x="1031" y="394" on="1"/>
        <pt x="919" y="394" on="1"/>
        <pt x="921" y="488" on="1"/>
        <pt x="921" y="513" on="0"/>
        <pt x="906" y="513" on="1"/>
        <pt x="889" y="513" on="0"/>
      </contour>
      <contour>
        <pt x="178" y="394" on="1"/>
        <pt x="62" y="394" on="1"/>
        <pt x="62" y="532" on="0"/>
        <pt x="70" y="662" on="1"/>
        <pt x="73" y="701" on="1"/>
        <pt x="168" y="701" on="1"/>
        <pt x="178" y="564" on="0"/>
      </contour>
      <contour>
        <pt x="1166" y="631" on="1"/>
        <pt x="1235" y="631" on="0"/>
        <pt x="1287" y="565" on="0"/>
        <pt x="1287" y="452" on="0"/>
        <pt x="1226" y="388" on="0"/>
        <pt x="1107" y="388" on="0"/>
        <pt x="1046" y="452" on="0"/>
        <pt x="1046" y="507" on="1"/>
        <pt x="1046" y="631" on="0"/>
      </contour>
      <contour>
        <pt x="1143" y="466" on="0"/>
        <pt x="1190" y="466" on="0"/>
        <pt x="1190" y="523" on="0"/>
        <pt x="1143" y="523" on="0"/>
      </contour>
      <contour>
        <pt x="329" y="631" on="1"/>
        <pt x="445" y="631" on="0"/>
        <pt x="445" y="519" on="1"/>
        <pt x="445" y="394" on="1"/>
        <pt x="369" y="394" on="1"/>
        <pt x="360" y="452" on="1"/>
        <pt x="348" y="388" on="0"/>
        <pt x="286" y="388" on="1"/>
        <pt x="197" y="388" on="0"/>
        <pt x="197" y="500" on="1"/>
        <pt x="197" y="565" on="0"/>
        <pt x="259" y="631" on="0"/>
      </contour>
      <contour>
        <pt x="324" y="466" on="1"/>
        <pt x="348" y="466" on="0"/>
        <pt x="348" y="523" on="0"/>
        <pt x="324" y="523" on="1"/>
        <pt x="303" y="523" on="0"/>
        <pt x="303" y="466" on="0"/>
      </contour>
      <contour>
        <pt x="682" y="363" on="1"/>
        <pt x="717" y="363" on="0"/>
        <pt x="760" y="304" on="0"/>
        <pt x="760" y="185" on="0"/>
        <pt x="694" y="115" on="0"/>
        <pt x="633" y="115" on="1"/>
        <pt x="635" y="100" on="0"/>
        <pt x="635" y="73" on="1"/>
        <pt x="508" y="73" on="1"/>
        <pt x="508" y="212" on="0"/>
        <pt x="516" y="322" on="1"/>
        <pt x="519" y="355" on="1"/>
        <pt x="597" y="355" on="1"/>
        <pt x="604" y="304" on="0"/>
        <pt x="604" y="280" on="1"/>
        <pt x="618" y="363" on="0"/>
      </contour>
      <contour>
        <pt x="656" y="232" on="1"/>
        <pt x="656" y="253" on="0"/>
        <pt x="637" y="253" on="1"/>
        <pt x="614" y="253" on="0"/>
        <pt x="614" y="223" on="1"/>
        <pt x="618" y="196" on="1"/>
        <pt x="632" y="196" on="0"/>
        <pt x="656" y="217" on="0"/>
      </contour>
      <contour>
        <pt x="941" y="189" on="1"/>
        <pt x="963" y="189" on="0"/>
        <pt x="982" y="204" on="1"/>
        <pt x="982" y="131" on="1"/>
        <pt x="961" y="115" on="0"/>
        <pt x="843" y="115" on="0"/>
        <pt x="777" y="180" on="0"/>
        <pt x="777" y="236" on="1"/>
        <pt x="777" y="363" on="0"/>
        <pt x="900" y="363" on="1"/>
        <pt x="952" y="363" on="0"/>
        <pt x="1012" y="302" on="0"/>
        <pt x="1012" y="249" on="1"/>
        <pt x="1007" y="213" on="1"/>
        <pt x="887" y="213" on="1"/>
        <pt x="887" y="189" on="0"/>
      </contour>
      <contour>
        <pt x="881" y="238" on="1"/>
        <pt x="920" y="238" on="1"/>
        <pt x="921" y="241" on="0"/>
        <pt x="921" y="246" on="1"/>
        <pt x="921" y="265" on="0"/>
        <pt x="903" y="265" on="1"/>
        <pt x="881" y="265" on="0"/>
      </contour>
      <contour>
        <pt x="479" y="452" on="1"/>
        <pt x="481" y="538" on="1"/>
        <pt x="458" y="538" on="1"/>
        <pt x="458" y="621" on="1"/>
        <pt x="574" y="657" on="1"/>
        <pt x="578" y="627" on="1"/>
        <pt x="750" y="627" on="1"/>
        <pt x="758" y="564" on="0"/>
        <pt x="758" y="394" on="1"/>
        <pt x="644" y="394" on="1"/>
        <pt x="644" y="504" on="0"/>
        <pt x="646" y="538" on="1"/>
        <pt x="589" y="538" on="1"/>
        <pt x="591" y="475" on="1"/>
        <pt x="593" y="473" on="0"/>
        <pt x="602" y="473" on="1"/>
        <pt x="619" y="477" on="1"/>
        <pt x="619" y="405" on="1"/>
        <pt x="612" y="388" on="0"/>
        <pt x="557" y="388" on="1"/>
        <pt x="479" y="388" on="0"/>
      </contour>
      <contour>
        <pt x="676" y="640" on="0"/>
        <pt x="642" y="675" on="0"/>
        <pt x="642" y="725" on="0"/>
        <pt x="676" y="760" on="0"/>
        <pt x="726" y="760" on="0"/>
        <pt x="760" y="725" on="0"/>
        <pt x="760" y="675" on="0"/>
        <pt x="726" y="640" on="0"/>
      </contour>
      <contour>
        <pt x="85" y="179" on="1"/>
        <pt x="87" y="261" on="1"/>
        <pt x="60" y="261" on="1"/>
        <pt x="60" y="344" on="1"/>
        <pt x="181" y="384" on="1"/>
        <pt x="185" y="355" on="1"/>
        <pt x="350" y="355" on="1"/>
        <pt x="348" y="253" on="0"/>
        <pt x="348" y="249" on="1"/>
        <pt x="348" y="223" on="0"/>
        <pt x="379" y="223" on="0"/>
        <pt x="379" y="249" on="1"/>
        <pt x="377" y="355" on="1"/>
        <pt x="483" y="355" on="1"/>
        <pt x="489" y="297" on="0"/>
        <pt x="489" y="139" on="0"/>
        <pt x="417" y="73" on="0"/>
        <pt x="278" y="73" on="0"/>
        <pt x="246" y="94" on="1"/>
        <pt x="246" y="177" on="1"/>
        <pt x="271" y="158" on="0"/>
        <pt x="347" y="158" on="0"/>
        <pt x="383" y="176" on="0"/>
        <pt x="386" y="185" on="1"/>
        <pt x="390" y="194" on="1"/>
        <pt x="379" y="179" on="0"/>
        <pt x="333" y="179" on="1"/>
        <pt x="240" y="179" on="0"/>
        <pt x="240" y="253" on="1"/>
        <pt x="240" y="261" on="1"/>
        <pt x="195" y="261" on="1"/>
        <pt x="197" y="200" on="1"/>
        <pt x="213" y="200" on="0"/>
        <pt x="225" y="206" on="1"/>
        <pt x="225" y="132" on="1"/>
        <pt x="207" y="115" on="0"/>
        <pt x="158" y="115" on="1"/>
        <pt x="85" y="115" on="0"/>
      </contour>
      <contour>
        <pt x="1089" y="327" on="1"/>
        <pt x="1089" y="318" on="0"/>
        <pt x="1081" y="315" on="1"/>
        <pt x="1089" y="302" on="1"/>
        <pt x="1080" y="302" on="1"/>
        <pt x="1073" y="313" on="1"/>
        <pt x="1066" y="313" on="1"/>
        <pt x="1066" y="302" on="1"/>
        <pt x="1058" y="302" on="1"/>
        <pt x="1058" y="339" on="1"/>
        <pt x="1074" y="339" on="1"/>
        <pt x="1089" y="339" on="0"/>
      </contour>
      <contour>
        <pt x="1081" y="320" on="0"/>
        <pt x="1081" y="332" on="0"/>
        <pt x="1074" y="332" on="1"/>
        <pt x="1066" y="332" on="1"/>
        <pt x="1066" y="320" on="1"/>
        <pt x="1074" y="320" on="1"/>
      </contour>
      <contour>
        <pt x="1035" y="305" on="0"/>
        <pt x="1035" y="335" on="0"/>
        <pt x="1057" y="357" on="0"/>
        <pt x="1087" y="357" on="0"/>
        <pt x="1109" y="335" on="0"/>
        <pt x="1109" y="305" on="0"/>
        <pt x="1087" y="283" on="0"/>
        <pt x="1057" y="283" on="0"/>
      </contour>
      <contour>
        <pt x="1042" y="332" on="0"/>
        <pt x="1042" y="308" on="0"/>
        <pt x="1060" y="290" on="0"/>
        <pt x="1084" y="290" on="0"/>
        <pt x="1102" y="308" on="0"/>
        <pt x="1102" y="332" on="0"/>
        <pt x="1084" y="350" on="0"/>
        <pt x="1060" y="350" on="0"/>
      </contour>
    </TTGlyph>
    <TTGlyph name="aring" xMin="42" yMin="-10" xMax="456" yMax="567">
      <contour>
        <pt x="155" y="173" on="0"/>
        <pt x="96" y="137" on="0"/>
        <pt x="96" y="72" on="0"/>
        <pt x="134" y="36" on="0"/>
        <pt x="167" y="36" on="1"/>
        <pt x="259" y="36" on="0"/>
        <pt x="314" y="136" on="1"/>
        <pt x="314" y="155" on="1"/>
        <pt x="248" y="173" on="0"/>
      </contour>
      <contour>
        <pt x="433" y="47" on="1"/>
        <pt x="443" y="47" on="0"/>
        <pt x="456" y="33" on="0"/>
        <pt x="456" y="13" on="0"/>
        <pt x="443" y="0" on="0"/>
        <pt x="433" y="0" on="1"/>
        <pt x="389" y="0" on="1"/>
        <pt x="353" y="0" on="0"/>
        <pt x="314" y="32" on="0"/>
        <pt x="314" y="61" on="1"/>
        <pt x="314" y="66" on="0"/>
        <pt x="315" y="72" on="1"/>
        <pt x="262" y="-10" on="0"/>
        <pt x="161" y="-10" on="1"/>
        <pt x="105" y="-10" on="0"/>
        <pt x="42" y="50" on="0"/>
        <pt x="42" y="157" on="0"/>
        <pt x="127" y="218" on="0"/>
        <pt x="254" y="218" on="0"/>
        <pt x="314" y="197" on="1"/>
        <pt x="314" y="266" on="1"/>
        <pt x="314" y="314" on="0"/>
        <pt x="279" y="328" on="1"/>
        <pt x="262" y="334" on="0"/>
        <pt x="231" y="338" on="0"/>
        <pt x="157" y="338" on="0"/>
        <pt x="117" y="322" on="1"/>
        <pt x="117" y="259" on="1"/>
        <pt x="117" y="249" on="0"/>
        <pt x="101" y="236" on="0"/>
        <pt x="79" y="236" on="0"/>
        <pt x="63" y="249" on="0"/>
        <pt x="63" y="259" on="1"/>
        <pt x="63" y="335" on="1"/>
        <pt x="63" y="348" on="0"/>
        <pt x="76" y="355" on="1"/>
        <pt x="125" y="384" on="0"/>
        <pt x="287" y="384" on="0"/>
        <pt x="367" y="331" on="0"/>
        <pt x="367" y="266" on="1"/>
        <pt x="367" y="66" on="1"/>
        <pt x="367" y="47" on="0"/>
        <pt x="394" y="47" on="1"/>
      </contour>
      <contour>
        <pt x="141" y="472" on="0"/>
        <pt x="141" y="530" on="0"/>
        <pt x="180" y="567" on="0"/>
        <pt x="242" y="567" on="0"/>
        <pt x="282" y="530" on="0"/>
        <pt x="282" y="472" on="0"/>
        <pt x="242" y="435" on="0"/>
        <pt x="180" y="435" on="0"/>
      </contour>
      <contour>
        <pt x="179" y="517" on="0"/>
        <pt x="179" y="485" on="0"/>
        <pt x="198" y="468" on="0"/>
        <pt x="224" y="468" on="0"/>
        <pt x="244" y="485" on="0"/>
        <pt x="244" y="517" on="0"/>
        <pt x="224" y="534" on="0"/>
        <pt x="198" y="534" on="0"/>
      </contour>
    </TTGlyph>
    <TTGlyph name="asciicircum" xMin="3" yMin="370" xMax="215" yMax="546">
      <contour>
        <pt x="35" y="380" on="1"/>
        <pt x="29" y="371" on="0"/>
        <pt x="15" y="371" on="0"/>
        <pt x="4" y="381" on="0"/>
        <pt x="4" y="393" on="0"/>
        <pt x="8" y="400" on="1"/>
        <pt x="87" y="534" on="1"/>
        <pt x="95" y="546" on="0"/>
        <pt x="124" y="546" on="0"/>
        <pt x="131" y="534" on="1"/>
        <pt x="210" y="400" on="1"/>
        <pt x="214" y="393" on="0"/>
        <pt x="214" y="381" on="0"/>
        <pt x="203" y="371" on="0"/>
        <pt x="189" y="371" on="0"/>
        <pt x="183" y="380" on="1"/>
        <pt x="109" y="490" on="1"/>
      </contour>
    </TTGlyph>
    <TTGlyph name="asciitilde" xMin="59" yMin="160" xMax="501" yMax="290">
      <contour>
        <pt x="110" y="182" on="1"/>
        <pt x="110" y="160" on="0"/>
        <pt x="59" y="160" on="0"/>
        <pt x="59" y="182" on="1"/>
        <pt x="59" y="229" on="0"/>
        <pt x="117" y="289" on="0"/>
        <pt x="213" y="289" on="0"/>
        <pt x="290" y="248" on="0"/>
        <pt x="359" y="207" on="0"/>
        <pt x="422" y="207" on="0"/>
        <pt x="450" y="242" on="0"/>
        <pt x="450" y="267" on="1"/>
        <pt x="450" y="290" on="0"/>
        <pt x="501" y="290" on="0"/>
        <pt x="501" y="267" on="1"/>
        <pt x="501" y="219" on="0"/>
        <pt x="442" y="161" on="0"/>
        <pt x="347" y="161" on="0"/>
        <pt x="269" y="202" on="0"/>
        <pt x="201" y="243" on="0"/>
        <pt x="139" y="243" on="0"/>
        <pt x="110" y="207" on="0"/>
      </contour>
    </TTGlyph>
    <TTGlyph name="asterisk" xMin="42" yMin="405" xMax="360" yMax="760">
      <contour>
        <pt x="178" y="737" on="1"/>
        <pt x="178" y="747" on="0"/>
        <pt x="192" y="760" on="0"/>
        <pt x="212" y="760" on="0"/>
        <pt x="225" y="747" on="0"/>
        <pt x="225" y="737" on="1"/>
        <pt x="225" y="622" on="1"/>
        <pt x="324" y="679" on="1"/>
        <pt x="331" y="682" on="0"/>
        <pt x="348" y="682" on="0"/>
        <pt x="359" y="664" on="0"/>
        <pt x="359" y="659" on="1"/>
        <pt x="359" y="645" on="0"/>
        <pt x="348" y="638" on="1"/>
        <pt x="249" y="582" on="1"/>
        <pt x="347" y="527" on="1"/>
        <pt x="360" y="519" on="0"/>
        <pt x="360" y="503" on="0"/>
        <pt x="355" y="496" on="1"/>
        <pt x="348" y="482" on="0"/>
        <pt x="331" y="482" on="0"/>
        <pt x="324" y="486" on="1"/>
        <pt x="225" y="542" on="1"/>
        <pt x="225" y="428" on="1"/>
        <pt x="225" y="418" on="0"/>
        <pt x="212" y="405" on="0"/>
        <pt x="192" y="405" on="0"/>
        <pt x="178" y="418" on="0"/>
        <pt x="178" y="428" on="1"/>
        <pt x="178" y="541" on="1"/>
        <pt x="79" y="485" on="1"/>
        <pt x="72" y="481" on="0"/>
        <pt x="54" y="481" on="0"/>
        <pt x="44" y="502" on="0"/>
        <pt x="44" y="518" on="0"/>
        <pt x="56" y="526" on="1"/>
        <pt x="154" y="582" on="1"/>
        <pt x="55" y="639" on="1"/>
        <pt x="42" y="646" on="0"/>
        <pt x="42" y="663" on="0"/>
        <pt x="52" y="679" on="0"/>
        <pt x="70" y="684" on="0"/>
        <pt x="78" y="679" on="1"/>
        <pt x="178" y="622" on="1"/>
      </contour>
    </TTGlyph>
    <TTGlyph name="at" xMin="42" yMin="-228" xMax="844" yMax="618">
      <contour>
        <pt x="441" y="-228" on="1"/>
        <pt x="260" y="-228" on="0"/>
        <pt x="42" y="9" on="0"/>
        <pt x="42" y="379" on="0"/>
        <pt x="263" y="618" on="0"/>
        <pt x="626" y="618" on="0"/>
        <pt x="844" y="378" on="0"/>
        <pt x="844" y="195" on="1"/>
        <pt x="844" y="102" on="0"/>
        <pt x="743" y="-31" on="0"/>
        <pt x="662" y="-31" on="1"/>
        <pt x="559" y="-31" on="0"/>
        <pt x="559" y="64" on="1"/>
        <pt x="538" y="34" on="0"/>
        <pt x="458" y="-10" on="0"/>
        <pt x="417" y="-10" on="1"/>
        <pt x="329" y="-10" on="0"/>
        <pt x="245" y="100" on="0"/>
        <pt x="245" y="274" on="0"/>
        <pt x="341" y="384" on="0"/>
        <pt x="499" y="384" on="0"/>
        <pt x="557" y="331" on="1"/>
        <pt x="557" y="361" on="1"/>
        <pt x="557" y="371" on="0"/>
        <pt x="573" y="384" on="0"/>
        <pt x="595" y="384" on="0"/>
        <pt x="611" y="371" on="0"/>
        <pt x="611" y="361" on="1"/>
        <pt x="611" y="65" on="1"/>
        <pt x="611" y="43" on="0"/>
        <pt x="637" y="15" on="0"/>
        <pt x="662" y="15" on="1"/>
        <pt x="718" y="15" on="0"/>
        <pt x="790" y="118" on="0"/>
        <pt x="790" y="195" on="1"/>
        <pt x="790" y="363" on="0"/>
        <pt x="595" y="572" on="0"/>
        <pt x="288" y="572" on="0"/>
        <pt x="96" y="363" on="0"/>
        <pt x="96" y="26" on="0"/>
        <pt x="288" y="-182" on="0"/>
        <pt x="441" y="-182" on="1"/>
        <pt x="559" y="-182" on="0"/>
        <pt x="651" y="-117" on="1"/>
        <pt x="658" y="-112" on="0"/>
        <pt x="674" y="-112" on="0"/>
        <pt x="689" y="-131" on="0"/>
        <pt x="690" y="-150" on="0"/>
        <pt x="683" y="-155" on="1"/>
        <pt x="580" y="-228" on="0"/>
      </contour>
      <contour>
        <pt x="423" y="338" on="1"/>
        <pt x="366" y="338" on="0"/>
        <pt x="298" y="255" on="0"/>
        <pt x="298" y="116" on="0"/>
        <pt x="358" y="36" on="0"/>
        <pt x="418" y="36" on="1"/>
        <pt x="457" y="36" on="0"/>
        <pt x="532" y="84" on="0"/>
        <pt x="557" y="129" on="1"/>
        <pt x="557" y="278" on="1"/>
        <pt x="495" y="338" on="0"/>
      </contour>
    </TTGlyph>
    <TTGlyph name="atilde" xMin="42" yMin="-10" xMax="456" yMax="543">
      <contour>
        <pt x="314" y="155" on="1"/>
        <pt x="248" y="173" on="0"/>
        <pt x="155" y="173" on="0"/>
        <pt x="96" y="137" on="0"/>
        <pt x="96" y="72" on="0"/>
        <pt x="134" y="36" on="0"/>
        <pt x="167" y="36" on="1"/>
        <pt x="259" y="36" on="0"/>
        <pt x="314" y="136" on="1"/>
      </contour>
      <contour>
        <pt x="394" y="47" on="1"/>
        <pt x="433" y="47" on="1"/>
        <pt x="443" y="47" on="0"/>
        <pt x="456" y="33" on="0"/>
        <pt x="456" y="13" on="0"/>
        <pt x="443" y="0" on="0"/>
        <pt x="433" y="0" on="1"/>
        <pt x="389" y="0" on="1"/>
        <pt x="353" y="0" on="0"/>
        <pt x="314" y="32" on="0"/>
        <pt x="314" y="61" on="1"/>
        <pt x="314" y="66" on="0"/>
        <pt x="315" y="72" on="1"/>
        <pt x="262" y="-10" on="0"/>
        <pt x="161" y="-10" on="1"/>
        <pt x="105" y="-10" on="0"/>
        <pt x="42" y="50" on="0"/>
        <pt x="42" y="157" on="0"/>
        <pt x="127" y="218" on="0"/>
        <pt x="254" y="218" on="0"/>
        <pt x="314" y="197" on="1"/>
        <pt x="314" y="266" on="1"/>
        <pt x="314" y="314" on="0"/>
        <pt x="279" y="328" on="1"/>
        <pt x="252" y="338" on="0"/>
        <pt x="157" y="338" on="0"/>
        <pt x="117" y="322" on="1"/>
        <pt x="117" y="259" on="1"/>
        <pt x="117" y="249" on="0"/>
        <pt x="101" y="236" on="0"/>
        <pt x="79" y="236" on="0"/>
        <pt x="63" y="249" on="0"/>
        <pt x="63" y="259" on="1"/>
        <pt x="63" y="335" on="1"/>
        <pt x="63" y="348" on="0"/>
        <pt x="76" y="355" on="1"/>
        <pt x="125" y="384" on="0"/>
        <pt x="287" y="384" on="0"/>
        <pt x="367" y="331" on="0"/>
        <pt x="367" y="266" on="1"/>
        <pt x="367" y="66" on="1"/>
        <pt x="367" y="47" on="0"/>
      </contour>
      <contour>
        <pt x="148" y="499" on="1"/>
        <pt x="127" y="499" on="0"/>
        <pt x="127" y="454" on="0"/>
        <pt x="81" y="454" on="0"/>
        <pt x="81" y="506" on="0"/>
        <pt x="117" y="543" on="0"/>
        <pt x="179" y="543" on="0"/>
        <pt x="254" y="499" on="0"/>
        <pt x="266" y="499" on="1"/>
        <pt x="286" y="499" on="0"/>
        <pt x="286" y="543" on="0"/>
        <pt x="332" y="543" on="0"/>
        <pt x="332" y="492" on="0"/>
        <pt x="296" y="456" on="0"/>
        <pt x="235" y="456" on="0"/>
        <pt x="163" y="499" on="0"/>
      </contour>
    </TTGlyph>
    <TTGlyph name="b" xMin="-22" yMin="-10" xMax="433" yMax="750">
      <contour>
        <pt x="121" y="96" on="1"/>
        <pt x="187" y="36" on="0"/>
        <pt x="312" y="36" on="0"/>
        <pt x="380" y="120" on="0"/>
        <pt x="380" y="258" on="0"/>
        <pt x="313" y="338" on="0"/>
        <pt x="255" y="338" on="1"/>
        <pt x="173" y="338" on="0"/>
        <pt x="121" y="245" on="1"/>
      </contour>
      <contour>
        <pt x="67" y="703" on="1"/>
        <pt x="1" y="703" on="1"/>
        <pt x="-9" y="703" on="0"/>
        <pt x="-22" y="716" on="0"/>
        <pt x="-22" y="736" on="0"/>
        <pt x="-9" y="750" on="0"/>
        <pt x="1" y="750" on="1"/>
        <pt x="94" y="750" on="1"/>
        <pt x="104" y="750" on="0"/>
        <pt x="121" y="736" on="0"/>
        <pt x="121" y="726" on="1"/>
        <pt x="121" y="308" on="1"/>
        <pt x="172" y="384" on="0"/>
        <pt x="342" y="384" on="0"/>
        <pt x="433" y="276" on="0"/>
        <pt x="433" y="100" on="0"/>
        <pt x="339" y="-10" on="0"/>
        <pt x="183" y="-10" on="0"/>
        <pt x="121" y="47" on="1"/>
        <pt x="121" y="13" on="1"/>
        <pt x="121" y="3" on="0"/>
        <pt x="105" y="-10" on="0"/>
        <pt x="83" y="-10" on="0"/>
        <pt x="67" y="3" on="0"/>
        <pt x="67" y="13" on="1"/>
      </contour>
    </TTGlyph>
    <TTGlyph name="backslash" xMin="30" yMin="-5" xMax="354" yMax="612">
      <contour>
        <pt x="32" y="579" on="1"/>
        <pt x="30" y="583" on="0"/>
        <pt x="30" y="588" on="1"/>
        <pt x="30" y="602" on="0"/>
        <pt x="47" y="609" on="1"/>
        <pt x="54" y="611" on="0"/>
        <pt x="72" y="611" on="0"/>
        <pt x="79" y="598" on="1"/>
        <pt x="352" y="27" on="1"/>
        <pt x="354" y="23" on="0"/>
        <pt x="354" y="18" on="1"/>
        <pt x="354" y="4" on="0"/>
        <pt x="337" y="-3" on="1"/>
        <pt x="331" y="-5" on="0"/>
        <pt x="311" y="-5" on="0"/>
        <pt x="304" y="10" on="1"/>
      </contour>
    </TTGlyph>
    <TTGlyph name="bar" xMin="81" yMin="-229" xMax="135" yMax="760">
      <contour>
        <pt x="135" y="737" on="1"/>
        <pt x="135" y="-206" on="1"/>
        <pt x="135" y="-216" on="0"/>
        <pt x="119" y="-229" on="0"/>
        <pt x="97" y="-229" on="0"/>
        <pt x="81" y="-216" on="0"/>
        <pt x="81" y="-206" on="1"/>
        <pt x="81" y="737" on="1"/>
        <pt x="81" y="747" on="0"/>
        <pt x="97" y="760" on="0"/>
        <pt x="119" y="760" on="0"/>
        <pt x="135" y="747" on="0"/>
      </contour>
    </TTGlyph>
    <TTGlyph name="braceleft" xMin="41" yMin="-125" xMax="274" yMax="664">
      <contour>
        <pt x="41" y="278" on="0"/>
        <pt x="54" y="292" on="0"/>
        <pt x="86" y="292" on="0"/>
        <pt x="122" y="311" on="0"/>
        <pt x="122" y="345" on="0"/>
        <pt x="55" y="462" on="0"/>
        <pt x="55" y="508" on="1"/>
        <pt x="55" y="579" on="0"/>
        <pt x="152" y="664" on="0"/>
        <pt x="224" y="664" on="1"/>
        <pt x="251" y="664" on="1"/>
        <pt x="261" y="664" on="0"/>
        <pt x="274" y="650" on="0"/>
        <pt x="274" y="630" on="0"/>
        <pt x="261" y="617" on="0"/>
        <pt x="251" y="617" on="1"/>
        <pt x="225" y="617" on="1"/>
        <pt x="172" y="617" on="0"/>
        <pt x="108" y="556" on="0"/>
        <pt x="108" y="469" on="0"/>
        <pt x="175" y="359" on="0"/>
        <pt x="175" y="330" on="1"/>
        <pt x="175" y="288" on="0"/>
        <pt x="136" y="269" on="1"/>
        <pt x="175" y="249" on="0"/>
        <pt x="175" y="180" on="0"/>
        <pt x="108" y="67" on="0"/>
        <pt x="108" y="-17" on="0"/>
        <pt x="172" y="-78" on="0"/>
        <pt x="225" y="-78" on="1"/>
        <pt x="247" y="-78" on="1"/>
        <pt x="257" y="-78" on="0"/>
        <pt x="270" y="-92" on="0"/>
        <pt x="270" y="-112" on="0"/>
        <pt x="257" y="-125" on="0"/>
        <pt x="247" y="-125" on="1"/>
        <pt x="224" y="-125" on="1"/>
        <pt x="149" y="-125" on="0"/>
        <pt x="55" y="-39" on="0"/>
        <pt x="55" y="31" on="1"/>
        <pt x="55" y="83" on="0"/>
        <pt x="105" y="165" on="1"/>
        <pt x="122" y="193" on="0"/>
        <pt x="122" y="228" on="0"/>
        <pt x="85" y="246" on="0"/>
        <pt x="54" y="246" on="0"/>
        <pt x="41" y="258" on="0"/>
      </contour>
    </TTGlyph>
    <TTGlyph name="braceright" xMin="26" yMin="-125" xMax="259" yMax="664">
      <contour>
        <pt x="178" y="311" on="0"/>
        <pt x="214" y="292" on="0"/>
        <pt x="246" y="292" on="0"/>
        <pt x="259" y="278" on="0"/>
        <pt x="259" y="258" on="0"/>
        <pt x="246" y="246" on="0"/>
        <pt x="215" y="246" on="0"/>
        <pt x="178" y="228" on="0"/>
        <pt x="178" y="193" on="0"/>
        <pt x="195" y="165" on="1"/>
        <pt x="245" y="83" on="0"/>
        <pt x="245" y="31" on="1"/>
        <pt x="245" y="-39" on="0"/>
        <pt x="151" y="-125" on="0"/>
        <pt x="76" y="-125" on="1"/>
        <pt x="53" y="-125" on="1"/>
        <pt x="43" y="-125" on="0"/>
        <pt x="30" y="-112" on="0"/>
        <pt x="30" y="-92" on="0"/>
        <pt x="43" y="-78" on="0"/>
        <pt x="53" y="-78" on="1"/>
        <pt x="75" y="-78" on="1"/>
        <pt x="128" y="-78" on="0"/>
        <pt x="192" y="-17" on="0"/>
        <pt x="192" y="67" on="0"/>
        <pt x="125" y="180" on="0"/>
        <pt x="125" y="249" on="0"/>
        <pt x="164" y="269" on="1"/>
        <pt x="125" y="288" on="0"/>
        <pt x="125" y="330" on="1"/>
        <pt x="125" y="359" on="0"/>
        <pt x="192" y="469" on="0"/>
        <pt x="192" y="556" on="0"/>
        <pt x="128" y="617" on="0"/>
        <pt x="75" y="617" on="1"/>
        <pt x="49" y="617" on="1"/>
        <pt x="39" y="617" on="0"/>
        <pt x="26" y="630" on="0"/>
        <pt x="26" y="650" on="0"/>
        <pt x="39" y="664" on="0"/>
        <pt x="49" y="664" on="1"/>
        <pt x="76" y="664" on="1"/>
        <pt x="148" y="664" on="0"/>
        <pt x="245" y="579" on="0"/>
        <pt x="245" y="508" on="1"/>
        <pt x="245" y="462" on="0"/>
        <pt x="178" y="345" on="0"/>
      </contour>
    </TTGlyph>
    <TTGlyph name="bracketleft" xMin="85" yMin="-102" xMax="260" yMax="608">
      <contour>
        <pt x="138" y="561" on="1"/>
        <pt x="138" y="-55" on="1"/>
        <pt x="237" y="-55" on="1"/>
        <pt x="247" y="-55" on="0"/>
        <pt x="260" y="-68" on="0"/>
        <pt x="260" y="-88" on="0"/>
        <pt x="247" y="-102" on="0"/>
        <pt x="237" y="-102" on="1"/>
        <pt x="111" y="-102" on="1"/>
        <pt x="85" y="-102" on="0"/>
        <pt x="85" y="-79" on="1"/>
        <pt x="85" y="585" on="1"/>
        <pt x="85" y="608" on="0"/>
        <pt x="111" y="608" on="1"/>
        <pt x="237" y="608" on="1"/>
        <pt x="247" y="608" on="0"/>
        <pt x="260" y="594" on="0"/>
        <pt x="260" y="574" on="0"/>
        <pt x="247" y="561" on="0"/>
        <pt x="237" y="561" on="1"/>
      </contour>
    </TTGlyph>
    <TTGlyph name="bracketright" xMin="29" yMin="-102" xMax="204" yMax="608">
      <contour>
        <pt x="151" y="-55" on="1"/>
        <pt x="151" y="561" on="1"/>
        <pt x="52" y="561" on="1"/>
        <pt x="42" y="561" on="0"/>
        <pt x="29" y="574" on="0"/>
        <pt x="29" y="594" on="0"/>
        <pt x="42" y="608" on="0"/>
        <pt x="52" y="608" on="1"/>
        <pt x="178" y="608" on="1"/>
        <pt x="204" y="608" on="0"/>
        <pt x="204" y="585" on="1"/>
        <pt x="204" y="-79" on="1"/>
        <pt x="204" y="-102" on="0"/>
        <pt x="178" y="-102" on="1"/>
        <pt x="52" y="-102" on="1"/>
        <pt x="42" y="-102" on="0"/>
        <pt x="29" y="-88" on="0"/>
        <pt x="29" y="-68" on="0"/>
        <pt x="42" y="-55" on="0"/>
        <pt x="52" y="-55" on="1"/>
      </contour>
    </TTGlyph>
    <TTGlyph name="breve" xMin="30" yMin="453" xMax="194" yMax="553">
      <contour>
        <pt x="153" y="513" on="0"/>
        <pt x="153" y="553" on="0"/>
        <pt x="194" y="553" on="0"/>
        <pt x="194" y="533" on="1"/>
        <pt x="194" y="497" on="0"/>
        <pt x="147" y="453" on="0"/>
        <pt x="75" y="453" on="0"/>
        <pt x="30" y="497" on="0"/>
        <pt x="30" y="533" on="1"/>
        <pt x="30" y="553" on="0"/>
        <pt x="71" y="553" on="0"/>
        <pt x="71" y="514" on="0"/>
        <pt x="94" y="489" on="0"/>
        <pt x="130" y="489" on="0"/>
      </contour>
    </TTGlyph>
    <TTGlyph name="brokenbar" xMin="84" yMin="-178" xMax="138" yMax="698">
      <contour>
        <pt x="138" y="675" on="1"/>
        <pt x="138" y="359" on="1"/>
        <pt x="138" y="349" on="0"/>
        <pt x="122" y="336" on="0"/>
        <pt x="100" y="336" on="0"/>
        <pt x="84" y="349" on="0"/>
        <pt x="84" y="359" on="1"/>
        <pt x="84" y="675" on="1"/>
        <pt x="84" y="685" on="0"/>
        <pt x="100" y="698" on="0"/>
        <pt x="122" y="698" on="0"/>
        <pt x="138" y="685" on="0"/>
      </contour>
      <contour>
        <pt x="138" y="161" on="1"/>
        <pt x="138" y="-155" on="1"/>
        <pt x="138" y="-165" on="0"/>
        <pt x="122" y="-178" on="0"/>
        <pt x="100" y="-178" on="0"/>
        <pt x="84" y="-165" on="0"/>
        <pt x="84" y="-155" on="1"/>
        <pt x="84" y="161" on="1"/>
        <pt x="84" y="171" on="0"/>
        <pt x="100" y="184" on="0"/>
        <pt x="122" y="184" on="0"/>
        <pt x="138" y="171" on="0"/>
      </contour>
    </TTGlyph>
    <TTGlyph name="bullet" xMin="84" yMin="282" xMax="217" yMax="412">
      <contour>
        <pt x="84" y="317" on="0"/>
        <pt x="84" y="375" on="0"/>
        <pt x="122" y="412" on="0"/>
        <pt x="178" y="412" on="0"/>
        <pt x="217" y="375" on="0"/>
        <pt x="217" y="317" on="0"/>
        <pt x="178" y="282" on="0"/>
        <pt x="122" y="282" on="0"/>
      </contour>
    </TTGlyph>
    <TTGlyph name="c" xMin="42" yMin="-10" xMax="394" yMax="384">
      <contour>
        <pt x="346" y="96" on="1"/>
        <pt x="354" y="108" on="0"/>
        <pt x="371" y="108" on="0"/>
        <pt x="380" y="104" on="1"/>
        <pt x="394" y="98" on="0"/>
        <pt x="394" y="77" on="0"/>
        <pt x="391" y="72" on="1"/>
        <pt x="340" y="-10" on="0"/>
        <pt x="229" y="-10" on="1"/>
        <pt x="144" y="-10" on="0"/>
        <pt x="42" y="105" on="0"/>
        <pt x="42" y="273" on="0"/>
        <pt x="149" y="384" on="0"/>
        <pt x="308" y="384" on="0"/>
        <pt x="367" y="347" on="1"/>
        <pt x="379" y="339" on="0"/>
        <pt x="379" y="328" on="1"/>
        <pt x="379" y="244" on="1"/>
        <pt x="379" y="234" on="0"/>
        <pt x="363" y="221" on="0"/>
        <pt x="341" y="221" on="0"/>
        <pt x="325" y="234" on="0"/>
        <pt x="325" y="244" on="1"/>
        <pt x="325" y="315" on="1"/>
        <pt x="285" y="338" on="0"/>
        <pt x="173" y="338" on="0"/>
        <pt x="95" y="254" on="0"/>
        <pt x="95" y="121" on="0"/>
        <pt x="170" y="36" on="0"/>
        <pt x="229" y="36" on="1"/>
        <pt x="307" y="36" on="0"/>
      </contour>
    </TTGlyph>
    <TTGlyph name="caron" xMin="29" yMin="448" xMax="173" yMax="546">
      <contour>
        <pt x="166" y="541" on="1"/>
        <pt x="172" y="535" on="0"/>
        <pt x="172" y="523" on="0"/>
        <pt x="167" y="517" on="1"/>
        <pt x="123" y="459" on="1"/>
        <pt x="115" y="448" on="0"/>
        <pt x="87" y="448" on="0"/>
        <pt x="79" y="459" on="1"/>
        <pt x="35" y="517" on="1"/>
        <pt x="30" y="523" on="0"/>
        <pt x="30" y="535" on="0"/>
        <pt x="41" y="545" on="0"/>
        <pt x="47" y="545" on="1"/>
        <pt x="62" y="537" on="1"/>
        <pt x="101" y="496" on="1"/>
        <pt x="140" y="537" on="1"/>
        <pt x="148" y="545" on="0"/>
        <pt x="155" y="545" on="1"/>
      </contour>
    </TTGlyph>
    <TTGlyph name="ccedilla" xMin="42" yMin="-183" xMax="394" yMax="384">
      <contour>
        <pt x="322" y="-141" on="0"/>
        <pt x="266" y="-183" on="0"/>
        <pt x="187" y="-183" on="0"/>
        <pt x="126" y="-154" on="0"/>
        <pt x="126" y="-116" on="0"/>
        <pt x="146" y="-116" on="1"/>
        <pt x="149" y="-116" on="0"/>
        <pt x="198" y="-139" on="0"/>
        <pt x="241" y="-139" on="0"/>
        <pt x="268" y="-122" on="0"/>
        <pt x="268" y="-107" on="1"/>
        <pt x="268" y="-72" on="0"/>
        <pt x="210" y="-72" on="1"/>
        <pt x="188" y="-72" on="0"/>
        <pt x="188" y="-54" on="1"/>
        <pt x="188" y="-46" on="0"/>
        <pt x="194" y="-36" on="1"/>
        <pt x="207" y="-9" on="1"/>
        <pt x="131" y="-1" on="0"/>
        <pt x="42" y="111" on="0"/>
        <pt x="42" y="273" on="0"/>
        <pt x="149" y="384" on="0"/>
        <pt x="308" y="384" on="0"/>
        <pt x="367" y="347" on="1"/>
        <pt x="379" y="339" on="0"/>
        <pt x="379" y="328" on="1"/>
        <pt x="379" y="244" on="1"/>
        <pt x="379" y="234" on="0"/>
        <pt x="363" y="221" on="0"/>
        <pt x="341" y="221" on="0"/>
        <pt x="325" y="234" on="0"/>
        <pt x="325" y="244" on="1"/>
        <pt x="325" y="315" on="1"/>
        <pt x="285" y="338" on="0"/>
        <pt x="173" y="338" on="0"/>
        <pt x="95" y="254" on="0"/>
        <pt x="95" y="121" on="0"/>
        <pt x="170" y="36" on="0"/>
        <pt x="229" y="36" on="1"/>
        <pt x="307" y="36" on="0"/>
        <pt x="346" y="96" on="1"/>
        <pt x="354" y="108" on="0"/>
        <pt x="371" y="108" on="0"/>
        <pt x="380" y="104" on="1"/>
        <pt x="394" y="98" on="0"/>
        <pt x="394" y="77" on="0"/>
        <pt x="391" y="72" on="1"/>
        <pt x="349" y="5" on="0"/>
        <pt x="266" y="-7" on="1"/>
        <pt x="253" y="-38" on="1"/>
        <pt x="285" y="-42" on="0"/>
        <pt x="322" y="-81" on="0"/>
      </contour>
    </TTGlyph>
    <TTGlyph name="cedilla" xMin="30" yMin="-183" xMax="226" yMax="3">
      <contour>
        <pt x="226" y="-141" on="0"/>
        <pt x="170" y="-183" on="0"/>
        <pt x="91" y="-183" on="0"/>
        <pt x="30" y="-154" on="0"/>
        <pt x="30" y="-116" on="0"/>
        <pt x="50" y="-116" on="1"/>
        <pt x="53" y="-116" on="0"/>
        <pt x="102" y="-139" on="0"/>
        <pt x="145" y="-139" on="0"/>
        <pt x="172" y="-122" on="0"/>
        <pt x="172" y="-107" on="1"/>
        <pt x="172" y="-72" on="0"/>
        <pt x="114" y="-72" on="1"/>
        <pt x="92" y="-72" on="0"/>
        <pt x="92" y="-54" on="1"/>
        <pt x="92" y="-46" on="0"/>
        <pt x="98" y="-36" on="1"/>
        <pt x="117" y="3" on="1"/>
        <pt x="175" y="3" on="1"/>
        <pt x="157" y="-38" on="1"/>
        <pt x="189" y="-42" on="0"/>
        <pt x="226" y="-81" on="0"/>
      </contour>
    </TTGlyph>
    <TTGlyph name="cent" xMin="44" yMin="-128" xMax="396" yMax="502">
      <contour>
        <pt x="348" y="96" on="1"/>
        <pt x="355" y="108" on="0"/>
        <pt x="364" y="108" on="1"/>
        <pt x="388" y="108" on="0"/>
        <pt x="394" y="90" on="1"/>
        <pt x="396" y="86" on="0"/>
        <pt x="396" y="77" on="0"/>
        <pt x="393" y="72" on="1"/>
        <pt x="348" y="1" on="0"/>
        <pt x="258" y="-8" on="1"/>
        <pt x="258" y="-105" on="1"/>
        <pt x="258" y="-115" on="0"/>
        <pt x="242" y="-128" on="0"/>
        <pt x="220" y="-128" on="0"/>
        <pt x="204" y="-115" on="0"/>
        <pt x="204" y="-105" on="1"/>
        <pt x="204" y="-8" on="1"/>
        <pt x="130" y="1" on="0"/>
        <pt x="44" y="112" on="0"/>
        <pt x="44" y="265" on="0"/>
        <pt x="132" y="370" on="0"/>
        <pt x="204" y="381" on="1"/>
        <pt x="204" y="479" on="1"/>
        <pt x="204" y="489" on="0"/>
        <pt x="220" y="502" on="0"/>
        <pt x="242" y="502" on="0"/>
        <pt x="258" y="489" on="0"/>
        <pt x="258" y="479" on="1"/>
        <pt x="258" y="383" on="1"/>
        <pt x="322" y="377" on="0"/>
        <pt x="369" y="347" on="1"/>
        <pt x="381" y="339" on="0"/>
        <pt x="381" y="328" on="1"/>
        <pt x="381" y="244" on="1"/>
        <pt x="381" y="234" on="0"/>
        <pt x="365" y="221" on="0"/>
        <pt x="343" y="221" on="0"/>
        <pt x="327" y="234" on="0"/>
        <pt x="327" y="244" on="1"/>
        <pt x="327" y="315" on="1"/>
        <pt x="295" y="332" on="0"/>
        <pt x="258" y="337" on="1"/>
        <pt x="258" y="38" on="1"/>
        <pt x="315" y="47" on="0"/>
      </contour>
      <contour>
        <pt x="156" y="323" on="0"/>
        <pt x="97" y="245" on="0"/>
        <pt x="97" y="129" on="0"/>
        <pt x="156" y="49" on="0"/>
        <pt x="204" y="39" on="1"/>
        <pt x="204" y="334" on="1"/>
      </contour>
    </TTGlyph>
    <TTGlyph name="circumflex" xMin="29" yMin="447" xMax="173" yMax="545">
      <contour>
        <pt x="36" y="452" on="1"/>
        <pt x="30" y="458" on="0"/>
        <pt x="30" y="470" on="0"/>
        <pt x="35" y="476" on="1"/>
        <pt x="79" y="534" on="1"/>
        <pt x="87" y="545" on="0"/>
        <pt x="115" y="545" on="0"/>
        <pt x="123" y="534" on="1"/>
        <pt x="167" y="476" on="1"/>
        <pt x="172" y="470" on="0"/>
        <pt x="172" y="458" on="0"/>
        <pt x="161" y="448" on="0"/>
        <pt x="155" y="448" on="1"/>
        <pt x="140" y="456" on="1"/>
        <pt x="101" y="497" on="1"/>
        <pt x="62" y="456" on="1"/>
        <pt x="54" y="448" on="0"/>
        <pt x="47" y="448" on="1"/>
      </contour>
    </TTGlyph>
    <TTGlyph name="colon" xMin="60" yMin="-10" xMax="133" yMax="384">
      <contour>
        <pt x="60" y="11" on="0"/>
        <pt x="60" y="41" on="0"/>
        <pt x="79" y="62" on="0"/>
        <pt x="113" y="62" on="0"/>
        <pt x="133" y="41" on="0"/>
        <pt x="133" y="11" on="0"/>
        <pt x="113" y="-10" on="0"/>
        <pt x="79" y="-10" on="0"/>
      </contour>
      <contour>
        <pt x="60" y="333" on="0"/>
        <pt x="60" y="363" on="0"/>
        <pt x="79" y="384" on="0"/>
        <pt x="113" y="384" on="0"/>
        <pt x="133" y="363" on="0"/>
        <pt x="133" y="333" on="0"/>
        <pt x="113" y="312" on="0"/>
        <pt x="79" y="312" on="0"/>
      </contour>
    </TTGlyph>
    <TTGlyph name="comma" xMin="56" yMin="-71" xMax="136" yMax="62">
      <contour>
        <pt x="63" y="26" on="1"/>
        <pt x="63" y="41" on="0"/>
        <pt x="82" y="62" on="0"/>
        <pt x="116" y="62" on="0"/>
        <pt x="136" y="41" on="0"/>
        <pt x="136" y="26" on="1"/>
        <pt x="136" y="-11" on="0"/>
        <pt x="88" y="-71" on="0"/>
        <pt x="67" y="-71" on="1"/>
        <pt x="56" y="-71" on="0"/>
        <pt x="56" y="-62" on="1"/>
        <pt x="56" y="-56" on="0"/>
        <pt x="63" y="-50" on="1"/>
        <pt x="82" y="-35" on="0"/>
        <pt x="88" y="-8" on="1"/>
        <pt x="63" y="-2" on="0"/>
      </contour>
    </TTGlyph>
    <TTGlyph name="copyright" xMin="47" yMin="-10" xMax="657" yMax="618">
      <contour>
        <pt x="216" y="-10" on="0"/>
        <pt x="47" y="168" on="0"/>
        <pt x="47" y="439" on="0"/>
        <pt x="217" y="618" on="0"/>
        <pt x="487" y="618" on="0"/>
        <pt x="657" y="439" on="0"/>
        <pt x="657" y="168" on="0"/>
        <pt x="487" y="-10" on="0"/>
      </contour>
      <contour>
        <pt x="101" y="420" on="0"/>
        <pt x="101" y="188" on="0"/>
        <pt x="240" y="36" on="0"/>
        <pt x="464" y="36" on="0"/>
        <pt x="603" y="188" on="0"/>
        <pt x="603" y="420" on="0"/>
        <pt x="464" y="572" on="0"/>
        <pt x="240" y="572" on="0"/>
      </contour>
      <contour>
        <pt x="478" y="190" on="1"/>
        <pt x="428" y="133" on="0"/>
        <pt x="276" y="133" on="0"/>
        <pt x="185" y="226" on="0"/>
        <pt x="185" y="380" on="0"/>
        <pt x="277" y="475" on="0"/>
        <pt x="410" y="475" on="0"/>
        <pt x="459" y="449" on="1"/>
        <pt x="475" y="441" on="0"/>
        <pt x="475" y="430" on="1"/>
        <pt x="475" y="385" on="1"/>
        <pt x="475" y="375" on="0"/>
        <pt x="459" y="362" on="0"/>
        <pt x="437" y="362" on="0"/>
        <pt x="422" y="375" on="0"/>
        <pt x="422" y="385" on="1"/>
        <pt x="422" y="417" on="1"/>
        <pt x="391" y="431" on="0"/>
        <pt x="299" y="431" on="0"/>
        <pt x="236" y="360" on="0"/>
        <pt x="236" y="248" on="0"/>
        <pt x="299" y="177" on="0"/>
        <pt x="403" y="177" on="0"/>
        <pt x="441" y="217" on="1"/>
        <pt x="449" y="226" on="0"/>
        <pt x="464" y="226" on="0"/>
        <pt x="483" y="211" on="0"/>
        <pt x="483" y="196" on="0"/>
      </contour>
    </TTGlyph>
    <TTGlyph name="currency" xMin="58" yMin="45" xMax="353" yMax="337">
      <contour>
        <pt x="306" y="326" on="1"/>
        <pt x="316" y="336" on="0"/>
        <pt x="335" y="336" on="0"/>
        <pt x="352" y="318" on="0"/>
        <pt x="352" y="302" on="0"/>
        <pt x="344" y="294" on="1"/>
        <pt x="304" y="255" on="1"/>
        <pt x="323" y="225" on="0"/>
        <pt x="323" y="155" on="0"/>
        <pt x="305" y="125" on="1"/>
        <pt x="345" y="86" on="1"/>
        <pt x="353" y="78" on="0"/>
        <pt x="353" y="62" on="0"/>
        <pt x="336" y="45" on="0"/>
        <pt x="318" y="45" on="0"/>
        <pt x="307" y="55" on="1"/>
        <pt x="271" y="90" on="1"/>
        <pt x="242" y="71" on="0"/>
        <pt x="164" y="71" on="0"/>
        <pt x="138" y="89" on="1"/>
        <pt x="104" y="55" on="1"/>
        <pt x="95" y="46" on="0"/>
        <pt x="84" y="46" on="1"/>
        <pt x="67" y="54" on="1"/>
        <pt x="60" y="62" on="0"/>
        <pt x="60" y="78" on="0"/>
        <pt x="67" y="87" on="1"/>
        <pt x="104" y="125" on="1"/>
        <pt x="86" y="154" on="0"/>
        <pt x="86" y="228" on="0"/>
        <pt x="104" y="257" on="1"/>
        <pt x="67" y="294" on="1"/>
        <pt x="59" y="302" on="0"/>
        <pt x="59" y="319" on="0"/>
        <pt x="77" y="337" on="0"/>
        <pt x="85" y="337" on="1"/>
        <pt x="104" y="326" on="1"/>
        <pt x="138" y="291" on="1"/>
        <pt x="166" y="310" on="0"/>
        <pt x="244" y="310" on="0"/>
        <pt x="272" y="291" on="1"/>
      </contour>
      <contour>
        <pt x="272" y="158" on="0"/>
        <pt x="272" y="224" on="0"/>
        <pt x="234" y="266" on="0"/>
        <pt x="176" y="266" on="0"/>
        <pt x="137" y="224" on="0"/>
        <pt x="137" y="158" on="0"/>
        <pt x="176" y="115" on="0"/>
        <pt x="234" y="115" on="0"/>
      </contour>
    </TTGlyph>
    <TTGlyph name="d" xMin="42" yMin="-10" xMax="497" yMax="750">
      <contour>
        <pt x="220" y="338" on="1"/>
        <pt x="163" y="338" on="0"/>
        <pt x="95" y="256" on="0"/>
        <pt x="95" y="116" on="0"/>
        <pt x="162" y="36" on="0"/>
        <pt x="220" y="36" on="1"/>
        <pt x="304" y="36" on="0"/>
        <pt x="354" y="131" on="1"/>
        <pt x="354" y="278" on="1"/>
        <pt x="328" y="303" on="0"/>
        <pt x="255" y="338" on="0"/>
      </contour>
      <contour>
        <pt x="354" y="703" on="1"/>
        <pt x="288" y="703" on="1"/>
        <pt x="278" y="703" on="0"/>
        <pt x="265" y="716" on="0"/>
        <pt x="265" y="736" on="0"/>
        <pt x="278" y="750" on="0"/>
        <pt x="288" y="750" on="1"/>
        <pt x="381" y="750" on="1"/>
        <pt x="392" y="750" on="0"/>
        <pt x="408" y="736" on="0"/>
        <pt x="408" y="726" on="1"/>
        <pt x="408" y="66" on="1"/>
        <pt x="408" y="47" on="0"/>
        <pt x="428" y="47" on="1"/>
        <pt x="474" y="47" on="1"/>
        <pt x="484" y="47" on="0"/>
        <pt x="497" y="34" on="0"/>
        <pt x="497" y="14" on="0"/>
        <pt x="484" y="0" on="0"/>
        <pt x="474" y="0" on="1"/>
        <pt x="421" y="0" on="1"/>
        <pt x="356" y="0" on="0"/>
        <pt x="358" y="71" on="1"/>
        <pt x="336" y="37" on="0"/>
        <pt x="265" y="-10" on="0"/>
        <pt x="220" y="-10" on="1"/>
        <pt x="131" y="-10" on="0"/>
        <pt x="42" y="104" on="0"/>
        <pt x="42" y="272" on="0"/>
        <pt x="135" y="384" on="0"/>
        <pt x="297" y="384" on="0"/>
        <pt x="354" y="331" on="1"/>
      </contour>
    </TTGlyph>
    <TTGlyph name="dagger" xMin="33" yMin="-176" xMax="329" yMax="618">
      <contour>
        <pt x="154" y="-153" on="1"/>
        <pt x="154" y="327" on="1"/>
        <pt x="56" y="327" on="1"/>
        <pt x="46" y="327" on="0"/>
        <pt x="33" y="340" on="0"/>
        <pt x="33" y="360" on="0"/>
        <pt x="46" y="374" on="0"/>
        <pt x="56" y="374" on="1"/>
        <pt x="154" y="374" on="1"/>
        <pt x="154" y="595" on="1"/>
        <pt x="154" y="605" on="0"/>
        <pt x="170" y="618" on="0"/>
        <pt x="192" y="618" on="0"/>
        <pt x="208" y="605" on="0"/>
        <pt x="208" y="595" on="1"/>
        <pt x="208" y="374" on="1"/>
        <pt x="306" y="374" on="1"/>
        <pt x="316" y="374" on="0"/>
        <pt x="329" y="360" on="0"/>
        <pt x="329" y="340" on="0"/>
        <pt x="316" y="327" on="0"/>
        <pt x="306" y="327" on="1"/>
        <pt x="208" y="327" on="1"/>
        <pt x="208" y="-153" on="1"/>
        <pt x="208" y="-163" on="0"/>
        <pt x="192" y="-176" on="0"/>
        <pt x="170" y="-176" on="0"/>
        <pt x="154" y="-163" on="0"/>
      </contour>
    </TTGlyph>
    <TTGlyph name="daggerdbl" xMin="33" yMin="-176" xMax="329" yMax="618">
      <contour>
        <pt x="306" y="126" on="1"/>
        <pt x="208" y="126" on="1"/>
        <pt x="208" y="-153" on="1"/>
        <pt x="208" y="-163" on="0"/>
        <pt x="192" y="-176" on="0"/>
        <pt x="170" y="-176" on="0"/>
        <pt x="154" y="-163" on="0"/>
        <pt x="154" y="-153" on="1"/>
        <pt x="154" y="126" on="1"/>
        <pt x="56" y="126" on="1"/>
        <pt x="46" y="126" on="0"/>
        <pt x="33" y="139" on="0"/>
        <pt x="33" y="159" on="0"/>
        <pt x="46" y="173" on="0"/>
        <pt x="56" y="173" on="1"/>
        <pt x="154" y="173" on="1"/>
        <pt x="154" y="327" on="1"/>
        <pt x="56" y="327" on="1"/>
        <pt x="46" y="327" on="0"/>
        <pt x="33" y="340" on="0"/>
        <pt x="33" y="360" on="0"/>
        <pt x="46" y="374" on="0"/>
        <pt x="56" y="374" on="1"/>
        <pt x="154" y="374" on="1"/>
        <pt x="154" y="595" on="1"/>
        <pt x="154" y="605" on="0"/>
        <pt x="170" y="618" on="0"/>
        <pt x="192" y="618" on="0"/>
        <pt x="208" y="605" on="0"/>
        <pt x="208" y="595" on="1"/>
        <pt x="208" y="374" on="1"/>
        <pt x="306" y="374" on="1"/>
        <pt x="316" y="374" on="0"/>
        <pt x="329" y="360" on="0"/>
        <pt x="329" y="340" on="0"/>
        <pt x="316" y="327" on="0"/>
        <pt x="306" y="327" on="1"/>
        <pt x="208" y="327" on="1"/>
        <pt x="208" y="173" on="1"/>
        <pt x="306" y="173" on="1"/>
        <pt x="316" y="173" on="0"/>
        <pt x="329" y="159" on="0"/>
        <pt x="329" y="139" on="0"/>
        <pt x="316" y="126" on="0"/>
      </contour>
    </TTGlyph>
    <TTGlyph name="degree" xMin="48" yMin="409" xMax="259" yMax="618">
      <contour>
        <pt x="259" y="467" on="0"/>
        <pt x="200" y="409" on="0"/>
        <pt x="107" y="409" on="0"/>
        <pt x="48" y="467" on="0"/>
        <pt x="48" y="560" on="0"/>
        <pt x="106" y="618" on="0"/>
        <pt x="201" y="618" on="0"/>
        <pt x="259" y="559" on="0"/>
      </contour>
      <contour>
        <pt x="211" y="541" on="0"/>
        <pt x="180" y="576" on="0"/>
        <pt x="127" y="576" on="0"/>
        <pt x="96" y="541" on="0"/>
        <pt x="96" y="486" on="0"/>
        <pt x="127" y="451" on="0"/>
        <pt x="180" y="451" on="0"/>
        <pt x="211" y="486" on="0"/>
      </contour>
    </TTGlyph>
    <TTGlyph name="dieresis" xMin="30" yMin="465" xMax="227" yMax="526">
      <contour>
        <pt x="30" y="495" on="1"/>
        <pt x="30" y="526" on="0"/>
        <pt x="61" y="526" on="1"/>
        <pt x="75" y="526" on="0"/>
        <pt x="92" y="508" on="0"/>
        <pt x="92" y="482" on="0"/>
        <pt x="75" y="465" on="0"/>
        <pt x="46" y="465" on="0"/>
        <pt x="30" y="482" on="0"/>
      </contour>
      <contour>
        <pt x="165" y="495" on="1"/>
        <pt x="165" y="526" on="0"/>
        <pt x="196" y="526" on="1"/>
        <pt x="210" y="526" on="0"/>
        <pt x="227" y="508" on="0"/>
        <pt x="227" y="482" on="0"/>
        <pt x="210" y="465" on="0"/>
        <pt x="181" y="465" on="0"/>
        <pt x="165" y="482" on="0"/>
      </contour>
    </TTGlyph>
    <TTGlyph name="divide" xMin="57" yMin="39" xMax="336" yMax="334">
      <contour>
        <pt x="160" y="60" on="0"/>
        <pt x="160" y="90" on="0"/>
        <pt x="179" y="111" on="0"/>
        <pt x="213" y="111" on="0"/>
        <pt x="233" y="90" on="0"/>
        <pt x="233" y="60" on="0"/>
        <pt x="213" y="39" on="0"/>
        <pt x="179" y="39" on="0"/>
      </contour>
      <contour>
        <pt x="160" y="283" on="0"/>
        <pt x="160" y="313" on="0"/>
        <pt x="179" y="334" on="0"/>
        <pt x="213" y="334" on="0"/>
        <pt x="233" y="313" on="0"/>
        <pt x="233" y="283" on="0"/>
        <pt x="213" y="262" on="0"/>
        <pt x="179" y="262" on="0"/>
      </contour>
      <contour>
        <pt x="313" y="163" on="1"/>
        <pt x="80" y="163" on="1"/>
        <pt x="70" y="163" on="0"/>
        <pt x="57" y="176" on="0"/>
        <pt x="57" y="196" on="0"/>
        <pt x="70" y="210" on="0"/>
        <pt x="80" y="210" on="1"/>
        <pt x="313" y="210" on="1"/>
        <pt x="323" y="210" on="0"/>
        <pt x="336" y="196" on="0"/>
        <pt x="336" y="176" on="0"/>
        <pt x="323" y="163" on="0"/>
      </contour>
    </TTGlyph>
    <TTGlyph name="dollar" xMin="36" yMin="-164" xMax="521" yMax="750">
      <contour>
        <pt x="90" y="138" on="1"/>
        <pt x="90" y="69" on="1"/>
        <pt x="150" y="39" on="0"/>
        <pt x="255" y="37" on="1"/>
        <pt x="255" y="299" on="1"/>
        <pt x="150" y="320" on="0"/>
        <pt x="48" y="390" on="0"/>
        <pt x="48" y="461" on="1"/>
        <pt x="48" y="610" on="0"/>
        <pt x="255" y="617" on="1"/>
        <pt x="255" y="727" on="1"/>
        <pt x="255" y="737" on="0"/>
        <pt x="271" y="750" on="0"/>
        <pt x="293" y="750" on="0"/>
        <pt x="309" y="737" on="0"/>
        <pt x="309" y="727" on="1"/>
        <pt x="309" y="617" on="1"/>
        <pt x="415" y="612" on="0"/>
        <pt x="486" y="573" on="1"/>
        <pt x="501" y="564" on="0"/>
        <pt x="501" y="552" on="1"/>
        <pt x="501" y="470" on="1"/>
        <pt x="501" y="460" on="0"/>
        <pt x="485" y="447" on="0"/>
        <pt x="463" y="447" on="0"/>
        <pt x="447" y="460" on="0"/>
        <pt x="447" y="470" on="1"/>
        <pt x="447" y="539" on="1"/>
        <pt x="394" y="563" on="0"/>
        <pt x="309" y="570" on="1"/>
        <pt x="309" y="342" on="1"/>
        <pt x="465" y="309" on="0"/>
        <pt x="504" y="235" on="1"/>
        <pt x="521" y="203" on="0"/>
        <pt x="521" y="160" on="1"/>
        <pt x="521" y="89" on="0"/>
        <pt x="411" y="-1" on="0"/>
        <pt x="309" y="-8" on="1"/>
        <pt x="309" y="-141" on="1"/>
        <pt x="309" y="-151" on="0"/>
        <pt x="293" y="-164" on="0"/>
        <pt x="271" y="-164" on="0"/>
        <pt x="255" y="-151" on="0"/>
        <pt x="255" y="-141" on="1"/>
        <pt x="255" y="-10" on="1"/>
        <pt x="200" y="-8" on="0"/>
        <pt x="140" y="4" on="1"/>
        <pt x="36" y="26" on="0"/>
        <pt x="36" y="56" on="1"/>
        <pt x="36" y="138" on="1"/>
        <pt x="36" y="148" on="0"/>
        <pt x="52" y="161" on="0"/>
        <pt x="74" y="161" on="0"/>
        <pt x="90" y="148" on="0"/>
      </contour>
      <contour>
        <pt x="384" y="46" on="0"/>
        <pt x="467" y="109" on="0"/>
        <pt x="467" y="214" on="0"/>
        <pt x="388" y="269" on="0"/>
        <pt x="309" y="287" on="1"/>
        <pt x="309" y="39" on="1"/>
      </contour>
      <contour>
        <pt x="102" y="461" on="1"/>
        <pt x="102" y="415" on="0"/>
        <pt x="180" y="369" on="0"/>
        <pt x="255" y="353" on="1"/>
        <pt x="255" y="570" on="1"/>
        <pt x="102" y="563" on="0"/>
      </contour>
    </TTGlyph>
    <TTGlyph name="e" xMin="42" yMin="-10" xMax="399" yMax="384">
      <contour>
        <pt x="343" y="274" on="0"/>
        <pt x="286" y="338" on="0"/>
        <pt x="179" y="338" on="0"/>
        <pt x="107" y="273" on="0"/>
        <pt x="98" y="220" on="1"/>
        <pt x="346" y="220" on="1"/>
      </contour>
      <contour>
        <pt x="348" y="96" on="1"/>
        <pt x="355" y="108" on="0"/>
        <pt x="373" y="108" on="0"/>
        <pt x="391" y="99" on="0"/>
        <pt x="398" y="80" on="0"/>
        <pt x="393" y="72" on="1"/>
        <pt x="342" y="-10" on="0"/>
        <pt x="231" y="-10" on="1"/>
        <pt x="143" y="-10" on="0"/>
        <pt x="42" y="103" on="0"/>
        <pt x="42" y="275" on="0"/>
        <pt x="146" y="384" on="0"/>
        <pt x="316" y="384" on="0"/>
        <pt x="399" y="282" on="0"/>
        <pt x="399" y="197" on="1"/>
        <pt x="399" y="174" on="0"/>
        <pt x="373" y="174" on="1"/>
        <pt x="96" y="173" on="1"/>
        <pt x="100" y="111" on="0"/>
        <pt x="173" y="36" on="0"/>
        <pt x="231" y="36" on="1"/>
        <pt x="309" y="36" on="0"/>
      </contour>
    </TTGlyph>
    <TTGlyph name="eacute" xMin="42" yMin="-10" xMax="399" yMax="556">
      <contour>
        <pt x="179" y="338" on="0"/>
        <pt x="107" y="273" on="0"/>
        <pt x="98" y="220" on="1"/>
        <pt x="346" y="220" on="1"/>
        <pt x="343" y="274" on="0"/>
        <pt x="286" y="338" on="0"/>
      </contour>
      <contour>
        <pt x="231" y="36" on="1"/>
        <pt x="309" y="36" on="0"/>
        <pt x="348" y="96" on="1"/>
        <pt x="355" y="108" on="0"/>
        <pt x="373" y="108" on="0"/>
        <pt x="391" y="99" on="0"/>
        <pt x="398" y="80" on="0"/>
        <pt x="393" y="72" on="1"/>
        <pt x="342" y="-10" on="0"/>
        <pt x="231" y="-10" on="1"/>
        <pt x="143" y="-10" on="0"/>
        <pt x="42" y="103" on="0"/>
        <pt x="42" y="275" on="0"/>
        <pt x="146" y="384" on="0"/>
        <pt x="316" y="384" on="0"/>
        <pt x="399" y="282" on="0"/>
        <pt x="399" y="197" on="1"/>
        <pt x="399" y="174" on="0"/>
        <pt x="373" y="174" on="1"/>
        <pt x="96" y="173" on="1"/>
        <pt x="100" y="111" on="0"/>
        <pt x="173" y="36" on="0"/>
      </contour>
      <contour>
        <pt x="245" y="546" on="1"/>
        <pt x="254" y="556" on="0"/>
        <pt x="270" y="556" on="0"/>
        <pt x="286" y="540" on="0"/>
        <pt x="286" y="524" on="0"/>
        <pt x="276" y="515" on="1"/>
        <pt x="214" y="460" on="1"/>
        <pt x="207" y="454" on="0"/>
        <pt x="194" y="454" on="0"/>
        <pt x="184" y="464" on="0"/>
        <pt x="184" y="477" on="0"/>
        <pt x="190" y="484" on="1"/>
      </contour>
    </TTGlyph>
    <TTGlyph name="ecircumflex" xMin="42" yMin="-10" xMax="399" yMax="545">
      <contour>
        <pt x="343" y="274" on="0"/>
        <pt x="286" y="338" on="0"/>
        <pt x="179" y="338" on="0"/>
        <pt x="107" y="273" on="0"/>
        <pt x="98" y="220" on="1"/>
        <pt x="346" y="220" on="1"/>
      </contour>
      <contour>
        <pt x="348" y="96" on="1"/>
        <pt x="355" y="108" on="0"/>
        <pt x="373" y="108" on="0"/>
        <pt x="391" y="99" on="0"/>
        <pt x="398" y="80" on="0"/>
        <pt x="393" y="72" on="1"/>
        <pt x="342" y="-10" on="0"/>
        <pt x="231" y="-10" on="1"/>
        <pt x="143" y="-10" on="0"/>
        <pt x="42" y="103" on="0"/>
        <pt x="42" y="275" on="0"/>
        <pt x="146" y="384" on="0"/>
        <pt x="316" y="384" on="0"/>
        <pt x="399" y="282" on="0"/>
        <pt x="399" y="197" on="1"/>
        <pt x="399" y="174" on="0"/>
        <pt x="373" y="174" on="1"/>
        <pt x="96" y="173" on="1"/>
        <pt x="100" y="111" on="0"/>
        <pt x="173" y="36" on="0"/>
        <pt x="231" y="36" on="1"/>
        <pt x="309" y="36" on="0"/>
      </contour>
      <contour>
        <pt x="163" y="452" on="1"/>
        <pt x="157" y="458" on="0"/>
        <pt x="157" y="470" on="0"/>
        <pt x="162" y="476" on="1"/>
        <pt x="206" y="534" on="1"/>
        <pt x="214" y="545" on="0"/>
        <pt x="242" y="545" on="0"/>
        <pt x="250" y="534" on="1"/>
        <pt x="294" y="476" on="1"/>
        <pt x="299" y="470" on="0"/>
        <pt x="299" y="458" on="0"/>
        <pt x="288" y="448" on="0"/>
        <pt x="282" y="448" on="1"/>
        <pt x="267" y="456" on="1"/>
        <pt x="228" y="497" on="1"/>
        <pt x="189" y="456" on="1"/>
        <pt x="181" y="448" on="0"/>
        <pt x="174" y="448" on="1"/>
      </contour>
    </TTGlyph>
    <TTGlyph name="edieresis" xMin="42" yMin="-10" xMax="399" yMax="526">
      <contour>
        <pt x="179" y="338" on="0"/>
        <pt x="107" y="273" on="0"/>
        <pt x="98" y="220" on="1"/>
        <pt x="346" y="220" on="1"/>
        <pt x="343" y="274" on="0"/>
        <pt x="286" y="338" on="0"/>
      </contour>
      <contour>
        <pt x="231" y="36" on="1"/>
        <pt x="309" y="36" on="0"/>
        <pt x="348" y="96" on="1"/>
        <pt x="355" y="108" on="0"/>
        <pt x="373" y="108" on="0"/>
        <pt x="391" y="99" on="0"/>
        <pt x="398" y="80" on="0"/>
        <pt x="393" y="72" on="1"/>
        <pt x="342" y="-10" on="0"/>
        <pt x="231" y="-10" on="1"/>
        <pt x="143" y="-10" on="0"/>
        <pt x="42" y="103" on="0"/>
        <pt x="42" y="275" on="0"/>
        <pt x="146" y="384" on="0"/>
        <pt x="316" y="384" on="0"/>
        <pt x="399" y="282" on="0"/>
        <pt x="399" y="197" on="1"/>
        <pt x="399" y="174" on="0"/>
        <pt x="373" y="174" on="1"/>
        <pt x="96" y="173" on="1"/>
        <pt x="100" y="111" on="0"/>
        <pt x="173" y="36" on="0"/>
      </contour>
      <contour>
        <pt x="126" y="495" on="1"/>
        <pt x="126" y="526" on="0"/>
        <pt x="157" y="526" on="1"/>
        <pt x="171" y="526" on="0"/>
        <pt x="188" y="508" on="0"/>
        <pt x="188" y="482" on="0"/>
        <pt x="171" y="465" on="0"/>
        <pt x="142" y="465" on="0"/>
        <pt x="126" y="482" on="0"/>
      </contour>
      <contour>
        <pt x="261" y="495" on="1"/>
        <pt x="261" y="526" on="0"/>
        <pt x="292" y="526" on="1"/>
        <pt x="306" y="526" on="0"/>
        <pt x="323" y="508" on="0"/>
        <pt x="323" y="482" on="0"/>
        <pt x="306" y="465" on="0"/>
        <pt x="277" y="465" on="0"/>
        <pt x="261" y="482" on="0"/>
      </contour>
    </TTGlyph>
    <TTGlyph name="egrave" xMin="42" yMin="-10" xMax="399" yMax="556">
      <contour>
        <pt x="343" y="274" on="0"/>
        <pt x="286" y="338" on="0"/>
        <pt x="179" y="338" on="0"/>
        <pt x="107" y="273" on="0"/>
        <pt x="98" y="220" on="1"/>
        <pt x="346" y="220" on="1"/>
      </contour>
      <contour>
        <pt x="348" y="96" on="1"/>
        <pt x="355" y="108" on="0"/>
        <pt x="373" y="108" on="0"/>
        <pt x="391" y="99" on="0"/>
        <pt x="398" y="80" on="0"/>
        <pt x="393" y="72" on="1"/>
        <pt x="342" y="-10" on="0"/>
        <pt x="231" y="-10" on="1"/>
        <pt x="143" y="-10" on="0"/>
        <pt x="42" y="103" on="0"/>
        <pt x="42" y="275" on="0"/>
        <pt x="146" y="384" on="0"/>
        <pt x="316" y="384" on="0"/>
        <pt x="399" y="282" on="0"/>
        <pt x="399" y="197" on="1"/>
        <pt x="399" y="174" on="0"/>
        <pt x="373" y="174" on="1"/>
        <pt x="96" y="173" on="1"/>
        <pt x="100" y="111" on="0"/>
        <pt x="173" y="36" on="0"/>
        <pt x="231" y="36" on="1"/>
        <pt x="309" y="36" on="0"/>
      </contour>
      <contour>
        <pt x="253" y="484" on="1"/>
        <pt x="259" y="477" on="0"/>
        <pt x="259" y="464" on="0"/>
        <pt x="249" y="454" on="0"/>
        <pt x="236" y="454" on="0"/>
        <pt x="229" y="460" on="1"/>
        <pt x="167" y="515" on="1"/>
        <pt x="157" y="524" on="0"/>
        <pt x="157" y="540" on="0"/>
        <pt x="173" y="556" on="0"/>
        <pt x="189" y="556" on="0"/>
        <pt x="198" y="546" on="1"/>
      </contour>
    </TTGlyph>
    <TTGlyph name="eight" xMin="44" yMin="-10" xMax="472" yMax="760">
      <contour>
        <pt x="472" y="99" on="0"/>
        <pt x="353" y="-10" on="0"/>
        <pt x="160" y="-10" on="0"/>
        <pt x="44" y="94" on="0"/>
        <pt x="44" y="260" on="0"/>
        <pt x="129" y="354" on="0"/>
        <pt x="204" y="392" on="1"/>
        <pt x="134" y="429" on="0"/>
        <pt x="65" y="519" on="0"/>
        <pt x="65" y="664" on="0"/>
        <pt x="169" y="760" on="0"/>
        <pt x="347" y="760" on="0"/>
        <pt x="451" y="663" on="0"/>
        <pt x="451" y="520" on="0"/>
        <pt x="383" y="433" on="0"/>
        <pt x="311" y="396" on="1"/>
        <pt x="386" y="358" on="0"/>
        <pt x="472" y="261" on="0"/>
      </contour>
      <contour>
        <pt x="180" y="330" on="0"/>
        <pt x="98" y="248" on="0"/>
        <pt x="98" y="117" on="0"/>
        <pt x="182" y="36" on="0"/>
        <pt x="330" y="36" on="0"/>
        <pt x="418" y="119" on="0"/>
        <pt x="418" y="185" on="1"/>
        <pt x="418" y="253" on="0"/>
        <pt x="362" y="300" on="1"/>
        <pt x="320" y="336" on="0"/>
        <pt x="255" y="368" on="1"/>
      </contour>
      <contour>
        <pt x="257" y="714" on="1"/>
        <pt x="213" y="714" on="0"/>
        <pt x="153" y="685" on="0"/>
        <pt x="140" y="662" on="1"/>
        <pt x="118" y="623" on="0"/>
        <pt x="118" y="584" on="1"/>
        <pt x="118" y="527" on="0"/>
        <pt x="190" y="453" on="0"/>
        <pt x="259" y="419" on="1"/>
        <pt x="328" y="452" on="0"/>
        <pt x="397" y="526" on="0"/>
        <pt x="397" y="643" on="0"/>
        <pt x="322" y="714" on="0"/>
      </contour>
    </TTGlyph>
    <TTGlyph name="ellipsis" xMin="60" yMin="-10" xMax="343" yMax="62">
      <contour>
        <pt x="60" y="11" on="0"/>
        <pt x="60" y="41" on="0"/>
        <pt x="79" y="62" on="0"/>
        <pt x="113" y="62" on="0"/>
        <pt x="133" y="41" on="0"/>
        <pt x="133" y="11" on="0"/>
        <pt x="113" y="-10" on="0"/>
        <pt x="79" y="-10" on="0"/>
      </contour>
      <contour>
        <pt x="165" y="11" on="0"/>
        <pt x="165" y="41" on="0"/>
        <pt x="184" y="62" on="0"/>
        <pt x="218" y="62" on="0"/>
        <pt x="238" y="41" on="0"/>
        <pt x="238" y="11" on="0"/>
        <pt x="218" y="-10" on="0"/>
        <pt x="184" y="-10" on="0"/>
      </contour>
      <contour>
        <pt x="270" y="11" on="0"/>
        <pt x="270" y="41" on="0"/>
        <pt x="289" y="62" on="0"/>
        <pt x="323" y="62" on="0"/>
        <pt x="343" y="41" on="0"/>
        <pt x="343" y="11" on="0"/>
        <pt x="323" y="-10" on="0"/>
        <pt x="289" y="-10" on="0"/>
      </contour>
    </TTGlyph>
    <TTGlyph name="emdash" xMin="60" yMin="196" xMax="687" yMax="243">
      <contour>
        <pt x="664" y="196" on="1"/>
        <pt x="83" y="196" on="1"/>
        <pt x="73" y="196" on="0"/>
        <pt x="60" y="209" on="0"/>
        <pt x="60" y="229" on="0"/>
        <pt x="73" y="243" on="0"/>
        <pt x="83" y="243" on="1"/>
        <pt x="664" y="243" on="1"/>
        <pt x="674" y="243" on="0"/>
        <pt x="687" y="229" on="0"/>
        <pt x="687" y="209" on="0"/>
        <pt x="674" y="196" on="0"/>
      </contour>
    </TTGlyph>
    <TTGlyph name="endash" xMin="60" yMin="196" xMax="451" yMax="243">
      <contour>
        <pt x="428" y="196" on="1"/>
        <pt x="83" y="196" on="1"/>
        <pt x="73" y="196" on="0"/>
        <pt x="60" y="209" on="0"/>
        <pt x="60" y="229" on="0"/>
        <pt x="73" y="243" on="0"/>
        <pt x="83" y="243" on="1"/>
        <pt x="428" y="243" on="1"/>
        <pt x="438" y="243" on="0"/>
        <pt x="451" y="229" on="0"/>
        <pt x="451" y="209" on="0"/>
        <pt x="438" y="196" on="0"/>
      </contour>
    </TTGlyph>
    <TTGlyph name="equal" xMin="64" yMin="140" xMax="362" yMax="299">
      <contour>
        <pt x="339" y="252" on="1"/>
        <pt x="87" y="252" on="1"/>
        <pt x="77" y="252" on="0"/>
        <pt x="64" y="265" on="0"/>
        <pt x="64" y="285" on="0"/>
        <pt x="77" y="299" on="0"/>
        <pt x="87" y="299" on="1"/>
        <pt x="339" y="299" on="1"/>
        <pt x="349" y="299" on="0"/>
        <pt x="362" y="285" on="0"/>
        <pt x="362" y="265" on="0"/>
        <pt x="349" y="252" on="0"/>
      </contour>
      <contour>
        <pt x="339" y="140" on="1"/>
        <pt x="87" y="140" on="1"/>
        <pt x="77" y="140" on="0"/>
        <pt x="64" y="153" on="0"/>
        <pt x="64" y="173" on="0"/>
        <pt x="77" y="187" on="0"/>
        <pt x="87" y="187" on="1"/>
        <pt x="339" y="187" on="1"/>
        <pt x="349" y="187" on="0"/>
        <pt x="362" y="173" on="0"/>
        <pt x="362" y="153" on="0"/>
        <pt x="349" y="140" on="0"/>
      </contour>
    </TTGlyph>
    <TTGlyph name="eth" xMin="42" yMin="-10" xMax="429" yMax="761">
      <contour>
        <pt x="116" y="735" on="1"/>
        <pt x="116" y="761" on="0"/>
        <pt x="138" y="761" on="1"/>
        <pt x="141" y="761" on="0"/>
        <pt x="145" y="760" on="1"/>
        <pt x="242" y="744" on="0"/>
        <pt x="306" y="681" on="1"/>
        <pt x="362" y="727" on="1"/>
        <pt x="369" y="733" on="0"/>
        <pt x="376" y="733" on="1"/>
        <pt x="394" y="722" on="1"/>
        <pt x="401" y="713" on="0"/>
        <pt x="401" y="697" on="0"/>
        <pt x="392" y="690" on="1"/>
        <pt x="337" y="645" on="1"/>
        <pt x="429" y="518" on="0"/>
        <pt x="429" y="258" on="1"/>
        <pt x="429" y="101" on="0"/>
        <pt x="365" y="41" on="1"/>
        <pt x="310" y="-10" on="0"/>
        <pt x="151" y="-10" on="0"/>
        <pt x="42" y="102" on="0"/>
        <pt x="42" y="273" on="0"/>
        <pt x="136" y="384" on="0"/>
        <pt x="311" y="384" on="0"/>
        <pt x="374" y="311" on="1"/>
        <pt x="370" y="505" on="0"/>
        <pt x="296" y="612" on="1"/>
        <pt x="243" y="569" on="1"/>
        <pt x="235" y="563" on="0"/>
        <pt x="216" y="565" on="0"/>
        <pt x="204" y="581" on="0"/>
        <pt x="204" y="598" on="0"/>
        <pt x="213" y="606" on="1"/>
        <pt x="265" y="648" on="1"/>
        <pt x="212" y="701" on="0"/>
        <pt x="133" y="715" on="1"/>
        <pt x="116" y="718" on="0"/>
      </contour>
      <contour>
        <pt x="353" y="282" on="0"/>
        <pt x="275" y="338" on="0"/>
        <pt x="168" y="338" on="0"/>
        <pt x="96" y="254" on="0"/>
        <pt x="96" y="120" on="0"/>
        <pt x="175" y="36" on="0"/>
        <pt x="304" y="36" on="0"/>
        <pt x="374" y="147" on="0"/>
        <pt x="375" y="251" on="1"/>
      </contour>
    </TTGlyph>
    <TTGlyph name="exclam" xMin="80" yMin="-10" xMax="148" yMax="618">
      <contour>
        <pt x="80" y="10" on="0"/>
        <pt x="80" y="38" on="0"/>
        <pt x="98" y="57" on="0"/>
        <pt x="130" y="57" on="0"/>
        <pt x="148" y="38" on="0"/>
        <pt x="148" y="10" on="0"/>
        <pt x="130" y="-10" on="0"/>
        <pt x="98" y="-10" on="0"/>
      </contour>
      <contour>
        <pt x="100" y="618" on="0"/>
        <pt x="128" y="618" on="0"/>
        <pt x="146" y="605" on="0"/>
        <pt x="146" y="595" on="1"/>
        <pt x="137" y="119" on="1"/>
        <pt x="137" y="110" on="0"/>
        <pt x="124" y="98" on="0"/>
        <pt x="104" y="98" on="0"/>
        <pt x="91" y="110" on="0"/>
        <pt x="91" y="119" on="1"/>
        <pt x="82" y="595" on="1"/>
        <pt x="82" y="605" on="0"/>
      </contour>
    </TTGlyph>
    <TTGlyph name="exclamdown" xMin="80" yMin="-10" xMax="148" yMax="618">
      <contour>
        <pt x="80" y="570" on="0"/>
        <pt x="80" y="598" on="0"/>
        <pt x="98" y="618" on="0"/>
        <pt x="130" y="618" on="0"/>
        <pt x="148" y="598" on="0"/>
        <pt x="148" y="570" on="0"/>
        <pt x="130" y="551" on="0"/>
        <pt x="98" y="551" on="0"/>
      </contour>
      <contour>
        <pt x="104" y="510" on="0"/>
        <pt x="124" y="510" on="0"/>
        <pt x="137" y="498" on="0"/>
        <pt x="137" y="489" on="1"/>
        <pt x="146" y="13" on="1"/>
        <pt x="146" y="3" on="0"/>
        <pt x="128" y="-10" on="0"/>
        <pt x="100" y="-10" on="0"/>
        <pt x="82" y="3" on="0"/>
        <pt x="82" y="13" on="1"/>
        <pt x="91" y="489" on="1"/>
        <pt x="91" y="498" on="0"/>
      </contour>
    </TTGlyph>
    <TTGlyph name="f" xMin="-11" yMin="-229" xMax="395" yMax="760">
      <contour>
        <pt x="29" y="-226" on="1"/>
        <pt x="18" y="-229" on="0"/>
        <pt x="2" y="-229" on="0"/>
        <pt x="-11" y="-217" on="0"/>
        <pt x="-11" y="-207" on="1"/>
        <pt x="-11" y="-189" on="0"/>
        <pt x="12" y="-183" on="1"/>
        <pt x="64" y="-167" on="0"/>
        <pt x="104" y="-80" on="0"/>
        <pt x="104" y="-6" on="1"/>
        <pt x="104" y="327" on="1"/>
        <pt x="43" y="327" on="1"/>
        <pt x="33" y="327" on="0"/>
        <pt x="20" y="340" on="0"/>
        <pt x="20" y="360" on="0"/>
        <pt x="33" y="374" on="0"/>
        <pt x="43" y="374" on="1"/>
        <pt x="104" y="374" on="1"/>
        <pt x="104" y="600" on="1"/>
        <pt x="104" y="687" on="0"/>
        <pt x="177" y="760" on="0"/>
        <pt x="329" y="760" on="0"/>
        <pt x="383" y="727" on="1"/>
        <pt x="395" y="720" on="0"/>
        <pt x="395" y="709" on="1"/>
        <pt x="395" y="623" on="1"/>
        <pt x="395" y="613" on="0"/>
        <pt x="379" y="600" on="0"/>
        <pt x="357" y="600" on="0"/>
        <pt x="341" y="613" on="0"/>
        <pt x="341" y="623" on="1"/>
        <pt x="341" y="698" on="1"/>
        <pt x="306" y="714" on="0"/>
        <pt x="202" y="714" on="0"/>
        <pt x="157" y="661" on="0"/>
        <pt x="157" y="599" on="1"/>
        <pt x="157" y="374" on="1"/>
        <pt x="331" y="374" on="1"/>
        <pt x="341" y="374" on="0"/>
        <pt x="354" y="360" on="0"/>
        <pt x="354" y="340" on="0"/>
        <pt x="341" y="327" on="0"/>
        <pt x="331" y="327" on="1"/>
        <pt x="157" y="327" on="1"/>
        <pt x="157" y="-6" on="1"/>
        <pt x="157" y="-95" on="0"/>
        <pt x="103" y="-201" on="0"/>
      </contour>
    </TTGlyph>
    <TTGlyph name="fi" xMin="-11" yMin="-229" xMax="459" yMax="760">
      <contour>
        <pt x="459" y="351" on="1"/>
        <pt x="459" y="13" on="1"/>
        <pt x="459" y="3" on="0"/>
        <pt x="443" y="-10" on="0"/>
        <pt x="421" y="-10" on="0"/>
        <pt x="405" y="3" on="0"/>
        <pt x="405" y="13" on="1"/>
        <pt x="405" y="327" on="1"/>
        <pt x="157" y="327" on="1"/>
        <pt x="157" y="-6" on="1"/>
        <pt x="157" y="-95" on="0"/>
        <pt x="103" y="-201" on="0"/>
        <pt x="29" y="-226" on="1"/>
        <pt x="18" y="-229" on="0"/>
        <pt x="2" y="-229" on="0"/>
        <pt x="-11" y="-217" on="0"/>
        <pt x="-11" y="-207" on="1"/>
        <pt x="-11" y="-189" on="0"/>
        <pt x="12" y="-183" on="1"/>
        <pt x="64" y="-167" on="0"/>
        <pt x="104" y="-80" on="0"/>
        <pt x="104" y="-6" on="1"/>
        <pt x="104" y="327" on="1"/>
        <pt x="43" y="327" on="1"/>
        <pt x="33" y="327" on="0"/>
        <pt x="20" y="340" on="0"/>
        <pt x="20" y="360" on="0"/>
        <pt x="33" y="374" on="0"/>
        <pt x="43" y="374" on="1"/>
        <pt x="104" y="374" on="1"/>
        <pt x="104" y="600" on="1"/>
        <pt x="104" y="687" on="0"/>
        <pt x="198" y="760" on="0"/>
        <pt x="382" y="760" on="0"/>
        <pt x="443" y="727" on="1"/>
        <pt x="455" y="720" on="0"/>
        <pt x="455" y="709" on="1"/>
        <pt x="455" y="538" on="1"/>
        <pt x="455" y="528" on="0"/>
        <pt x="439" y="515" on="0"/>
        <pt x="417" y="515" on="0"/>
        <pt x="401" y="528" on="0"/>
        <pt x="401" y="538" on="1"/>
        <pt x="401" y="698" on="1"/>
        <pt x="360" y="714" on="0"/>
        <pt x="219" y="714" on="0"/>
        <pt x="157" y="661" on="0"/>
        <pt x="157" y="599" on="1"/>
        <pt x="157" y="374" on="1"/>
        <pt x="436" y="374" on="1"/>
        <pt x="459" y="374" on="0"/>
      </contour>
    </TTGlyph>
    <TTGlyph name="five" xMin="47" yMin="-229" xMax="430" yMax="374">
      <contour>
        <pt x="101" y="-62" on="1"/>
        <pt x="101" y="-146" on="1"/>
        <pt x="159" y="-183" on="0"/>
        <pt x="301" y="-183" on="0"/>
        <pt x="377" y="-92" on="0"/>
        <pt x="377" y="-33" on="1"/>
        <pt x="377" y="129" on="0"/>
        <pt x="225" y="129" on="1"/>
        <pt x="181" y="129" on="0"/>
        <pt x="92" y="109" on="0"/>
        <pt x="86" y="109" on="1"/>
        <pt x="66" y="109" on="0"/>
        <pt x="66" y="124" on="1"/>
        <pt x="66" y="353" on="1"/>
        <pt x="66" y="374" on="0"/>
        <pt x="89" y="374" on="1"/>
        <pt x="382" y="374" on="1"/>
        <pt x="392" y="374" on="0"/>
        <pt x="405" y="360" on="0"/>
        <pt x="405" y="340" on="0"/>
        <pt x="392" y="327" on="0"/>
        <pt x="382" y="327" on="1"/>
        <pt x="119" y="327" on="1"/>
        <pt x="119" y="160" on="1"/>
        <pt x="169" y="175" on="0"/>
        <pt x="223" y="175" on="1"/>
        <pt x="324" y="175" on="0"/>
        <pt x="430" y="69" on="0"/>
        <pt x="430" y="-117" on="0"/>
        <pt x="319" y="-229" on="0"/>
        <pt x="130" y="-229" on="0"/>
        <pt x="60" y="-176" on="1"/>
        <pt x="47" y="-165" on="0"/>
        <pt x="47" y="-154" on="1"/>
        <pt x="47" y="-62" on="1"/>
        <pt x="47" y="-52" on="0"/>
        <pt x="63" y="-39" on="0"/>
        <pt x="85" y="-39" on="0"/>
        <pt x="101" y="-52" on="0"/>
      </contour>
    </TTGlyph>
    <TTGlyph name="fl" xMin="-11" yMin="-229" xMax="548" yMax="760">
      <contour>
        <pt x="486" y="47" on="1"/>
        <pt x="525" y="47" on="1"/>
        <pt x="535" y="47" on="0"/>
        <pt x="548" y="33" on="0"/>
        <pt x="548" y="13" on="0"/>
        <pt x="535" y="0" on="0"/>
        <pt x="525" y="0" on="1"/>
        <pt x="486" y="0" on="1"/>
        <pt x="405" y="0" on="0"/>
        <pt x="405" y="65" on="1"/>
        <pt x="405" y="698" on="1"/>
        <pt x="364" y="714" on="0"/>
        <pt x="219" y="714" on="0"/>
        <pt x="157" y="661" on="0"/>
        <pt x="157" y="599" on="1"/>
        <pt x="157" y="374" on="1"/>
        <pt x="331" y="374" on="1"/>
        <pt x="341" y="374" on="0"/>
        <pt x="354" y="360" on="0"/>
        <pt x="354" y="340" on="0"/>
        <pt x="341" y="327" on="0"/>
        <pt x="331" y="327" on="1"/>
        <pt x="157" y="327" on="1"/>
        <pt x="157" y="-6" on="1"/>
        <pt x="157" y="-95" on="0"/>
        <pt x="103" y="-201" on="0"/>
        <pt x="29" y="-226" on="1"/>
        <pt x="18" y="-229" on="0"/>
        <pt x="2" y="-229" on="0"/>
        <pt x="-11" y="-217" on="0"/>
        <pt x="-11" y="-207" on="1"/>
        <pt x="-11" y="-189" on="0"/>
        <pt x="12" y="-183" on="1"/>
        <pt x="64" y="-167" on="0"/>
        <pt x="104" y="-80" on="0"/>
        <pt x="104" y="-6" on="1"/>
        <pt x="104" y="327" on="1"/>
        <pt x="43" y="327" on="1"/>
        <pt x="33" y="327" on="0"/>
        <pt x="20" y="340" on="0"/>
        <pt x="20" y="360" on="0"/>
        <pt x="33" y="374" on="0"/>
        <pt x="43" y="374" on="1"/>
        <pt x="104" y="374" on="1"/>
        <pt x="104" y="600" on="1"/>
        <pt x="104" y="687" on="0"/>
        <pt x="198" y="760" on="0"/>
        <pt x="386" y="760" on="0"/>
        <pt x="447" y="727" on="1"/>
        <pt x="459" y="720" on="0"/>
        <pt x="459" y="709" on="1"/>
        <pt x="459" y="66" on="1"/>
        <pt x="459" y="47" on="0"/>
      </contour>
    </TTGlyph>
    <TTGlyph name="florin" xMin="23" yMin="-229" xMax="503" yMax="760">
      <contour>
        <pt x="63" y="-226" on="1"/>
        <pt x="52" y="-229" on="0"/>
        <pt x="35" y="-229" on="0"/>
        <pt x="24" y="-218" on="0"/>
        <pt x="24" y="-210" on="1"/>
        <pt x="24" y="-189" on="0"/>
        <pt x="49" y="-183" on="1"/>
        <pt x="101" y="-167" on="0"/>
        <pt x="148" y="-80" on="0"/>
        <pt x="155" y="-6" on="1"/>
        <pt x="182" y="327" on="1"/>
        <pt x="121" y="327" on="1"/>
        <pt x="111" y="327" on="0"/>
        <pt x="99" y="340" on="0"/>
        <pt x="100" y="350" on="1"/>
        <pt x="102" y="374" on="0"/>
        <pt x="124" y="374" on="1"/>
        <pt x="185" y="374" on="1"/>
        <pt x="204" y="600" on="1"/>
        <pt x="211" y="687" on="0"/>
        <pt x="290" y="760" on="0"/>
        <pt x="442" y="760" on="0"/>
        <pt x="493" y="727" on="1"/>
        <pt x="505" y="721" on="0"/>
        <pt x="503" y="709" on="1"/>
        <pt x="496" y="623" on="1"/>
        <pt x="495" y="613" on="0"/>
        <pt x="479" y="600" on="0"/>
        <pt x="457" y="600" on="0"/>
        <pt x="441" y="613" on="0"/>
        <pt x="442" y="623" on="1"/>
        <pt x="449" y="698" on="1"/>
        <pt x="414" y="714" on="0"/>
        <pt x="311" y="714" on="0"/>
        <pt x="262" y="661" on="0"/>
        <pt x="257" y="599" on="1"/>
        <pt x="238" y="374" on="1"/>
        <pt x="412" y="374" on="1"/>
        <pt x="422" y="374" on="0"/>
        <pt x="434" y="360" on="0"/>
        <pt x="433" y="350" on="1"/>
        <pt x="431" y="327" on="0"/>
        <pt x="409" y="327" on="1"/>
        <pt x="235" y="327" on="1"/>
        <pt x="208" y="-6" on="1"/>
        <pt x="201" y="-95" on="0"/>
        <pt x="138" y="-201" on="0"/>
      </contour>
    </TTGlyph>
</ttFont>
